<?xml version="1.0" encoding="UTF-8"?>
<svg id="Layer_2" data-name="Layer 2" xmlns="http://www.w3.org/2000/svg" viewBox="0 0 47.96 59.2">
  <defs>
    <style>
      .cls-1 {
        fill: none;
        stroke: #fff;
        stroke-miterlimit: 10;
        stroke-width: 3px;
      }
    </style>
  </defs>
  <g id="Layer_1-2" data-name="Layer 1">
    <g>
      <path class="cls-1" d="M27.35,12.29l-.22-2.25c-.9-4.95-4.5-8.54-8.77-8.54h0c-4.27,0-7.87,3.6-8.54,8.54l-.22,2.25c-.67,4.72-2.25,9.22-4.5,13.04-2.25,3.6-3.6,8.09-3.6,13.04,0,11.91,7.64,19.33,16.86,19.33s16.86-7.42,16.86-19.33c0-4.95-1.35-9.44-3.37-13.04-2.25-3.82-3.82-8.32-4.5-13.04Z"/>
      <path class="cls-1" d="M32.97,6c6.74,15.74,13.49,20.23,13.49,31.47s-10.79,20.23-26.98,20.23"/>
      <path class="cls-1" d="M26.23,37.47c0,4.95-3.6,8.99-7.87,8.99s-7.87-4.05-7.87-8.99,3.6-11.46,7.87-11.46,7.87,6.52,7.87,11.46Z"/>
    </g>
  </g>
</svg>