<?xml version="1.0" encoding="UTF-8"?>
<svg id="Layer_2" data-name="Layer 2" xmlns="http://www.w3.org/2000/svg" viewBox="0 0 59.87 58.63">
  <defs>
    <style>
      .cls-1 {
        fill: none;
        stroke: #fff;
        stroke-miterlimit: 10;
        stroke-width: 3px;
      }
    </style>
  </defs>
  <g id="Layer_1-2" data-name="Layer 1">
    <g>
      <path class="cls-1" d="M45.25,23.82c-5.58-2.46-7.14-10.94-7.14-10.94,0,0,7.37-4.24,12.95-1.79,5.58,2.46,7.14,10.94,7.14,10.94,0,0-7.37,4.24-12.95,1.79Z"/>
      <path class="cls-1" d="M12.66,39.45C12.66,18.47,29.63,1.5,50.61,1.5"/>
      <path class="cls-1" d="M40.56,45.03c-10.27-10.27-13.39-24.78-9.6-37.73"/>
      <path class="cls-1" d="M23.82,41.68c0,6.25-4.91,11.16-11.16,11.16S1.5,47.93,1.5,41.68s4.91-8.93,11.16-8.93,11.16,2.68,11.16,8.93Z"/>
      <path class="cls-1" d="M50.61,40.34c3.35,5.13,1.79,12.05-3.35,15.18-5.13,3.13-11.83,1.56-15.18-3.57-3.35-5.13-.67-10.05,4.46-13.17,5.13-3.35,10.71-3.57,14.06,1.56Z"/>
    </g>
  </g>
</svg>