<?xml version="1.0" encoding="UTF-8"?>
<svg id="Layer_2" xmlns="http://www.w3.org/2000/svg" xmlns:xlink="http://www.w3.org/1999/xlink" viewBox="0 0 2215.9 340.78">
  <defs>
    <style>
      .cls-1 {
        fill: none;
      }

      .cls-2 {
        fill: #fff;
      }

      .cls-3 {
        clip-path: url(#clippath);
      }
    </style>
    <clipPath id="clippath">
      <rect class="cls-1" width="2215.9" height="340.78"/>
    </clipPath>
  </defs>
  <g id="Layer_1-2" data-name="Layer_1">
    <g class="cls-3">
      <g>
        <path class="cls-2" d="M313.35,372.83c67.22,0,121.71-53.85,121.71-120.28,0-52.65-34.23-97.39-81.89-113.69-6.77-60.09-58.34-106.81-120.95-106.81-67.22,0-121.71,53.85-121.71,120.28,0,14.69,2.67,28.77,7.55,41.78-5.72-1.11-11.64-1.69-17.69-1.69-50.41,0-91.28,40.39-91.28,90.21s40.87,90.21,91.28,90.21h212.99Z"/>
        <path class="cls-2" d="M514.07,404.78c67.22,0,121.71-53.85,121.71-120.28,0-52.65-34.23-97.39-81.89-113.69-6.77-60.09-58.34-106.81-120.95-106.81-67.22,0-121.71,53.85-121.71,120.28,0,14.69,2.67,28.77,7.55,41.78-5.72-1.11-11.64-1.69-17.69-1.69-50.41,0-91.28,40.39-91.28,90.21s40.87,90.21,91.28,90.21h212.99Z"/>
        <path class="cls-2" d="M727.05,340.78c67.22,0,121.71-53.85,121.71-120.28,0-52.65-34.23-97.39-81.89-113.69-6.77-60.09-58.34-106.81-120.95-106.81-67.22,0-121.71,53.85-121.71,120.28,0,14.69,2.67,28.77,7.55,41.78-5.72-1.11-11.64-1.69-17.69-1.69-50.41,0-91.28,40.39-91.28,90.21s40.87,90.21,91.28,90.21h212.99Z"/>
        <path class="cls-2" d="M931.05,414.87c67.22,0,121.71-53.85,121.71-120.28,0-52.65-34.23-97.39-81.89-113.69-6.77-60.09-58.34-106.81-120.95-106.81-67.22,0-121.71,53.85-121.71,120.28,0,14.69,2.67,28.77,7.55,41.78-5.72-1.11-11.64-1.69-17.69-1.69-50.41,0-91.28,40.39-91.28,90.21s40.87,90.21,91.28,90.21h212.99Z"/>
        <path class="cls-2" d="M940.04,358.87c67.22,0,121.71-53.85,121.71-120.28,0-52.65-34.23-97.39-81.89-113.69-6.77-60.09-58.34-106.81-120.95-106.81-67.22,0-121.71,53.85-121.71,120.28,0,14.69,2.67,28.77,7.55,41.78-5.72-1.11-11.64-1.69-17.69-1.69-50.41,0-91.28,40.39-91.28,90.21s40.87,90.21,91.28,90.21h212.99Z"/>
        <path class="cls-2" d="M1100.55,414.87c67.22,0,121.71-53.85,121.71-120.28,0-52.65-34.23-97.39-81.89-113.69-6.77-60.09-58.34-106.81-120.95-106.81-67.22,0-121.71,53.85-121.71,120.28,0,14.69,2.67,28.77,7.55,41.78-5.72-1.11-11.64-1.69-17.69-1.69-50.41,0-91.28,40.39-91.28,90.21s40.87,90.21,91.28,90.21h212.99Z"/>
        <path class="cls-2" d="M1119.57,388.87c67.22,0,121.71-53.85,121.71-120.28,0-52.65-34.23-97.39-81.89-113.69-6.77-60.09-58.34-106.81-120.95-106.81-67.22,0-121.71,53.85-121.71,120.28,0,14.69,2.67,28.77,7.55,41.78-5.72-1.11-11.64-1.69-17.69-1.69-50.41,0-91.28,40.39-91.28,90.21s40.87,90.21,91.28,90.21h212.99Z"/>
        <path class="cls-2" d="M1313.54,403.52c67.22,0,121.71-53.85,121.71-120.28,0-52.65-34.23-97.39-81.89-113.69-6.77-60.09-58.34-106.81-120.95-106.81-67.22,0-121.71,53.85-121.71,120.28,0,14.69,2.67,28.77,7.55,41.78-5.72-1.11-11.64-1.69-17.69-1.69-50.41,0-91.28,40.39-91.28,90.21s40.87,90.21,91.28,90.21h212.99Z"/>
        <path class="cls-2" d="M1449.74,358.87c67.22,0,121.71-53.85,121.71-120.28,0-52.65-34.23-97.39-81.89-113.69-6.77-60.09-58.34-106.81-120.95-106.81-67.22,0-121.71,53.85-121.71,120.28,0,14.69,2.67,28.77,7.55,41.78-5.72-1.11-11.64-1.69-17.69-1.69-50.41,0-91.28,40.39-91.28,90.21s40.87,90.21,91.28,90.21h212.99Z"/>
        <path class="cls-2" d="M1594.55,388.87c67.22,0,121.71-53.85,121.71-120.28,0-52.65-34.23-97.39-81.89-113.69-6.77-60.09-58.34-106.81-120.95-106.81-67.22,0-121.71,53.85-121.71,120.28,0,14.69,2.67,28.77,7.55,41.78-5.72-1.11-11.64-1.69-17.69-1.69-50.41,0-91.28,40.39-91.28,90.21s40.87,90.21,91.28,90.21h212.99Z"/>
        <path class="cls-2" d="M1726.55,340.78c67.22,0,121.71-53.85,121.71-120.28,0-52.65-34.23-97.39-81.89-113.69-6.77-60.09-58.34-106.81-120.95-106.81-67.22,0-121.71,53.85-121.71,120.28,0,14.69,2.67,28.77,7.55,41.78-5.72-1.11-11.64-1.69-17.69-1.69-50.41,0-91.28,40.39-91.28,90.21s40.87,90.21,91.28,90.21h212.99Z"/>
        <path class="cls-2" d="M1939.54,358.87c67.22,0,121.71-53.85,121.71-120.28,0-52.65-34.23-97.39-81.89-113.69-6.77-60.09-58.34-106.81-120.95-106.81-67.22,0-121.71,53.85-121.71,120.28,0,14.69,2.67,28.77,7.55,41.78-5.72-1.11-11.64-1.69-17.69-1.69-50.41,0-91.28,40.39-91.28,90.21s40.87,90.21,91.28,90.21h212.99Z"/>
        <path class="cls-2" d="M2094.19,340.78c67.22,0,121.71-53.85,121.71-120.28,0-52.65-34.23-97.39-81.89-113.69-6.77-60.09-58.34-106.81-120.95-106.81-67.22,0-121.71,53.85-121.71,120.28,0,14.69,2.67,28.77,7.55,41.78-5.72-1.11-11.64-1.69-17.69-1.69-50.41,0-91.28,40.39-91.28,90.21s40.87,90.21,91.28,90.21h212.99Z"/>
      </g>
    </g>
  </g>
</svg>