<?xml version="1.0" encoding="UTF-8"?>
<svg id="Layer_2" data-name="Layer 2" xmlns="http://www.w3.org/2000/svg" viewBox="0 0 157 61.19">
  <defs>
    <style>
      .cls-1 {
        fill: #f3c29c;
      }
    </style>
  </defs>
  <g id="Layer_1-2" data-name="Layer 1">
    <path class="cls-1" d="M157,0c-4.67,12.77-35.78,22.51-45.61,25.85-24.6,8.21-51.16,8.21-76.49,7.3,3.94,7.3,7.62,15.51,10.08,23.71.74,3.34-2.71,5.17-4.67,3.95-13.04-6.69-24.35-17.63-38.12-22.8-2.21-.91-3.2-5.47-.74-6.69C15.22,24.03,27.76,13.08,42.27,7.91c2.71-.91,5.41,3.65,2.95,6.08-3.69,3.65-6.64,7.9-10.08,12.16,21.15-.61,42.31,0,63.21-4.56,11.31-2.43,24.54-5.98,36.5-11.62M31.45,21.29c-6.89,3.95-13.77,8.82-20.66,13.07,8.61,4.56,16.23,10.34,24.6,15.81-3.2-6.39-6.89-12.47-7.62-19.46-.25-1.52.49-2.74,1.48-3.34.25-2.13.98-4.26,2.21-6.08Z"/>
  </g>
</svg>