<?xml version="1.0" encoding="UTF-8"?>
<svg id="Layer_2" data-name="Layer 2" xmlns="http://www.w3.org/2000/svg" viewBox="0 0 157 47.48">
  <defs>
    <style>
      .cls-1 {
        fill: #f3c29c;
      }
    </style>
  </defs>
  <g id="Layer_1-2" data-name="Layer 1">
    <path class="cls-1" d="M0,0c4.67,9.91,35.78,17.46,45.61,20.06,24.6,6.37,51.16,6.37,76.49,5.66-3.94,5.66-7.62,12.03-10.08,18.4-.74,2.59,2.71,4.01,4.67,3.07,13.04-5.19,24.35-13.68,38.12-17.69,2.21-.71,3.2-4.25.74-5.19-13.77-5.66-26.32-14.15-40.83-18.16-2.71-.71-5.41,2.83-2.95,4.72,3.69,2.83,6.64,6.13,10.08,9.44-21.15-.47-42.31,0-63.21-3.54-11.31-1.89-24.54-4.64-36.5-9.02M125.55,16.52c6.89,3.07,13.77,6.84,20.66,10.14-8.61,3.54-16.23,8.02-24.6,12.27,3.2-4.95,6.89-9.67,7.62-15.1.25-1.18-.49-2.12-1.48-2.59-.25-1.65-.98-3.3-2.21-4.72Z"/>
  </g>
</svg>