<?xml version="1.0" encoding="UTF-8"?>
<svg id="Layer_2" data-name="Layer 2" xmlns="http://www.w3.org/2000/svg" viewBox="0 0 74.17 74.17">
  <defs>
    <style>
      .cls-1 {
        fill: #fff;
        fill-rule: evenodd;
      }
    </style>
  </defs>
  <g id="Layer_1-2" data-name="Layer 1">
    <path class="cls-1" d="M64.05,0c5.59,0,10.11,4.53,10.11,10.11v53.94c0,5.59-4.53,10.11-10.11,10.11H10.11c-5.59,0-10.11-4.53-10.11-10.11V10.11C0,4.53,4.53,0,10.11,0h53.94ZM64.05,6.74c1.86,0,3.37,1.51,3.37,3.37v53.94c0,1.86-1.51,3.37-3.37,3.37h-16.86v-23.6h7c1.45,0,2.74-.93,3.2-2.31l1.49-4.48c.55-1.64-.67-3.33-2.4-3.33h-9.29v-6.74c0-1.69,1.69-3.37,3.37-3.37h6.74c1.86,0,3.37-1.51,3.37-3.37v-2.31c0-1.09-.7-2.07-1.75-2.34-4.42-1.17-8.37-1.17-8.37-1.17-8.43,0-13.48,5.82-13.48,10.88v8.43h-6.74c-1.86,0-3.37,1.51-3.37,3.37v3.37c0,1.86,1.51,3.37,3.37,3.37h6.74v23.6H10.11c-1.86,0-3.37-1.51-3.37-3.37V10.11c0-1.86,1.51-3.37,3.37-3.37h53.94Z"/>
  </g>
</svg>