<?xml version="1.0" encoding="UTF-8"?>
<svg id="Layer_2" data-name="Layer 2" xmlns="http://www.w3.org/2000/svg" viewBox="0 0 51.59 61.23">
  <defs>
    <style>
      .cls-1 {
        fill: #fff;
      }
    </style>
  </defs>
  <g id="Layer_1-2" data-name="Layer 1">
    <g>
      <path class="cls-1" d="M30.61,2.69s-.06-.1-.12-.2C30.12,1.77,28.78-.1,26.16,0c-1.8-.06-3.06.99-3.58,1.77-.59.84-.71.92-.74.9C9.71,4.87.12,20.35,0,32.1c.03,12.09,8.83,24.34,21.34,26.18.3.62,1.44,3.07,4.45,2.95.05,0,.11,0,.16,0,1.83.01,3.1-.83,3.69-1.57.65-.77.67-.83.87-.86,11.8-2.39,21.01-15.01,21.08-26.7-.08-11.95-8.27-27.52-20.99-29.41ZM29.99,56.12c-1.47.3-2.07,1.4-2.4,1.73-.39.37-.44.57-1.71.65-.04,0-.07,0-.1,0-1.23-.07-1.26-.3-1.62-.76-.39-.35-.3-1.61-2.16-2.12-11.02-1.35-19.3-12.61-19.27-23.53-.12-10.39,9.45-25.25,19.56-26.74,1.58-.31,2.11-1.53,2.47-1.95.44-.48.42-.62,1.4-.68,1.24.06,1.32.3,1.69.71.36.32.52,1.54,2.24,1.93,10.62,1.13,18.87,15.8,18.78,26.73.07,10.29-8.68,22.12-18.88,24.02Z"/>
      <path class="cls-1" d="M43.49,41.45c-.13-.07-.3-.02-.37.11-2.84,5.25-7.77,9.29-13.77,10.98-.14.04-.23.19-.19.34.04.14.19.23.34.19,6.14-1.74,11.18-5.87,14.1-11.25.07-.13.02-.3-.11-.37Z"/>
      <path class="cls-1" d="M45.9,33.67c-.15-.02-.29.09-.3.24-.19,1.45-.51,2.86-.97,4.21-.05.14.03.3.17.35.14.05.3-.03.35-.17.47-1.39.81-2.83,1-4.32.02-.15-.09-.29-.24-.3Z"/>
    </g>
  </g>
</svg>