<?xml version="1.0" encoding="UTF-8"?>
<svg id="Layer_2" data-name="Layer 2" xmlns="http://www.w3.org/2000/svg" viewBox="0 0 67.25 88.86">
  <defs>
    <style>
      .cls-1 {
        fill: #ff6f61;
      }
    </style>
  </defs>
  <g id="Layer_1-2" data-name="Layer 1">
    <g id="Layer_2-2" data-name="Layer 2">
      <g id="Layer_1-2" data-name="Layer 1-2">
        <path class="cls-1" d="M35.98,19.43c2.2-3.03,3.91-5.48,5.71-7.84,2.39-3.14,5.72-5.02,9.28-6.49,1.29-.54,2.68-.79,4.08-.74,5.95.36,11.36,5.61,12.02,11.61.8,7.21-.95,14.02-3.91,20.44-3.59,8.07-8.14,15.68-13.55,22.65-4.84,6.08-9.96,12-13.23,19.17-1.24,2.73-2.45,5.47-3.7,8.19-.8,1.99-3.05,2.95-5.04,2.16-.71-.28-1.31-.77-1.75-1.39-.58-.82-1.03-1.73-1.33-2.69-3.34-9.96-8.66-18.97-13.76-28.04-3.55-6.31-6.85-12.76-8.83-19.72C-.52,27.85-1.14,18.88,3.03,10.25c1.1-2.36,2.56-4.52,4.34-6.42C11.24-.26,17.4-1.18,22.3,1.59c6.31,3.63,11.29,8.29,12.91,15.75.22.71.48,1.41.77,2.09ZM33.58,35.68c-.43-.53-1.18-1.07-1.4-1.76-.92-3.27-2.22-6.57-2.38-9.9-.32-6.37-3.37-10.97-7.99-14.86-3.91-3.3-7.56-2.8-10.72,1.4-3.3,4.4-4.07,9.43-3.79,14.77.32,6.76,2.58,12.98,5.61,18.89,4.28,8.41,8.81,16.66,13.32,24.9,1.02,1.85,1.45,4.14,3.99,6.15.47-.86.8-1.58,1.23-2.23,3.13-4.64,6.24-9.3,9.42-13.9,3.18-4.61,6.67-9.05,9.63-13.8,3.51-5.61,6.58-11.5,8.24-17.95.79-3.08,1.76-6.31,1.59-9.42-.36-6.62-3.89-8.57-9.62-4.91-3.35,2.24-6.05,5.32-7.83,8.94-1.82,3.55-3.51,7.2-4.99,10.9-.81,2.01-2.12,2.76-4.3,2.78Z"/>
      </g>
    </g>
  </g>
</svg>