<?xml version="1.0" encoding="UTF-8"?>
<svg id="Layer_2" data-name="Layer 2" xmlns="http://www.w3.org/2000/svg" viewBox="0 0 74.17 74.17">
  <defs>
    <style>
      .cls-1 {
        fill-rule: evenodd;
      }

      .cls-1, .cls-2 {
        fill: #fff;
      }
    </style>
  </defs>
  <g id="Layer_1-2" data-name="Layer 1">
    <g>
      <path class="cls-1" d="M37.08,57.31c11.17,0,20.23-9.06,20.23-20.23s-9.06-20.23-20.23-20.23-20.23,9.06-20.23,20.23,9.06,20.23,20.23,20.23ZM37.08,50.57c7.45,0,13.48-6.04,13.48-13.48s-6.04-13.48-13.48-13.48-13.48,6.04-13.48,13.48,6.04,13.48,13.48,13.48Z"/>
      <path class="cls-2" d="M57.31,13.48c-1.86,0-3.37,1.51-3.37,3.37s1.51,3.37,3.37,3.37,3.37-1.51,3.37-3.37-1.51-3.37-3.37-3.37Z"/>
      <path class="cls-1" d="M2.2,11.04C0,15.37,0,21.04,0,32.36v9.44c0,11.33,0,16.99,2.2,21.32,1.94,3.81,5.03,6.9,8.84,8.84,4.33,2.2,9.99,2.2,21.32,2.2h9.44c11.33,0,16.99,0,21.32-2.2,3.81-1.94,6.9-5.03,8.84-8.84,2.2-4.33,2.2-9.99,2.2-21.32v-9.44c0-11.33,0-16.99-2.2-21.32-1.94-3.81-5.03-6.9-8.84-8.84-4.33-2.2-9.99-2.2-21.32-2.2h-9.44C21.04,0,15.37,0,11.04,2.2c-3.81,1.94-6.9,5.03-8.84,8.84ZM41.8,6.74h-9.44c-5.78,0-9.7,0-12.74.25-2.96.24-4.47.68-5.52,1.22-2.54,1.29-4.6,3.36-5.89,5.89-.54,1.05-.98,2.57-1.22,5.52-.25,3.03-.25,6.96-.25,12.74v9.44c0,5.78,0,9.7.25,12.74.24,2.96.68,4.47,1.22,5.52,1.29,2.54,3.36,4.6,5.89,5.89,1.05.54,2.57.98,5.52,1.22,3.03.25,6.96.25,12.74.25h9.44c5.78,0,9.7,0,12.74-.25,2.96-.24,4.47-.68,5.52-1.22,2.54-1.29,4.6-3.36,5.89-5.89.54-1.05.98-2.57,1.22-5.52.25-3.03.25-6.96.25-12.74v-9.44c0-5.78,0-9.7-.25-12.74-.24-2.96-.68-4.47-1.22-5.52-1.29-2.54-3.36-4.6-5.89-5.89-1.05-.54-2.57-.98-5.52-1.22-3.03-.25-6.96-.25-12.74-.25Z"/>
    </g>
  </g>
</svg>