<?xml version="1.0" encoding="UTF-8"?>
<svg id="Layer_2" data-name="Layer 2" xmlns="http://www.w3.org/2000/svg" viewBox="0 0 64.94 67.95">
  <defs>
    <style>
      .cls-1 {
        fill: #fff;
      }
    </style>
  </defs>
  <g id="Layer_1-2" data-name="Layer 1">
    <g>
      <path class="cls-1" d="M32.47,0C14.47.01.03,15.28,0,33.98c.03,18.7,14.47,33.96,32.47,33.98,18.01-.01,32.44-15.28,32.47-33.98C64.91,15.28,50.48.01,32.47,0ZM32.47,64.18c-15.78-.03-28.7-13.46-28.7-30.21,0-16.75,12.92-30.18,28.7-30.21,15.78.03,28.7,13.46,28.7,30.21,0,16.75-12.92,30.18-28.7,30.21Z"/>
      <path class="cls-1" d="M21.03,32.98s.09,0,.13,0c1.42.02,2.13-.62,2.27-.83.25-.32.26-.77.03-1.11-.07-.09-.84-1.23-2.51-1.35h0c-.11,0-.22,0-.33,0-1.08,0-1.96.29-2.24.39-.02,0-.03.01-.05.02-.02,0-.04.02-.05.02,0,0,0,0,0,0-.14.05-.27.14-.37.26-.06.07-.1.14-.14.22,0,0,0,0,0,0-.03.07-.06.15-.07.23,0,0,0,0,0,0h0c-.03.16-.01.31.04.46,0,.01,0,.02.01.03.02.06.05.12.09.17,0,.01.02.03.02.04.04.06.09.11.14.16,0,0,0,0,0,0,0,0,0,0,0,0,0,0,0,0,0,0h0s.03.02.04.03c.24.19,1.37,1.17,2.97,1.25Z"/>
      <path class="cls-1" d="M21.18,26.04s0,0,0,0c0,0,0,0,0,0h0s0,.02.01.03c.08.23.38,1.44,1.47,2.28.65.47,1.24.63,1.66.62.23,0,.39-.04.48-.07.38-.13.64-.49.63-.9,0-.11,0-1.28-1.13-2.17-.8-.61-1.62-.85-1.91-.93-.03,0-.05-.01-.08-.02,0,0-.02,0-.02,0h0c-.15-.03-.3-.04-.46,0-.5.14-.79.65-.66,1.15h0Z"/>
      <path class="cls-1" d="M38.93,27.21c.13,0,1.29,0,2.18-1.1.63-.8.88-1.63.96-1.91,0-.02.01-.05.02-.07,0-.01,0-.02,0-.02,0,0,0,0,0,0,.03-.15.04-.31,0-.46-.02-.08-.06-.16-.1-.23,0,0,0,0,0,0-.04-.07-.09-.13-.14-.18,0,0,0,0,0,0,0,0,0,0,0,0-.06-.06-.12-.11-.19-.15-.07-.04-.14-.07-.21-.09,0,0-.02,0-.03,0-.06-.02-.13-.02-.19-.03-.02,0-.03,0-.05,0-.07,0-.13,0-.2.02,0,0-.01,0-.02,0,0,0,0,0,0,0,0,0,0,0-.01,0h0s-.02.01-.04.02c-.27.08-1.45.38-2.28,1.44-.49.66-.65,1.26-.64,1.67,0,.21.04.37.07.45.13.39.49.65.9.65Z"/>
      <path class="cls-1" d="M35.18,24.63c.1-.06,1.34-.67,1.68-2.3.09-.44.11-.85.11-1.22,0-.67-.09-1.18-.13-1.38,0-.02,0-.04-.01-.06,0-.02,0-.03,0-.04,0,0,0,0,0,0-.03-.15-.1-.29-.21-.41-.06-.06-.12-.12-.19-.16,0,0,0,0-.01,0-.07-.04-.13-.07-.21-.1,0,0,0,0,0,0,0,0,0,0,0,0-.15-.05-.3-.06-.46-.03-.01,0-.03,0-.04,0-.06.01-.12.03-.18.06-.01,0-.03.01-.04.02-.06.03-.13.07-.18.12,0,0,0,0,0,0h0s0,0,0,0h0s-.01.02-.02.03c-.2.19-1.36,1.19-1.66,2.78-.05.29-.07.55-.07.78,0,1,.4,1.57.55,1.72.29.29.73.37,1.09.19Z"/>
      <path class="cls-1" d="M38.74,29.99c-.01.4.24.77.62.91.07.02.52.19,1.19.19.57,0,1.31-.12,2.05-.58,1.24-.78,2.01-1.81,2.21-2.1.01-.02.02-.03.03-.05.01-.02.02-.03.02-.03h0c.09-.13.14-.28.16-.44.02-.25-.06-.5-.22-.69-.16-.19-.38-.3-.62-.33h0s-.25-.03-.6-.03c-.73,0-2,.07-3.14.81-1.48.95-1.71,2.07-1.7,2.33Z"/>
      <path class="cls-1" d="M44.86,33.69h0s0,0-.01,0c-.09-.05-.9-.73-2.13-.77-.04,0-.09,0-.13,0h0c-1.09.04-1.67.58-1.8.81-.23.34-.21.79.05,1.11.08.09.7.87,1.94.89h.04c.86-.02,1.52-.28,1.77-.39.01,0,.03-.01.04-.02.03-.01.06-.02.06-.03h0c.13-.06.25-.16.34-.27.15-.2.22-.45.19-.7-.03-.25-.16-.47-.36-.62Z"/>
      <path class="cls-1" d="M40.71,42.09c1.22.84,2.49,1.13,2.82,1.2.02,0,.05.01.07.02,0,0,0,0,0,0h0c.16.03.33.02.49-.04.23-.08.43-.26.53-.49.1-.21.11-.46.04-.68h0s0-.01,0-.02c0,0,0-.01,0-.02h0s0-.02-.01-.03c-.12-.34-.68-2.03-2.18-3.06-.88-.58-1.62-.75-2.14-.74-.35,0-.58.07-.68.11-.38.15-.61.53-.59.93.01.11.09,1.71,1.65,2.82Z"/>
      <path class="cls-1" d="M36.97,42.55c-.1,0-.18,0-.23.02-.4.08-.7.4-.76.8,0,.04-.02.14-.02.29,0,.41.09,1.27.81,2.03.84.86,1.78,1.21,1.85,1.24h0c.13.05.28.08.42.06.25-.02.48-.14.64-.33.16-.19.24-.44.22-.69h0s0-.03,0-.03c-.03-.08-.09-1.44-1.13-2.51-.7-.7-1.4-.89-1.8-.88Z"/>
      <path class="cls-1" d="M26.78,41.39c-.11.04-1.23.34-1.8,1.65-.38.92-.4,1.77-.4,2.08,0,.06,0,.09,0,.11,0,.14.04.27.1.39.01.02.03.04.04.07,0,0,0,0,0,0,.04.07.09.13.14.18,0,0,0,0,0,0,.1.1.22.17.35.21.02,0,.04,0,.06.01.01,0,.02,0,.03,0,.06.01.13.02.19.02.01,0,.03,0,.04,0,.07,0,.14,0,.21-.03,0,0,0,0,0,0,.06-.02.12-.04.18-.07h0s.01-.01.02-.02c0,0,.01,0,.02,0,.06-.06,1.28-.66,1.85-2.04.17-.46.24-.86.24-1.2,0-.53-.17-.88-.26-1.01-.23-.34-.64-.49-1.03-.38ZM26,43.47h0l-.15-.06.15.06Z"/>
      <path class="cls-1" d="M31.1,23c.07-.09.62-.66.63-1.68,0-.13-.01-.27-.03-.41-.16-.97-.6-1.64-.68-1.77-.08-.13-.18-.24-.32-.32-.02-.01-.04-.02-.05-.02,0,0,0,0,0,0-.07-.04-.14-.06-.22-.08,0,0,0,0,0,0-.16-.03-.32-.03-.47.02,0,0-.01,0-.02,0-.06.02-.12.05-.18.08-.01,0-.03.02-.04.02-.06.04-.11.08-.15.12,0,0-.01.01-.02.02-.05.05-.09.1-.12.16h0s0,.01,0,.02,0,0,0,.01c-.03.07-.47.81-.49,1.83,0,.17.01.34.05.52.19,1.07.81,1.58,1.05,1.67.37.18.81.09,1.09-.2Z"/>
      <path class="cls-1" d="M32.98,48.84s0,0,0,0c.06-.04.11-.09.15-.15.01-.02.02-.03.04-.05.03-.05.06-.09.09-.15,0-.01.02-.02.02-.04,0,0,0-.02.02-.04,0,0,0,0,0,0h0s0,0,0,0c.09-.23.49-1.25.49-2.48,0-.4-.04-.84-.17-1.27-.48-1.69-1.48-2.24-1.73-2.31-.38-.13-.81,0-1.05.33-.06.09-.69.91-.7,2.23,0,.31.04.64.13.99.39,1.45,1.18,2.49,1.38,2.75.01.02.02.03.04.05,0,0,0,0,0,.01,0,0,0,0,0,0,.05.06.1.11.16.15,0,0,0,0,0,0,.07.05.14.09.22.12.15.05.3.06.45.04,0,0,0,0,0,0,0,0,0,0,0,0,.09-.01.17-.03.25-.07.06-.03.12-.07.18-.11Z"/>
      <path class="cls-1" d="M25.08,20.76s0,0,0,0c-.13-.06-.26-.1-.41-.1-.1,0-.19.02-.29.05,0,0,0,0-.01,0-.14.05-.27.12-.37.22-.01.01-.02.02-.03.03,0,0,0,0,0,0-.05.05-.09.11-.12.17,0,.01-.01.03-.02.04-.03.06-.05.12-.07.18,0,.01,0,.02-.01.04-.01.07-.02.13-.02.2h0s0,.01,0,.02,0,0,0,.01c.03.08,0,2.08,1.27,3.61,1.01,1.17,2,1.39,2.41,1.38.06,0,.1,0,.13,0,.4-.04.73-.34.82-.73.01-.05.06-.3.06-.67,0-.6-.14-1.58-.88-2.49-1.07-1.3-2.4-1.92-2.46-1.96Z"/>
      <path class="cls-1" d="M19.29,36.51s.1.07.16.1c.01,0,.03.02.04.02.06.03.12.05.19.06,0,0,.02,0,.02,0,0,0,0,0,.01,0h0s0,0,0,0c.08.02.4.07.85.07.51,0,1.18-.06,1.86-.43,1.11-.59,1.4-1.43,1.41-1.69.04-.4-.17-.79-.54-.96-.08-.03-.49-.22-1.13-.23-.38,0-.85.08-1.32.32-.9.47-1.47,1.11-1.66,1.33-.01.01-.02.03-.04.04-.01.01-.03.03-.03.04,0,0,0,0,0,0-.09.12-.16.25-.18.41-.02.09-.01.17,0,.26,0,0,0,0,0,0,0,.08.03.15.05.23,0,0,0,0,0,0,0,0,0,0,0,0,.06.15.15.27.27.38,0,0,.02.01.03.02Z"/>
      <path class="cls-1" d="M25.5,39.38c-.05-.4-.35-.73-.74-.81-.05,0-.28-.05-.62-.05-.6,0-1.61.14-2.53.92-1.13.96-1.73,2.11-1.88,2.41-.01.02-.02.04-.03.06,0,0,0,.01,0,.01,0,0,0,0,0,0-.07.14-.1.3-.09.47.04.41.34.74.72.83.01,0,.03,0,.04,0,.06.01.12.02.18.02.01,0,.02,0,.04,0,0,0,.01,0,.02,0,0,0,.01,0,.02,0h0s.02,0,.03,0c.38-.03,2.14-.14,3.51-1.32,1.14-1.01,1.36-1.99,1.35-2.4,0-.06,0-.11,0-.15Z"/>
      <path class="cls-1" d="M56.39,36.36c-.21,0-.38.17-.38.38,0,1.78-.2,3.51-.59,5.17-.05.2.08.4.28.45.2.05.41-.08.45-.28.4-1.72.61-3.5.61-5.34,0-.21-.17-.38-.38-.38Z"/>
      <path class="cls-1" d="M54.9,44.94c-.19-.08-.41.02-.49.21-3.35,8.46-11.59,14.44-21.22,14.44-.21,0-.38.17-.38.38s.17.38.38.38c9.95,0,18.46-6.18,21.92-14.91.08-.19-.02-.41-.21-.49Z"/>
    </g>
  </g>
</svg>