<?xml version="1.0" encoding="UTF-8"?>
<svg id="Layer_2" xmlns="http://www.w3.org/2000/svg" viewBox="0 0 89.47 89.47">
  <defs>
    <style>
      .cls-1 {
        fill: #ff6f61;
      }

      .cls-2 {
        fill: none;
        stroke: rgba(255, 255, 255, .9);
        stroke-linecap: round;
        stroke-linejoin: round;
        stroke-width: 5px;
      }

      .cls-3 {
        fill: #fff;
      }
    </style>
  </defs>
  <g id="Layer_1-2" data-name="Layer_1">
    <g>
      <rect class="cls-1" x="0" y="0" width="89.47" height="89.47" rx="40.44" ry="40.44" transform="translate(89.47 89.47) rotate(180)"/>
      <g id="Layer_2-2" data-name="Layer_2">
        <g id="Layer_1-2">
          <path class="cls-3" d="M46.44,54.92c-.12,1.88-.15,3.39-.31,4.86-.32,2.95-2.96,4.35-5.61,2.95-1.35-.68-2.63-1.48-3.82-2.4-3.69-2.97-7.34-5.99-10.95-9.05-2.12-1.8-2.48-3.81-1.4-6.38.23-.6.5-1.19.82-1.75,3.15-5.02,6.69-9.78,10.58-14.24.86-.96,1.83-1.82,2.87-2.57,2.43-1.79,4.62-.93,5.25,2.05.15.96.25,1.92.29,2.89.05.62.09,1.25.15,2.08.55.05,1.1.07,1.65.05,2.67-.31,5.33-.79,8.01-.97,3.12-.23,6.24-.29,9.36-.2,2.89.1,4.28,1.47,4.8,4.31.55,3.08.75,6.21.61,9.33-.02.53-.12,1.07-.18,1.6-.38,3.14-1.91,5.19-5.27,5.51-.53.09-1.05.25-1.54.47-2.75.96-5.66,1.43-8.58,1.38-2.14-.03-4.29.05-6.77.08ZM40.11,30.68c-3.39,2.12-10.33,11.8-12.19,16.89,4.02,3.41,8.11,6.89,12.23,10.32.52.43,1.28.58,2,.9.52-1.61.09-3.01.13-4.37.05-1.81.36-2.47,2.03-2.73,1.88-.3,3.84-.29,5.77-.38,2.78-.15,5.58-.18,8.35-.48,2.13-.18,4.19-.82,6.05-1.88.96-4.56.59-9.4-1-12.71-1.62-.43-3.34-.41-5.05-.36-4.08.12-8.16.23-12.19,1.03-2.07.41-4.06.15-5.79-1.46-.11-1.47-.21-2.96-.35-4.77Z"/>
        </g>
      </g>
      <path class="cls-2" d="M63.16,73.14c-11.09,7.76-21.92,10.01-33.68,3.83C-2.16,60.33,11.64,3.6,51.03,9.34c21.45,3.13,42.91,30.14,20.21,54.23"/>
    </g>
  </g>
</svg>