<?xml version="1.0" encoding="UTF-8"?>
<svg id="Layer_2" data-name="Layer 2" xmlns="http://www.w3.org/2000/svg" viewBox="0 0 59.23 59.23">
  <defs>
    <style>
      .cls-1 {
        fill: none;
        stroke: #fff;
        stroke-miterlimit: 10;
        stroke-width: 3px;
      }
    </style>
  </defs>
  <g id="Layer_1-2" data-name="Layer 1">
    <g>
      <ellipse class="cls-1" cx="23.13" cy="29.61" rx="21.63" ry="28.11"/>
      <ellipse class="cls-1" cx="23.13" cy="29.61" rx="12.98" ry="17.3"/>
      <path class="cls-1" d="M23.13,57.73h2.16c14.27,0,26.17-9.08,29.41-21.41.43-1.51,1.3-2.81,2.16-4.11.65-.65.87-1.73.87-2.6,0-1.08-.43-1.95-.87-2.6-.87-1.3-1.73-2.6-2.16-4.11C51.46,10.58,39.56,1.5,25.29,1.5h-2.16"/>
      <line class="cls-1" x1="23.13" y1="12.31" x2="23.13" y2="46.92"/>
      <line class="cls-1" x1="12.31" y1="20.96" x2="33.94" y2="38.27"/>
      <line class="cls-1" x1="11.88" y1="37.83" x2="34.37" y2="21.4"/>
    </g>
  </g>
</svg>