<?xml version="1.0" encoding="UTF-8"?>
<svg id="Layer_2" data-name="Layer 2" xmlns="http://www.w3.org/2000/svg" viewBox="0 0 57 68.47">
  <defs>
    <style>
      .cls-1 {
        fill: #fff;
      }
    </style>
  </defs>
  <g id="Layer_1-2" data-name="Layer 1">
    <g>
      <path class="cls-1" d="M36.49,11.92c-.91-.2-1.73-.29-2.48-.29-1.23,0-2.26.25-3.08.59.62-2.07,1.26-5,1.33-8.36.01-.78-.61-1.42-1.39-1.44-.78-.01-1.42.61-1.44,1.39-.06,3.51-.85,6.52-1.47,8.38-.35-.23-.76-.44-1.22-.61-.32-.64-.72-1.48-1.25-2.57C23.41,4.63,23.68,1.42,17.2.02c-.2-.05-.42,0-.58.12-.16.12-.27.32-.28.52-.03.52-.04,1.02-.04,1.5-.09,5.55,2.18,8.48,5.97,9.29C9.42,14.03,0,25.73,0,39.32c0,14.37,10.59,26.26,24.39,28.25.16.02.32.03.47.03.11,0,.22-.02.33-.03.02.23.16.45.39.56.31.15.67.06.88-.21l.67-.89c.08-.03.16-.07.23-.1l.5,1.12c.12.26.38.43.67.42.29,0,.54-.19.64-.46l.42-1.13,1.31,1.15c.23.2.57.23.83.07.24-.14.36-.41.33-.68.23.03.47.06.72.07.24,0,.49-.02.75-.06,13.34-2.38,23.46-14.06,23.46-28.1,0-12.9-8.34-24.7-20.51-27.41ZM17.7,2.17c0-.18,0-.37,0-.56,4.97,1.4,4.21,3.32,6.51,8.01.16.33.31.63.44.92-.44-.15-.95-.27-1.52-.35-3.6-.66-5.35-2.45-5.44-8.01ZM33.04,64.64c-.08.01-.16.02-.25.02-.8.08-2.26-.85-4.29-.92-1.98.13-3.22,1.18-3.63,1.04-.03,0-.05,0-.07,0-12.42-1.8-21.98-12.51-21.97-25.46,0-12.35,8.63-22.94,20.19-25.14.54-.1,1-.14,1.39-.14,1.36.02,1.97.43,2.45.85.1.09.19.18.27.28.11.39.37.73.76.91.03.01.05.02.08.03.19.14.5.27,1.04.36,1.68-.33,1.5-.89,2.26-1.24.6-.39,1.36-.76,2.73-.77.53,0,1.15.06,1.87.22,10.67,2.33,18.3,12.93,18.29,24.65,0,12.65-9.13,23.18-21.13,25.32Z"/>
      <path class="cls-1" d="M50.67,38.74c-.16,0-.29.12-.29.28-.04,1.58-.23,3.14-.57,4.65-.03.15.06.3.21.34.15.03.3-.06.34-.21.35-1.55.55-3.14.59-4.77,0-.16-.12-.29-.28-.29Z"/>
      <path class="cls-1" d="M48.94,47.4c-.14-.06-.31,0-.37.15-2.47,5.98-7.32,10.89-13.59,13.4-.14.06-.22.22-.16.37.06.14.22.22.37.16,6.41-2.56,11.37-7.59,13.9-13.7.06-.14,0-.31-.15-.37Z"/>
    </g>
  </g>
</svg>