<?xml version="1.0" encoding="UTF-8"?>
<svg id="Layer_2" data-name="Layer 2" xmlns="http://www.w3.org/2000/svg" viewBox="0 0 35.07 35.07">
  <defs>
    <style>
      .cls-1 {
        fill: none;
        stroke: #fff;
        stroke-linecap: round;
        stroke-linejoin: round;
        stroke-width: 3px;
      }
    </style>
  </defs>
  <g id="Layer_1-2" data-name="Layer 1">
    <path class="cls-1" d="M1.5,5.95c0,15.25,12.36,27.62,27.62,27.62.69,0,1.37-.03,2.05-.07.78-.06,1.16-.09,1.52-.29.29-.17.57-.47.72-.77.18-.37.18-.79.18-1.65v-5.02c0-.72,0-1.08-.12-1.39-.1-.27-.27-.51-.49-.71-.25-.22-.59-.34-1.26-.59l-5.71-2.08c-.79-.29-1.18-.43-1.55-.4-.33.02-.65.13-.91.32-.31.22-.52.57-.95,1.29l-1.46,2.44c-4.72-2.14-8.55-5.97-10.69-10.69l2.44-1.46c.72-.43,1.08-.65,1.29-.95.19-.27.3-.59.32-.91.02-.37-.12-.77-.4-1.55l-2.08-5.71c-.25-.68-.37-1.01-.59-1.26-.19-.22-.43-.39-.71-.49-.31-.12-.67-.12-1.39-.12h-5.02c-.86,0-1.28,0-1.65.18-.3.15-.6.42-.77.72-.2.35-.23.74-.29,1.52-.05.68-.07,1.36-.07,2.05Z"/>
  </g>
</svg>