<?xml version="1.0" encoding="UTF-8"?>
<svg id="Layer_2" data-name="Layer 2" xmlns="http://www.w3.org/2000/svg" viewBox="0 0 29.1 56.34">
  <defs>
    <style>
      .cls-1 {
        fill: #f3c29c;
      }
    </style>
  </defs>
  <g id="Layer_1-2" data-name="Layer 1">
    <path class="cls-1" d="M4.6,56.18c-3.21-.76-5.2-4-4.44-7.21s4-5.2,7.21-4.44,5.2,4,4.44,7.21c-.76,3.21-4,5.2-7.21,4.44ZM17.29,29.92c-.89.34-1.51.6-1.85.77l-1.45,6.09c-.59,2.49-3.1,4.04-5.6,3.44s-4.04-3.1-3.45-5.6l1.56-6.56c1.04-4.37,4.75-5.79,7.46-6.83,2.92-1.12,4.85-1.86,5.7-5.4.68-2.85-1.09-5.73-3.94-6.41s-5.73,1.09-6.41,3.94c-.59,2.49-3.1,4.04-5.6,3.44S-.32,13.72.27,11.23C2.14,3.39,10.03-1.47,17.87.4c7.84,1.86,12.7,9.76,10.83,17.6-1.98,8.32-7.88,10.58-11.41,11.93Z"/>
  </g>
</svg>