<?xml version="1.0" encoding="UTF-8"?>
<svg id="Layer_2" data-name="Layer 2" xmlns="http://www.w3.org/2000/svg" viewBox="0 0 32.32 55.42">
  <defs>
    <style>
      .cls-1 {
        fill: #f3c29c;
      }
    </style>
  </defs>
  <g id="Layer_1-2" data-name="Layer 1">
    <path class="cls-1" d="M4.08,55.1c-3.13-1.05-4.82-4.45-3.76-7.58s4.45-4.82,7.58-3.76,4.82,4.45,3.76,7.58c-1.05,3.13-4.45,4.82-7.58,3.76ZM19.1,30.12c-.92.26-1.56.46-1.92.6l-1.99,5.93c-.82,2.43-3.46,3.74-5.89,2.92s-3.74-3.46-2.92-5.89l2.15-6.39c1.43-4.26,5.26-5.34,8.05-6.12,3.01-.85,5-1.41,6.16-4.86.94-2.78-.56-5.8-3.34-6.74s-5.8.57-6.74,3.34c-.82,2.43-3.46,3.74-5.89,2.92s-3.74-3.46-2.92-5.89C6.42,2.32,14.73-1.81,22.36.76c7.64,2.57,11.76,10.87,9.19,18.51-2.73,8.1-8.81,9.82-12.45,10.84Z"/>
  </g>
</svg>