<?xml version="1.0" encoding="UTF-8"?>
<svg id="Layer_2" data-name="Layer 2" xmlns="http://www.w3.org/2000/svg" viewBox="0 0 29.33 56.47">
  <defs>
    <style>
      .cls-1 {
        fill: #f3c29c;
      }
    </style>
  </defs>
  <g id="Layer_1-2" data-name="Layer 1">
    <path class="cls-1" d="M23.86,56.32c-3.22.71-6.42-1.33-7.14-4.55-.71-3.22,1.33-6.43,4.55-7.14s6.43,1.33,7.14,4.55c.71,3.22-1.32,6.42-4.55,7.14ZM23.82,27.17c-.65.69-1.1,1.2-1.33,1.51l1.35,6.11c.55,2.5-1.03,4.99-3.53,5.54s-4.99-1.03-5.54-3.53l-1.46-6.58c-.97-4.39,1.74-7.28,3.73-9.4,2.14-2.28,3.56-3.79,2.77-7.35-.63-2.86-3.48-4.68-6.34-4.04s-4.68,3.48-4.04,6.34c.55,2.5-1.03,4.99-3.53,5.54s-4.99-1.03-5.54-3.53C-1.4,9.91,3.58,2.09,11.45.35c7.87-1.74,15.68,3.24,17.43,11.1,1.85,8.35-2.47,12.96-5.06,15.71Z"/>
  </g>
</svg>