<?xml version="1.0" encoding="UTF-8"?>
<svg id="Layer_2" data-name="Layer 2" xmlns="http://www.w3.org/2000/svg" viewBox="0 0 32.04 55.51">
  <defs>
    <style>
      .cls-1 {
        fill: #f3c29c;
      }
    </style>
  </defs>
  <g id="Layer_1-2" data-name="Layer 1">
    <path class="cls-1" d="M4.12,55.21c-3.14-1.03-4.85-4.42-3.82-7.55,1.03-3.14,4.42-4.85,7.55-3.82,3.14,1.03,4.85,4.42,3.82,7.55-1.03,3.14-4.42,4.85-7.55,3.82ZM18.95,30.1c-.91.27-1.55.47-1.91.62l-1.95,5.94c-.8,2.43-3.43,3.77-5.86,2.97s-3.77-3.43-2.97-5.86l2.1-6.4c1.4-4.27,5.21-5.38,8-6.19,3.01-.87,4.99-1.45,6.13-4.91.91-2.79-.61-5.8-3.4-6.71-2.79-.91-5.8.61-6.71,3.4-.8,2.43-3.43,3.77-5.86,2.97s-3.77-3.43-2.97-5.86C6.05,2.41,14.32-1.78,21.98.73s11.84,10.78,9.33,18.44c-2.66,8.12-8.74,9.89-12.36,10.94Z"/>
  </g>
</svg>