<?xml version="1.0" encoding="UTF-8"?>
<svg id="Layer_2" xmlns="http://www.w3.org/2000/svg" viewBox="0 0 172.38 142.04">
  <defs>
    <style>
      .cls-1 {
        fill: #fff;
      }
    </style>
  </defs>
  <g id="Layer_1-2" data-name="Layer_1">
    <path class="cls-1" d="M172,101.6c-6.71,13.08-17.7,24.44-22.88,38.26-.92,2.22-5.49,3.21-6.71.74-7.32-13.82-18.31-26.41-23.49-40.97-.92-2.72,3.66-5.43,6.1-2.96,3.66,3.7,7.93,6.66,12.2,10.12-.61-21.23,0-42.45-4.58-63.43-2.44-11.35-5.8-24.19-15.86-32.83-12.2-10.37-27.46-.99-34.17,8.64-5.8,8.39-15.86,44.67-36,32.09-11.9-7.4-14.95-17.52-18.61-28.63-.92-3.21-2.44-6.17-4.27-8.89C16.71,3.12,7.56,20.4,7.25,24.59c-.61,8.39,2.44,17.03,4.88,25.18.92,2.47-3.66,3.46-4.88.99-5.49-11.6-13.12-31.35,0-41.47,11.59-8.64,21.36-2.96,25.93,7.16,3.05,6.66,14.64,43.69,28.07,26.41,8.85-11.35,11.29-24.93,21.97-35.54C90.85-.09,104.58-1.82,115.25,1.88c12.81,4.69,18.31,18.51,21.66,28.38,8.24,24.68,8.24,51.34,7.32,76.76,7.32-3.95,15.56-7.65,23.8-10.12,3.36-.74,5.19,2.71,3.97,4.69ZM132.34,110.48c3.97,6.91,8.85,13.82,13.12,20.73,4.58-8.64,10.37-16.29,15.86-24.68-6.41,3.21-12.51,6.91-19.53,7.65-1.53.25-2.75-.49-3.36-1.48-2.14-.25-4.27-.99-6.1-2.22Z"/>
  </g>
</svg>