<?xml version="1.0" encoding="UTF-8"?>
<svg id="Layer_2" data-name="Layer 2" xmlns="http://www.w3.org/2000/svg" viewBox="0 0 48.98 65.76">
  <defs>
    <style>
      .cls-1 {
        fill: #fff;
      }
    </style>
  </defs>
  <g id="Layer_1-2" data-name="Layer 1">
    <g>
      <path class="cls-1" d="M38.08,8.4c-.14-.05-.86-.3-1.43-.48h0c-.44-.16-.96-.32-1.58-.56-1.05-.32-2.23-.62-3.42-.85-.03.01-.21-.14-.47-.63-.28-.41-.57-1.19-1.61-1.36h0c-.06,0-.11,0-.16,0-1.43.08-3.97,1.71-4.19,1.7l-.23-5.39c-.02-.47-.42-.83-.88-.81s-.83.42-.81.88l.22,4.96c-.86-.29-3.15-1.04-4.37-1.06-.03,0-.07,0-.11,0h0c-1.05-.08-1.48,1.2-1.48,1.38v.07s0,.04-.19.02c-1.29.12-2.54.27-3.51.48-.76.29-1.52.19-1.96,1.01C5.63,9.5-.14,14.87,0,26.46c0,3.32.43,7.16,1.36,11.63,3.58,16.76,10.1,27.43,19.5,27.67,8.66-.19,16.93-9.34,24.82-28.51,2.28-5.61,3.29-10.22,3.3-14.09.09-8.38-5.12-12.97-10.9-14.76ZM17.51,7.94c1.05.03,1.74-1.03,1.7-1.44,0,0,0-.01,0-.02.76.03,2.99.74,3.79.99l.68,1.13c.23.39.74.53,1.14.3.36-.2.52-.63.38-1.02.03,0,.07,0,.11,0,1.13-.2,3.58-1.75,4.07-1.69v.04c.33.22.51,1.51,1.93,1.93,1.13.22,2.27.51,3.25.81.58.18,1.05.35,1.42.5-.53.07-1.24.12-2.01.11-.18,0-.36,0-.55,0-1.59-.03-2.38-.13-2.87-.14-.12,0-.22,0-.41.05-.16,0-.69.36-.66.87.29,1.09.49.74.83,1.27.34.37.78.92,1.24,1.74.35.62.46,1.15.46,1.52,0,.26-.06.42-.1.49-.09-.05-.28-.21-.54-.8-1.01-2-2.4-4.01-4.36-4.17-.94-.02-1.72.75-2,1.73-.39,1.19-.76,2.69-1.15,3.85-.19.58-.4,1.07-.57,1.36,0,0,0,.01-.01.02-.24-.37-.36-.97-.36-1.7,0-1.34.39-2.82.4-3.81,0-.26-.05-1.22-1.07-1.32-.41.02-.63.17-.86.31-.61.46-2.3,1.21-3.73,1.74,1.19-.95,2.42-1.74,2.42-1.74.31-.2.46-.58.36-.93-.1-.36-.41-.61-.78-.63-.02.02-3.57-.2-5.52-.89.12-.03.25-.05.4-.07.82-.16,1.88-.28,2.97-.38ZM42.55,35.97c-7.63,18.93-15.89,26.6-21.68,26.4-6.15.25-12.79-8.5-16.18-24.99-.9-4.29-1.29-7.91-1.29-10.94.16-11.1,4.76-14.17,10.3-15.67.2-.05.77-.2,1.7-.31.64.13,1.28.23,1.86.3-.83.63-1.77,1.41-2.47,2.18-.18.23-.39.41-.42.93.08.93.96,1.01,1.17,1.01,1.39-.06,4.24-1.2,6.02-2.17-.12.78-.3,1.88-.31,2.94,0,.99.15,2.04.84,2.9.28.34.68.66,1.23.67,1.55-.28,1.65-1.52,2.17-2.71.42-1.26.79-2.76,1.15-3.86.25-.64.33-.54.39-.56.37-.16,2.11,1.44,2.82,3.19.49,1.04,1.16,1.76,2.14,1.8,1.19-.04,1.73-1.16,1.73-2.2,0-.71-.21-1.5-.67-2.34-.29-.53-.58-.96-.86-1.32.36.02.76.03,1.23.04.2,0,.4,0,.59,0,.39,0,.77,0,1.12-.03.92.13,1.73.31,1.91.36,4.98,1.76,8.49,4.62,8.58,11.55,0,3.26-.87,7.48-3.05,12.81Z"/>
      <path class="cls-1" d="M29.62,45c-.73,0-1.32.59-1.32,1.32s.59,1.32,1.32,1.32,1.32-.59,1.32-1.32c0-.73-.59-1.32-1.32-1.32ZM29.62,46.97c-.36,0-.65-.29-.65-.65s.29-.65.65-.65c.36,0,.65.29.65.65,0,.36-.29.65-.65.65Z"/>
      <path class="cls-1" d="M17.52,43.6c-.73,0-1.32.59-1.32,1.32s.59,1.32,1.32,1.32,1.32-.59,1.32-1.32c0-.73-.59-1.32-1.32-1.32ZM17.52,45.57c-.36,0-.65-.29-.65-.65,0-.36.29-.65.65-.65.36,0,.65.29.65.65s-.29.65-.65.65Z"/>
      <path class="cls-1" d="M17.15,20.98c0-.58-.47-1.04-1.04-1.04s-1.04.47-1.04,1.04.47,1.04,1.04,1.04c.58,0,1.04-.47,1.04-1.04ZM16.11,21.35c-.2,0-.36-.16-.37-.37,0-.2.16-.37.37-.37.2,0,.36.16.37.37,0,.2-.16.36-.37.37Z"/>
      <path class="cls-1" d="M9.5,28.11c-.65,0-1.18.53-1.18,1.18s.53,1.18,1.18,1.18c.65,0,1.18-.53,1.18-1.18,0-.65-.53-1.18-1.18-1.18ZM9.5,29.8c-.28,0-.51-.23-.51-.51s.23-.51.51-.51.51.23.51.51-.23.51-.51.51Z"/>
      <path class="cls-1" d="M27.23,23.04c-.65,0-1.18.53-1.18,1.18s.53,1.18,1.18,1.18,1.18-.53,1.18-1.18c0-.65-.53-1.18-1.18-1.18ZM27.23,24.73c-.28,0-.51-.23-.51-.51,0-.28.23-.51.51-.51.28,0,.51.23.51.51,0,.28-.23.51-.51.51Z"/>
      <path class="cls-1" d="M33.28,30.36c-.58,0-1.04.47-1.04,1.04,0,.58.47,1.04,1.04,1.04s1.04-.47,1.04-1.04-.47-1.04-1.04-1.04ZM33.28,31.77c-.2,0-.37-.16-.37-.37s.16-.37.37-.37c.2,0,.36.16.36.37s-.16.36-.36.37Z"/>
      <path class="cls-1" d="M20.53,32.67c0-.65-.53-1.18-1.18-1.18s-1.18.53-1.18,1.18.53,1.18,1.18,1.18,1.18-.53,1.18-1.18ZM19.35,33.18c-.28,0-.51-.23-.51-.51s.23-.51.51-.51.51.23.51.51-.23.51-.51.51Z"/>
      <path class="cls-1" d="M20.89,53.73c-.73,0-1.32.59-1.32,1.32s.59,1.32,1.32,1.32,1.32-.59,1.32-1.32c0-.73-.59-1.32-1.32-1.32ZM20.89,55.7c-.36,0-.65-.29-.65-.65,0-.36.29-.65.65-.65.36,0,.65.29.65.65,0,.36-.29.65-.65.65Z"/>
      <path class="cls-1" d="M40.21,21.61c-.18.05-.28.24-.23.42.43,1.45.65,2.97.65,4.49,0,2.67-.67,5.36-2.03,7.79-.09.16-.03.37.13.46.16.09.37.03.46-.13,1.42-2.54,2.12-5.34,2.12-8.12,0-1.58-.23-3.16-.68-4.68-.05-.18-.24-.28-.42-.23Z"/>
      <path class="cls-1" d="M39.47,19.73c.17-.08.24-.29.15-.45-.46-.94-1.02-1.84-1.68-2.69-.11-.15-.33-.18-.47-.06s-.18.33-.06.47c.63.81,1.16,1.67,1.61,2.57.08.17.29.24.45.15Z"/>
    </g>
  </g>
</svg>