<?xml version="1.0" encoding="UTF-8"?>
<svg id="Layer_2" data-name="Layer 2" xmlns="http://www.w3.org/2000/svg" viewBox="0 0 74.19 71.57">
  <defs>
    <style>
      .cls-1 {
        fill: #ff6f61;
      }
    </style>
  </defs>
  <g id="Layer_1-2" data-name="Layer 1">
    <path class="cls-1" d="M65.39,18.18c-4.64-4.64-10.8-7.19-17.35-7.19s-12.72,2.55-17.35,7.19c-3.8,3.8-5.9,8.86-5.9,14.23s2.09,10.43,5.9,14.23c6.47,6.47,17,6.47,23.47,0,2.6-2.6,4.03-6.06,4.03-9.74s-1.43-7.14-4.03-9.74c-2.17-2.18-5.07-3.37-8.14-3.37s-5.97,1.2-8.14,3.37c-3.78,3.78-3.78,9.94,0,13.72,1.56,1.56,3.63,2.42,5.84,2.42s4.28-.86,5.84-2.42c.97-.97.97-2.53,0-3.5-.97-.96-2.53-.97-3.49,0-1.25,1.25-3.43,1.25-4.69,0-1.86-1.86-1.86-4.88,0-6.73,1.24-1.24,2.89-1.92,4.65-1.92s3.4.68,4.65,1.92c1.67,1.67,2.59,3.88,2.59,6.24s-.92,4.58-2.59,6.24c-4.55,4.55-11.94,4.54-16.48,0-2.87-2.87-4.45-6.68-4.45-10.74s1.58-7.87,4.45-10.74c3.7-3.7,8.62-5.74,13.86-5.74s10.16,2.04,13.86,5.74c4.74,4.74,7.36,11.05,7.36,17.76s-2.61,13.02-7.36,17.76c-6.09,6.09-14.16,9.43-22.76,9.43h-.18c-8.5-.05-16.42-3.39-22.31-9.41C2.58,42.84.99,19.94,12.93,3.95c.82-1.09.59-2.64-.5-3.46-1.1-.82-2.64-.59-3.46.5C-4.42,18.92-2.64,44.57,13.1,60.67c6.82,6.97,15.99,10.85,25.82,10.9h.21c9.92,0,19.24-3.86,26.26-10.88,5.68-5.68,8.81-13.23,8.81-21.26s-3.13-15.58-8.81-21.25Z"/>
  </g>
</svg>