<?xml version="1.0" encoding="UTF-8"?>
<svg id="Layer_2" data-name="Layer 2" xmlns="http://www.w3.org/2000/svg" xmlns:xlink="http://www.w3.org/1999/xlink" viewBox="0 0 75.04 77.54">
  <defs>
    <style>
      .cls-1 {
        fill: none;
      }

      .cls-2 {
        fill: #fff;
      }

      .cls-3 {
        clip-path: url(#clippath);
      }
    </style>
    <clipPath id="clippath">
      <rect class="cls-1" width="75.04" height="77.54"/>
    </clipPath>
  </defs>
  <g id="Layer_1-2" data-name="Layer 1">
    <g class="cls-3">
      <path class="cls-2" d="M58.9,25.44c3.91,1.28,7.15,1.77,10.21,1.54,3.85-.29,5.89-2.49,5.91-6.37,0-1.76-.08-3.55-.16-5.28-.02-.49-.05-.97-.07-1.46,0-.55-.18-1.09-.52-1.53-.34-.44-.81-.75-1.35-.89-.73-.22-1.47-.4-2.22-.53-7.95-1.44-14.06-4.51-18.7-9.39-.79-.81-1.85-1.3-2.98-1.38h-.03c-2.39.03-4.81.29-7.15.53l-1.19.12c-1.36.14-2.18,1.03-2.25,2.45-.03.65-.04,1.15-.04,1.62,0,3.29,0,6.58.01,9.87.01,7.81.03,15.88-.02,23.82-.02,3.73-.22,7.49-.59,11.17-.08.94-.35,1.85-.8,2.69-.44.83-1.05,1.57-1.78,2.16-.8.62-1.71,1.07-2.69,1.33-.98.26-2,.32-3,.17-4.01-.51-6.2-2.89-6.9-7.5-.38-2.56.13-4.87,1.47-6.68,1.33-1.78,3.34-2.91,5.83-3.27,2.32-.33,3.03-1.24,2.81-3.58-.19-2-.49-4.02-.79-5.97-.19-1.27-.39-2.58-.55-3.88-.17-1.32-.97-2.1-2.37-2.32-.88-.14-1.77-.15-2.65-.03-10.68,1.44-18.54,6.98-23.35,16.46-3.47,6.84-3.89,14.68-1.15,21.53,2.66,6.65,7.99,11.68,15.01,14.16,4.32,1.55,8.87,2.36,13.46,2.37,4.92,0,9.89-.94,15.01-2.81,6.04-2.21,9.59-6.73,10.54-13.43,1.33-9.34,1.54-17.19.66-24.7-.32-2.72-.43-5.47-.55-8.37-.05-1.2-.1-2.43-.17-3.7.34.12.65.23.95.33.82.29,1.46.52,2.13.73ZM50.52,27.92c.06,5.47.12,11.12.05,16.68v.32c-.07,5.02-.13,10.22-1.1,15.27-.88,4.62-3.27,7.53-7.29,8.89-8.52,2.88-16.35,2.9-23.94.06-10.59-3.97-13.78-13.73-12.25-21.65,2.01-10.39,7.88-17.01,17.43-19.68,1-.28,2.19-.6,3.4-.91.29-.06.58-.11.88-.15.12-.02.25-.03.39-.05l.43,7.69c-.11.06-.22.11-.31.16-.22.13-.45.23-.7.31-6.79,1.48-10.69,7.95-9.46,15.75.35,2.26,1.29,4.38,2.73,6.15,1.44,1.77,3.33,3.12,5.47,3.92,2.24.86,4.66,1.11,7.03.73,2.37-.38,4.59-1.37,6.45-2.88,2.64-2.16,3.93-4.86,3.72-7.8-.24-3.4-.08-6.84.07-10.17.1-2.12.2-4.3.19-6.46,0-5.55-.03-11.19-.05-16.65-.01-2.58-.02-5.15-.03-7.73,0-.94,0-1.88,0-2.84v-1.16c1.23-.46,2.43-.38,3.6-.3.44.03.89.06,1.33.06h0l.35.35c4.63,4.6,5.62,5.57,20.49,10.47l-.21,4.15c-.09.05-.18.09-.26.14-.13.08-.26.14-.41.18-4.41-.33-9.5-.9-14.04-3.48-.64-.33-1.32-.59-2.02-.76-.38-.11-.78-.23-1.22-.38-.05-.02-.09-.02-.14-.02-.05,0-.09.02-.13.05-.04.03-.07.06-.1.1-.03.04-.04.09-.05.13-.06.43-.12.81-.17,1.15-.11.58-.18,1.16-.19,1.75,0,2.88.04,5.81.07,8.65h0Z"/>
    </g>
  </g>
</svg>