<?xml version="1.0" encoding="UTF-8"?>
<svg id="Layer_2" data-name="Layer 2" xmlns="http://www.w3.org/2000/svg" viewBox="0 0 86.89 45.22">
  <defs>
    <style>
      .cls-1 {
        fill: #fff;
      }
    </style>
  </defs>
  <g id="Layer_1-2" data-name="Layer 1">
    <g>
      <path class="cls-1" d="M86.09,0H.8c-.44,0-.8.36-.8.8v.97c0,24,19.45,43.45,43.45,43.45,24,0,43.44-19.45,43.45-43.45v-.97c0-.44-.36-.8-.81-.8ZM43.45,42C21.23,41.96,3.26,23.99,3.22,1.77c0-.06,0-.16,0-.16h80.44s.01.11.01.16c-.04,22.22-18.01,40.19-40.23,40.23Z"/>
      <path class="cls-1" d="M77.36,8.64c-.17-.03-.34.08-.38.26-.4,2.14-1.01,4.2-1.8,6.17-.07.16.01.35.18.42.17.07.35-.01.42-.18.81-2.01,1.43-4.12,1.84-6.29.03-.17-.08-.34-.26-.38Z"/>
      <path class="cls-1" d="M73.13,19.94c-.15-.09-.35-.05-.44.11-4.62,7.53-12.17,13.08-21.07,15.05-.17.04-.28.21-.24.38s.21.28.38.24c9.07-2.01,16.76-7.66,21.48-15.34.09-.15.04-.35-.11-.44Z"/>
      <path class="cls-1" d="M61.73,13.76c1.4,0,2.12-.91,2.12-1.9-.03-1.76-1.47-3.93-1.69-4.27-.04-.07-.09-.14-.16-.18-.11-.07-.24-.1-.36-.07-.04,0-.09.03-.13.05,0,0,0,0-.01,0-.03.01-.05.03-.07.05,0,0-.02.01-.02.02-.02.02-.04.04-.06.06,0,0-.01.01-.02.02,0,.04-1.69,2.43-1.72,4.32,0,.99.72,1.9,2.12,1.9ZM61.73,8.74c.47.82,1.17,2.22,1.15,3.12-.07.63-.1.86-1.16.94-1.06-.07-1.08-.3-1.16-.94-.02-.91.69-2.3,1.16-3.12Z"/>
      <path class="cls-1" d="M54.55,25.01c-.03-1.75-1.47-3.92-1.69-4.27-.04-.07-.09-.14-.16-.19-.15-.1-.34-.1-.49-.02,0,0,0,0,0,0-.03.02-.06.04-.09.06,0,0,0,0,0,0-.03.02-.05.05-.07.08,0,0,0,0,0,0,0,.04-1.69,2.43-1.72,4.32,0,.99.72,1.9,2.12,1.9,1.4,0,2.12-.91,2.12-1.9ZM51.27,25.01c-.02-.91.69-2.3,1.16-3.12.47.82,1.17,2.21,1.15,3.12-.07.63-.1.86-1.16.94-1.06-.07-1.08-.3-1.15-.94Z"/>
      <path class="cls-1" d="M24.79,7.41c-.15-.1-.34-.1-.49-.02,0,0,0,0,0,0-.03.02-.06.03-.08.06,0,0-.01,0-.02.01-.02.02-.04.04-.06.07,0,0-.01.01-.02.02,0,.04-1.69,2.43-1.72,4.32,0,.99.72,1.9,2.12,1.9,1.4,0,2.12-.91,2.12-1.9-.03-1.75-1.46-3.91-1.69-4.27-.04-.07-.09-.14-.16-.19ZM24.52,12.8c-1.06-.07-1.08-.3-1.15-.94-.02-.91.69-2.3,1.16-3.12.47.82,1.17,2.21,1.15,3.12-.07.63-.1.86-1.16.94Z"/>
      <path class="cls-1" d="M43.4,9.34c-.1-.07-.24-.1-.36-.08-.05,0-.1.03-.14.05,0,0,0,0,0,0-.03.02-.06.04-.09.06,0,0,0,0,0,0-.03.02-.05.05-.07.08h0s0,0,0,0c0,0,0,0,0,0,0,.04-1.69,2.43-1.72,4.32,0,.99.72,1.9,2.12,1.9,1.4,0,2.12-.91,2.12-1.9-.03-1.75-1.46-3.91-1.69-4.27-.04-.07-.09-.14-.15-.18ZM43.12,14.73c-1.06-.07-1.08-.3-1.16-.94-.02-.91.69-2.3,1.16-3.12.47.82,1.17,2.21,1.15,3.12-.07.63-.1.86-1.16.94Z"/>
      <path class="cls-1" d="M34.09,20.55c-.15-.1-.34-.1-.49-.02h0s-.06.04-.09.06c0,0,0,0,0,0-.03.03-.05.05-.07.09h0s0,0,0,.01c-.06.12-1.68,2.45-1.71,4.31,0,.99.72,1.9,2.12,1.9,1.4,0,2.12-.91,2.12-1.9-.03-1.74-1.45-3.89-1.68-4.26-.04-.08-.09-.14-.17-.19ZM33.82,25.95c-1.06-.07-1.08-.3-1.15-.94-.02-.91.69-2.3,1.16-3.12.47.82,1.17,2.22,1.15,3.12-.07.63-.1.86-1.16.94Z"/>
    </g>
  </g>
</svg>