<?xml version="1.0" encoding="UTF-8"?>
<svg id="Layer_2" data-name="Layer 2" xmlns="http://www.w3.org/2000/svg" viewBox="0 0 1920 15.11">
  <defs>
    <style>
      .cls-1 {
        fill: #fff;
      }
    </style>
  </defs>
  <g id="Layer_1-2" data-name="Layer 1">
    <path class="cls-1" d="M1440,15.11c-138.08,0-213.6-3.5-286.61-6.89-58.08-2.69-118.13-5.48-193.39-5.48s-135.31,2.78-193.39,5.48c-73.07,3.39-148.59,6.89-286.61,6.89s-205.49-3.72-262.08-7C162.03,4.87,120.32,2.75,53.33,2.75,23.88,2.75,0,2.13,0,1.37S23.88,0,53.33,0c141.33,0,205.49,3.72,262.08,7,55.89,3.24,97.6,5.37,164.59,5.37,75.31,0,135.31-2.78,193.39-5.48,73.07-3.39,148.59-6.89,286.61-6.89s213.6,3.5,286.61,6.89c58.08,2.69,118.13,5.48,193.39,5.48,66.99,0,108.64-2.13,164.59-5.37,56.59-3.28,120.8-7,262.08-7,29.46,0,53.33.62,53.33,1.37s-23.88,1.37-53.33,1.37c-66.99,0-108.64,2.12-164.59,5.37-56.59,3.28-120.8,7-262.08,7Z"/>
  </g>
</svg>