<?xml version="1.0" encoding="UTF-8"?>
<svg id="Layer_2" data-name="Layer 2" xmlns="http://www.w3.org/2000/svg" viewBox="0 0 106.63 104.15">
  <defs>
    <style>
      .cls-1 {
        fill: #fff;
        fill-rule: evenodd;
      }
    </style>
  </defs>
  <g id="Layer_1-2" data-name="Layer 1">
    <path class="cls-1" d="M12.4,52.08c0-23.28,18.87-42.16,42.16-42.16s42.16,18.87,42.16,42.16-18.87,42.16-42.16,42.16c-8.29,0-16.01-2.39-22.53-6.52-1.21-.77-2.7-.97-4.07-.56l-14.28,4.26,5.38-12.58c.64-1.49.51-3.19-.35-4.56-4-6.44-6.31-14.04-6.31-22.19ZM54.56,0C25.8,0,2.48,23.32,2.48,52.08c0,9.12,2.35,17.7,6.47,25.16L.4,97.24c-.76,1.77-.42,3.82.86,5.25,1.28,1.44,3.28,2,5.12,1.45l22.32-6.66c7.62,4.37,16.46,6.87,25.86,6.87,28.76,0,52.08-23.32,52.08-52.08S83.32,0,54.56,0ZM65.93,62.9l-6.52,4.59c-3.05-1.74-6.43-4.17-9.81-7.55-3.52-3.52-6.13-7.15-8.05-10.49l4.14-3.52c1.78-1.51,2.26-4.05,1.17-6.11l-5.28-9.92c-.71-1.34-1.99-2.27-3.48-2.55-1.49-.27-3.02.15-4.16,1.14l-1.56,1.37c-3.76,3.28-5.99,8.68-4.14,14.15,1.91,5.66,5.99,14.58,14.35,22.94,8.99,8.99,18.13,12.54,23.47,13.91,4.3,1.11,8.38-.38,11.25-2.72l2.93-2.39c1.25-1.02,1.93-2.59,1.81-4.21-.12-1.61-1.02-3.07-2.41-3.9l-8.32-4.96c-1.68-1-3.79-.92-5.39.21Z"/>
  </g>
</svg>