<?xml version="1.0" encoding="UTF-8"?>
<svg id="Layer_2" xmlns="http://www.w3.org/2000/svg" xmlns:xlink="http://www.w3.org/1999/xlink" viewBox="0 0 150.34 246.79">
  <defs>
    <style>
      .cls-1 {
        fill: none;
      }

      .cls-2 {
        fill: #fff;
      }

      .cls-3 {
        clip-path: url(#clippath);
      }
    </style>
    <clipPath id="clippath">
      <rect class="cls-1" x="0" y="41.82" width="150.34" height="150.86"/>
    </clipPath>
  </defs>
  <g id="Layer_1-2" data-name="Layer_1">
    <g>
      <g>
        <path class="cls-2" d="M27.48.12c1.87-.52,3.61.65,5.22,3.52,1.61,2.87,3.07,6.11,4.38,9.73,1.31,3.62,2.63,7.5,3.95,11.63.64,2.02,1.26,3.88,1.86,5.56.61,1.68,1.17,3.17,1.68,4.48.06-.09.09-.2.1-.31.05-.35.13-.87.25-1.55.11-.69.2-1.15.25-1.39.21-1.16.39-2.2.55-3.12.16-.93.32-1.78.5-2.55.78-3.88,1.69-7.18,2.72-9.91.65-1.75,1.36-3.32,2.11-4.71.59-1.16,1.1-1.9,1.55-2.22.46-.27.93-.36,1.41-.27.49.09.87.37,1.15.82.25.35.59,1.21,1.01,2.58l.97,2.87c.42,1.21.8,2.29,1.13,3.23.34.93.64,1.74.91,2.43.35.86.72,1.67,1.12,2.41.4.74.84,1.46,1.31,2.17.59.9,1.64,2.21,3.15,3.93.33.37.37.73.11,1.09-.26.36-.61.43-1.05.22-.73-.41-1.44-.95-2.12-1.61-.68-.67-1.35-1.5-2.01-2.51-.47-.71-.92-1.49-1.37-2.34-.45-.84-.89-1.8-1.35-2.85-.24-.58-.52-1.34-.86-2.27-.34-.94-.72-2.03-1.15-3.28l-.95-2.78c-.04-.17-.11-.37-.19-.59-.08-.23-.18-.5-.31-.81l-.19.34-.51.99c-.17.35-.35.72-.54,1.1-.18.37-.35.75-.51,1.14-.59,1.31-1.14,2.83-1.64,4.57-.71,2.49-1.45,5.79-2.21,9.9l-.85,4.92c-.15.96-.36,1.77-.62,2.41-.26.65-.83,1.21-1.72,1.69-.24.07-.51.05-.8-.06-.28-.11-.47-.27-.57-.47-.5-1.12-.98-2.26-1.44-3.42-.46-1.17-.94-2.45-1.44-3.83-.24-.71-.45-1.34-.65-1.89-.19-.55-.36-1.05-.53-1.51l-1.27-3.87-1.14-3.51c-1.09-3.36-2.18-6.33-3.28-8.93-1.09-2.6-2.16-4.81-3.2-6.65-.6-1.05-1.19-1.73-1.78-2.02-.04-.03-.08-.05-.1-.06-.02-.01-.03-.02-.03-.02,0,0-.03-.01-.08-.03-.03,0-.04.01-.04.01l-.06.02-.06-.04s-.07.02-.11.03t0,0h-.04c-.37.31-.62.64-.75,1.02-.72,1.81-1.14,4.18-1.27,7.11-.09,1.85-.03,4.13.19,6.83.22,2.71.61,5.85,1.15,9.44.26,2.02.72,4.89,1.38,8.59l.73,4.43.3,2.31c.03.27.06.57.08.9.02.33.06.74.11,1.23.02.22-.06.36-.25.44-.19.08-.35.06-.5-.06-.18.05-.3-.01-.34-.19-.06-.21-.12-.43-.19-.68-.06-.25-.15-.5-.26-.74l-.4-1.02-.72-2.55c-.04-.29-.1-.58-.18-.86-.08-.29-.16-.59-.25-.91-.1-.35-.19-.67-.28-.97-.08-.3-.17-.57-.28-.81-.92-3.18-1.77-6.03-2.56-8.56-.79-2.52-1.48-4.72-2.07-6.58l-1.14-3.45-1.32-4.09c-.11-.42-.31-1.05-.58-1.89-.27-.84-.47-1.48-.59-1.91-.19-.52-.32-.93-.41-1.25-.09-.32-.14-.52-.16-.59-.01-.19-.08-.48-.19-.89-.11-.41-.19-.74-.23-.99.03-.2.16-.34.38-.42.22-.08.4-.02.53.17.12.16.27.5.45,1.02.04.14.12.32.23.54.1.22.18.37.25.46.08.28.2.66.38,1.15.17.49.27.8.31.95.34.93.62,1.75.86,2.45.24.7.44,1.27.59,1.71.59,1.82,1.17,3.65,1.73,5.48.56,1.82,1.11,3.68,1.64,5.55-.07-.52-.09-.81-.05-.85l-.76-5.75c-.04-.71-.08-1.5-.11-2.37-.03-.87-.07-1.84-.1-2.88,0-1.07.04-2.08.1-3.04.06-.95.15-1.87.28-2.74.12-.68.25-1.35.38-1.99.12-.65.29-1.26.51-1.86.62-1.74,1.48-2.81,2.58-3.24l.2-.05ZM28.05,2.53h.05s-.05,0-.05,0Z"/>
        <path class="cls-2" d="M77.64,9.64c.26,0,.48.09.68.26.2.17.3.4.3.69-.05.7-.13,2.2-.23,4.52-.06,1.14-.1,2.14-.14,3-.03.86-.08,1.6-.16,2.23l-.41,4.56c-.14,2.2-.27,3.91-.4,5.12-.04.33-.22.5-.56.5-.33,0-.5-.17-.5-.51-.03-.4-.04-1.01-.02-1.84.01-.82.03-1.82.04-3l.08-4.85c-.03-.93-.02-1.95.04-3.09-.08.15-.15.3-.2.46-.05.17-.12.34-.2.53-1.06,2.45-2.21,4.45-3.44,6.01-.93,1.21-1.77,1.91-2.51,2.12-1.07.27-1.95,0-2.64-.81-.43-.52-.78-1.38-1.05-2.56-.24-1.32-.45-2.59-.61-3.81-.13-1.25-.17-2.5-.11-3.75,0-.4.02-.77.04-1.1.02-.34.05-.59.09-.77l.37-1.86c.03-.15.13-.22.3-.19.16.02.23.1.19.25h.05c0,.15-.02.47-.04.99-.02.52-.04.85-.04.99,0,.26,0,.58-.01.97,0,.39,0,.71.04.96.01,1.25.11,2.48.28,3.7.19,1.18.43,2.28.71,3.29.28,1.01.64,1.65,1.09,1.92.5.34,1.11.11,1.83-.69.26-.29.52-.64.77-1.03.26-.4.55-.86.85-1.37.64-1.1,1.33-2.51,2.07-4.24.75-1.74,1.5-3.79,2.27-6.17l.29-.77c.11-.4.41-.62.89-.65Z"/>
        <path class="cls-2" d="M94.55,4.31c.52.14.97.43,1.35.88.29.34.53.83.74,1.49.22.65.4,1.44.56,2.39.13.8.22,1.59.28,2.37.06.77.06,1.63-.01,2.55-.06.94-.1,1.71-.12,2.29-.02.58-.13,1.44-.32,2.56l-.32,2.31c-.04.41-.22,1.26-.52,2.54-.1.65-.19,1.17-.28,1.55-.08.38-.12.62-.12.73-.16.91-.3,1.72-.42,2.43-.12.71-.2,1.33-.27,1.85-.02.06-.03.19-.04.39,0,.19,0,.32.01.39.11-.12.3-.29.59-.52.29-.23.46-.37.53-.43,1.53-1.38,2.81-2.49,3.84-3.33,1.03-.84,1.79-1.46,2.27-1.83,1.12-.8,2.38-1.4,3.79-1.83.8-.24,1.5-.25,2.12-.03.62.22,1.07.72,1.32,1.47.29.5.38,1.22.27,2.18-.1.96-.17,1.7-.19,2.23.06,1.49.52,2.47,1.38,2.94.29.19.36.45.22.77-.15.32-.38.45-.71.4-.68-.15-1.24-.5-1.69-1.03-.45-.54-.73-1.15-.85-1.83-.12-.52-.15-1.31-.1-2.37.06-.5.08-.95.06-1.33,0-.39-.03-.7-.08-.94-.1-.48-.44-.65-1.02-.51-.49.14-1.15.42-1.99.84-1.03.6-2.13,1.37-3.29,2.31-.4.31-.93.76-1.6,1.37-.67.6-1.13,1.02-1.39,1.26-.25.23-.52.45-.81.67-.28.21-.55.43-.81.66-.72.57-1.28.88-1.68.93-.71.12-1.25-.09-1.63-.61-.37-.52-.56-1.14-.56-1.85l.62-4.06c.04-.29.27-1.55.68-3.77.22-1.12.4-2.06.55-2.81.15-.76.24-1.33.27-1.7.07-.4.13-.89.19-1.46.06-.57.1-1.27.13-2.1.09-1.65.08-3.08-.04-4.29-.15-1.71-.44-2.93-.85-3.65-.43-.81-1.12-.73-2.06.24-.43.46-1.26,1.57-2.49,3.34-.88,1.29-1.69,2.58-2.41,3.85-.73,1.26-1.42,2.57-2.09,3.93-.66,1.36-1.29,2.77-1.88,4.25l-.94,2.42c-.36,1.2-.72,2.3-1.09,3.32-.37,1.01-.74,1.95-1.13,2.82-.12.28-.32.36-.6.23-.29-.13-.41-.35-.37-.65l.11-.43s-.02-.07-.01-.11c-.04-1,.18-2.39.66-4.17.22-.82.47-1.63.73-2.43.27-.8.56-1.64.87-2.51.11-.23.21-.52.3-.88.1-.36.21-.77.33-1.23.12-.46.23-.84.31-1.16.09-.32.17-.57.26-.74.44-1.51.82-2.83,1.12-3.96.31-1.13.58-2.07.81-2.82.1-.39.23-.85.4-1.4.16-.54.37-1.21.62-1.98.24-.77.45-1.43.61-1.99.17-.57.3-1.03.4-1.38.08-.29.27-.41.58-.37.31.04.44.25.39.62-.17.63-.38,1.64-.65,3.01l-.62,3.14-.59,2.69.64-1.13c.51-.74.98-1.42,1.41-2.04.44-.63.86-1.21,1.27-1.74,1.14-1.56,2.08-2.53,2.83-2.91.72-.41,1.46-.51,2.21-.31Z"/>
        <path class="cls-2" d="M128.31,5.41c.26.13.37.34.3.65-.71,2.52-1.81,5.05-3.3,7.59-.16.24-.41.32-.76.24-.34-.09-.46-.29-.34-.6.69-2.68,1.73-5.2,3.1-7.56.05-.19.18-.31.39-.37.22-.06.42-.04.62.05Z"/>
        <path class="cls-2" d="M134.29,26.51c.86.56,1.59,1.18,2.2,1.86,1.24,1.33,1.66,2.58,1.27,3.72-.07.17-.21.25-.42.23-.2-.02-.3-.14-.28-.36.13-.67-.18-1.41-.93-2.23-.62-.67-1.3-1.24-2.03-1.71-1.51-.93-3.14-1.45-4.89-1.58-2.16-.04-3.48.35-3.97,1.17-.47.87-.1,2.16,1.11,3.86.16.28.4.6.7.95.3.34.65.75,1.04,1.23.41.45.76.83,1.02,1.16.27.32.47.57.58.72,1.28,1.61,2.08,3.05,2.4,4.32.52,1.77.03,3.22-1.45,4.37-1.12.8-2.72,1.19-4.8,1.15-1.24-.05-2.15-.27-2.73-.65-.8-.52-1.29-1.22-1.46-2.11-.07-.36-.1-.73-.1-1.11.01-.39.09-.83.22-1.32.22-.86.6-1.61,1.15-2.26.18-.28.44-.38.77-.29.34.09.48.3.44.62-.05.23-.16.67-.31,1.31-.15.64-.24,1.15-.26,1.52-.05.75.2,1.35.74,1.79.41.31,1.29.48,2.63.52,1.07.04,1.89-.15,2.45-.57.84-.55,1.2-1.22,1.05-2.01-.15-.8-.47-1.62-.98-2.48-.17-.28-.4-.61-.71-.98-.31-.37-.55-.66-.72-.86-.17-.2-.4-.47-.69-.81-.28-.34-.45-.52-.52-.56-.76-.93-1.4-1.74-1.91-2.43-.5-.7-.89-1.29-1.16-1.78-.88-1.83-.88-3.32,0-4.46.83-1.09,2.27-1.65,4.31-1.69.84-.02,1.65.05,2.42.22.77.17,1.51.4,2.23.69l1.58.83Z"/>
      </g>
      <g class="cls-3">
        <path class="cls-2" d="M81.69,192.71c-1.21.06-2.43.11-3.65.15-5.14-.06-6.19-.19-4.33-.19,2.66.04,5.32.1,7.97.04ZM115.25,183.42l-.83.66-.8.56-1.4.98c-.9.58-1.72,1.03-2.54,1.52-.82.49-1.71.86-2.72,1.38-1.01.52-2.22.98-3.74,1.54-4.89,1.61-8.74,1.93-7.88,1.78-.89.18-2.87.43-4.97.62-2.1.19-4.33.29-5.72.38,3.74-.02,7.46-.33,11.15-.93,1.01-.16,2.01-.38,3.04-.59s2.04-.5,3.06-.83c2.1-.61,4.12-1.41,6.07-2.39,1.72-.79.09.03-.29.25.67-.34,1.37-.66,2.04-1.03l1.92-1.14.47-.27.43-.3.81-.56c.52-.37,1.01-.68,1.4-1,1.53-1.24,2.09-1.74.5-.64ZM126.8,166.91c.55-.7,1.22-1.58,1.95-2.6-.63.89-1.28,1.75-1.95,2.61h0ZM19.74,157.39c-1.4-1.93-2-2.72-2.08-2.8,1.31,1.77,2.38,3.24,2.08,2.8ZM61.91,182.67c1.19.19,2.38.43,3.12.47-1.14-.12-2.09-.31-3.12-.47ZM129.42,163.37c1.4-1.95,2.71-3.93,4.02-5.93.25-.48-1.85,2.85-4.02,5.93ZM128.75,164.31c.22-.31.47-.63.68-.93-.22.32-.44.64-.68.95h0ZM147.11,136.25c.2-.67.41-1.34.57-2.03,0-.08.03-.14.05-.27-.11.42-.21.82-.31,1.21-.1.38-.22.75-.33,1.11-.1.36-.21.7-.3,1.03l-.32.97c.12-.34.23-.67.34-1,.11-.33.21-.66.3-1h0ZM7.99,152.6c.16.36.32.71.49,1.06l.54,1.03,1.07,2.06-1.14-2.27-.51-.93-.45-.95ZM24.43,59.54c-.88.8-1.47,1.36-1.87,1.82-.4.47-.68.82-.98,1.17l.73-.8c.27-.31.57-.6.87-.88l2.11-1.97c-.32.18-.61.4-.88.66ZM149.84,112.87c.03.26.05.5.08.7-.03-.23-.06-.45-.08-.7ZM149.57,110.61c.12.75.19,1.5.27,2.26-.08-.72-.16-1.59-.27-2.25h0ZM75.58,189.5l-.7-.05c.18.03.55.06.96.08-.09-.02-.17-.03-.26-.03ZM87.26,125.43c0,.08.02-.03.02,0,.12-.58.15-.75-.02-.01h0ZM77.73,121.79c.08.02.17.04.25.04-.09-.01-.17-.03-.25-.05h0ZM76.38,120.6c.13.34.34.63.62.86.21.17.46.28.73.33-.5-.13-.86-.43-1.1-.89-.15-.14-.22-.32-.25-.31h0ZM136.52,133.1c-.03.2-.03.21,0,.09.03-.12.05-.36.09-.68.04-.31.05-.69.09-1.08,0,.19,0,.26-.03.43-.05.63-.13,1.03-.15,1.24ZM29,93.8c.06-.16.12-.3.18-.43-.06.14-.12.28-.18.43ZM29.25,93.75c.41-1.1.92-2.16,1.51-3.17.53-.91.93-1.48.69-1.19-.3.38-.57.78-.83,1.19-.56.89-1.05,1.83-1.45,2.8.23-.57.5-1.11.81-1.64.14-.24.08-.1-.11.28-.19.38-.47,1.02-.76,1.78s-.54,1.64-.8,2.47c-.52,1.67-.9,3.22-.93,3.41.12-.28.21-.57.27-.87.21-.72.57-1.93,1.2-3.74-.11.32.06-.33.41-1.34ZM149.14,127.11c-.09.68-.2,1.35-.32,2.02.04-.22.08-.44.12-.68.06-.41.1-.85.2-1.33ZM148.74,129.57v.04c.03-.16.06-.32.09-.47-.04.14-.07.29-.09.43ZM148.39,131.33c.12-.47.21-1.05.34-1.72-.1.58-.22,1.16-.34,1.72ZM15.23,129.56c-.12-.47-.34-1.32-.56-2.24,0,.04.03.19.11.53.08.34.21.91.46,1.71h-.01ZM121.76,77.03c-.68-.93-1.45-2.04-2.41-3.39l2.41,3.39ZM79.59,179.57l-2.07.15c.75-.03,1.36-.09,2.07-.15ZM79.7,179.57l.25-.03-.36.04h.11ZM77.53,179.73l-.93.08.93-.08ZM82.67,179.15l-.93.12c-.47.07-1.06.19-1.77.27.7-.09,1.53-.2,2.69-.4h0ZM133.08,127c-.1-1.52-.28-3.03-.54-4.53.07.47.16,1.11.24,1.66l.18,1.4c.05.51.08,1,.13,1.47ZM67.99,99.93c.22-.13.5-.3.85-.47l1.32-.63c.52-.25,1.15-.47,1.87-.74.36-.14.76-.23,1.17-.36.44-.14.89-.26,1.34-.35-.44.07-.86.17-1.29.3l-1.05.27-1.58.54c.64-.23-2.03.94-2.94,1.59-.48.28-.57.33.31-.17ZM147.82,133.94c.05-.26.12-.57.22-.99l.34-1.62-.33,1.48c-.11.47-.25.93-.37,1.4-.05.28-.05.34.13-.28ZM85.33,177.64l.17-.03-.17.03ZM86.7,177.36l-1.2.25,1.2-.25ZM80.13,178.46c1.75-.2,3.5-.47,5.2-.82-1.72.33-3.45.6-5.2.82ZM86.7,177.35c2.14-.47,4.26-.99,6.37-1.61-1.91.57-4.07,1.14-6.37,1.61ZM94.02,175.48l-.94.28.94-.28ZM55.5,147.89l-.42-.31c.13.09.27.2.42.3h0ZM55.5,147.89c.73.54,1.47,1.08,2.24,1.55-.52-.34-1.03-.66-1.47-1-.27-.21-.53-.39-.77-.57h0ZM128.98,146.71c-.56,1.51-1.16,3-1.87,4.43,1.16-2.41,2.15-4.89,2.96-7.43.17-.56.36-1.2.47-1.58-.47,1.53-1,3.06-1.56,4.58h0ZM90.44,125.64c.1-.21.19-.43.27-.66-.08.22-.17.44-.27.65h0ZM26.82,164.31l-.09-.08c.67.62,1.36,1.25,2.05,1.87l-1.96-1.78ZM90.44,125.63c-.02.05-.04.1-.06.15.02-.05.05-.1.06-.15ZM90.08,126.39l.04-.07-.04.07ZM90.38,125.78c-.08.18-.17.36-.27.54.09-.17.18-.36.27-.54ZM124.56,175.01c.23-.24.59-.65,1.14-1.29-.37.45-.75.88-1.14,1.29ZM15.76,150.31l.35.57.17.27c-.29-.47-.57-.93-.84-1.42l.32.58ZM26.74,164.22l-.53-.51c.17.17.35.35.53.51ZM69.65,126.49l-.06-.05.06.05ZM69.59,126.44l-.27-.27.27.27ZM69.65,126.49c.25.24.51.45.79.66-.28-.2-.54-.42-.79-.66ZM93.1,110.75l.08.15c-.09-.19-.19-.39-.29-.58l.21.43ZM40.5,109c-.07.33-.13.66-.18.98.06-.34.12-.66.18-.98ZM114.53,131.23c.04-.3.08-.6.11-.91-.03.3-.07.59-.11.91ZM41.3,105.7c-.26.9-.54,1.99-.8,3.31.22-1.1.5-2.24.8-3.31ZM123.85,81.87c-.28-.51-.64-1-.96-1.51.31.5.66.99.96,1.53l.94,1.6.89,1.56c.3.5.52,1,.76,1.46.45.97.95,1.92,1.51,2.83l-2.09-4.03-.36-.66c-.04-.05-.37-.6-.83-1.4l-.8-1.37ZM114.69,129.93c0,.13-.03.26-.05.4.02-.13.03-.27.05-.4ZM120.85,88.85c-.37-.72-.7-1.34-.96-1.82.27.5.65,1.19.96,1.82ZM125.49,84.65v-.03.03ZM69.99,98.74l.6-.24c-.21.06-.41.15-.6.24ZM67.78,133.94c-.26-.15-.43-.24-.54-.3l.1.07c.15.07.29.15.44.23ZM70.72,136.2c1.01.38,2.06.66,3.13.84-1.07-.19-2.11-.47-3.13-.84ZM77.02,96.69c-.29.03-.58.06-.87.11l.87-.11ZM132.56,98l-.25-.79.25.79ZM136.03,136.12c-.05.34-.1.69-.16,1.01.08-.38.12-.72.16-1.01ZM135.87,137.21v-.07s0,.02,0,.05v.02ZM12.65,105.56c.12-1.1.28-2.16.47-3.2-.08.44-.17.88-.23,1.32l-.24,1.89ZM115.82,69.42l.47.55c-.21-.25-.38-.45-.47-.55ZM118.75,72.97l-2.28-2.8-.18-.2c1.2,1.45,3.87,4.82,2.46,3.02h0ZM73.85,137.04l.55.09-.55-.09ZM135.87,137.2c-.23,1.33-.5,2.56-.75,3.69.38-1.56.6-2.77.75-3.69ZM150.13,119.53c0,.54,0,1.13-.02,1.81-.06,1.81-.21,3.61-.47,5.4.19-1.62.29-2.71.3-3.4.03-.31.03-.62,0-.93-.06.27-.09.54-.11.81-.04.47-.1,1.14-.2,1.87-.19,2.24-.52,4.47-.99,6.67-.46,2.21-1.04,4.39-1.74,6.54.54-1.75.97-3.53,1.36-5.32-.87,3.48-2,6.88-3.39,10.2-1.47,3.5-3.18,6.87-5.12,10.13-1.87,3.17-3.74,6.13-5.35,8.63-.83,1.24-1.57,2.39-2.28,3.36-.71.98-1.31,1.83-1.83,2.48,1.26-1.77,2.48-3.58,3.66-5.41-.17.19-.79,1.11-2.03,2.85l-1.04,1.48-1.29,1.76c-.47.66-1.01,1.36-1.57,2.12-.29.38-.58.78-.9,1.18l-.99,1.25c-.86,1.09-1.61,1.95-1.81,2.23-.11.15-.04.1.24-.2l-1.06,1.19c-.76.79-1.53,1.59-2.31,2.37l1.21-1.31.87-.93c.31-.35.64-.73.98-1.14l1.11-1.29,1.17-1.46c.83-1,1.64-2.13,2.52-3.27,1.7-2.34,3.46-4.91,5.1-7.47,1.64-2.56,3.2-5.09,4.53-7.27-.82,1.4-2.27,3.79-3.38,5.57-1.11,1.78-1.87,2.95-1.14,1.96,1.25-1.93,2.45-3.86,3.6-5.78,1.17-1.93,2.34-3.83,3.38-5.79,1.04-1.96,2.05-3.93,2.93-5.95.88-2.02,1.7-4.07,2.39-6.16-.14.43-.27.84-.4,1.22s-.27.75-.39,1.1c-.13.35-.24.68-.35,1l-.34.89c-.43,1.14-.8,2.03-1.13,2.8.26-.56.5-1.08.72-1.56.22-.48.39-.93.57-1.35.36-.82.61-1.52.84-2.12.47-1.19.69-2.01.93-2.75.42-1.5.83-2.69,1.63-6.36.63-2.77.87-4.72.65-2.84.34-2.22.55-4.45.63-6.69,0-1.09.05-2.16,0-3.23l-.04-1.6-.1-1.6c-.12-2.14-.39-4.29-.71-6.51-.32-2.22-.82-4.5-1.43-6.91,0,0,.18.68.41,1.6.24.93.5,2.11.72,3.1.39,2,.65,3.24.15.19-.75-3.75-1.76-7.43-3.04-11.03-1.06-3.04-2.11-5.61-3.19-8.24-1.08-2.63-2.14-5.3-3.62-8.34-1.78-3.67-3.85-7.17-6.22-10.49l-1.26-1.71c-.42-.57-.88-1.11-1.32-1.66-.87-1.12-1.82-2.14-2.74-3.19-1.86-2.04-3.84-3.96-5.95-5.75-2.05-1.74-4.2-3.33-6.46-4.78-2.2-1.37-4.49-2.58-6.86-3.62-2.27-1-4.61-1.84-7.01-2.49-2.27-.64-4.58-1.15-6.9-1.54-4.24-.7-8.51-1.13-12.8-1.28-.44,0,2.53.18,4.3.36.41.02.81.06,1.21.14-.27,0-1.4-.12-3.96-.27.9,0-.65-.13-2.47-.22s-3.94-.15-4.2-.17c-4.47-.04-8.92.16-13.37.61-3.64.36-7.22,1.03-10.75,2.01.88-.29-.24.03-2.08.56l-1.51.43c-.53.17-1.07.38-1.63.58l-1.66.61-.81.29c-.26.1-.51.22-.75.33.54-.32-2.28.93-3.38,1.4-.53.28-.66.31.25-.17l2.28-1.08.87-.41c.34-.16.69-.3,1.05-.43l2.53-.98-2.89,1.12-2.74,1.26-1.34.62-1.28.7-2.51,1.35-2.37,1.47-1.16.73-1.1.78-2.17,1.54c-.7.52-1.36,1.08-2.04,1.62-5.09,4.07-9.48,8.78-13.19,14.14l.65-.82c-1.88,2.51-3.59,5.12-5.14,7.85.08-.13.15-.26.23-.39l1.23-2.03.68-1.12c.26-.37.53-.76.8-1.16-.9,1.24-1.63,2.53-2.42,3.8l-.58.96c-.19.32-.36.66-.53.99l-1.05,1.99.85-1.61c.14-.26.28-.53.43-.81-.58,1.01-1.11,2.03-1.61,3.05l.33-.63c-1.24,2.43-2.33,4.92-3.27,7.48-.21.57-.47,1.13-.66,1.77l-.67,2.09c-.54,1.51-.98,3.36-1.62,5.73.25-1.03.53-2.16.82-3.36.13-.6.32-1.2.51-1.8s.38-1.22.57-1.84c.35-1.24.84-2.43,1.26-3.58.22-.58.42-1.14.63-1.68l.67-1.52-.71,1.54c-.2.52-.41,1.06-.62,1.6-.2.54-.41,1.06-.6,1.57l-.3.81-.26.85c-.34,1.11-.69,2.23-1.03,3.36-.33,1.13-.55,2.31-.84,3.47-1.01,4.79-1.61,9.63-1.8,14.52-.01-.19-.01-.38,0-.57v-.53c0-.2.03-.43.04-.66.07-.94.16-2.13.24-3.22.23-2.15.47-3.89.22-2.44-.06.44-.12.87-.18,1.3-.06.43-.12.86-.14,1.29-.07.85-.13,1.7-.2,2.53-.05.42-.05.83-.1,1.24l-.03,1.23c0,.82-.04,1.63-.05,2.43v1.21l.04,1.21c0,.8.05,1.59.08,2.4.13,1.59.24,3.2.41,4.83-.06-.3-.11-.61-.15-.93.08,1.1.23,2.07.33,2.95.09.88.18,1.67.32,2.37.25,1.4.44,2.44.59,3.27.34,1.63.56,2.31.7,2.85.34,1.08.36,1.62,2.19,7.78-.09-.4.47,1.14.23.37l.62,1.93c.26.69.53,1.43.8,2.15s.52,1.44.79,2.08c.26.64.51,1.21.7,1.67.39.94.57,1.4.38,1.01-.1-.19-.29-.6-.6-1.28-.18-.39-.41-.87-.66-1.45,2.19,5.25,5.14,10.56,6.81,12.87-1.37-2.18-2.13-3.6-2.7-4.67-.57-1.07-.89-1.81-1.29-2.7,1.77,3.69,3.91,7.17,6.41,10.41,1.26,1.6,2.65,3.08,4.17,4.44,1.53,1.34,3.16,2.55,4.89,3.64,2.13,1.29-1.14-.51-3.69-2.56,2.57,2.06,5.33,3.84,8.28,5.31,3.23,1.65,6.59,3.09,9.99,4.46,6.89,2.8,13.99,4.94,21.29,6.41,7.53,1.52,15.13,2,22.8,1.45,7.99-.62,15.63-2.6,22.91-5.95-1.68.72-1.15.47.15-.16l2.29-1.21c.82-.47,1.64-.98,2.31-1.37,2.48-1.51,4.82-3.22,7.03-5.11,1.15-1.05,2.34-2.12,3.44-3.3,1.11-1.18,2.18-2.41,3.2-3.67,4.07-5.08,7.44-10.59,10.13-14.67l-1.63,2.66c3.4-5.28,6.46-10.22,8.46-15.25.98-2.42,1.69-4.91,2.14-7.47.38-2.42.52-4.85.4-7.29-.2-4.74-1.08-9.17-1.98-13.42s-1.92-8.31-3.12-12.28c-.27-.76.14.09.98,2.96-1.7-5.88-3.9-12.25-6.33-17.29-1.63-3.6-3.6-6.99-5.93-10.17l1.24,1.87c.41.63.79,1.28,1.18,1.92-1.54-2.65-3.29-5.16-5.23-7.53-.49-.6-.99-1.2-1.48-1.8-.24-.3-.51-.58-.78-.86l-.81-.84-1.62-1.7c-.56-.55-1.15-1.06-1.73-1.59-4.74-4.29-9.99-7.83-15.75-10.61-5.8-2.82-11.87-4.78-18.22-5.89-6.26-1.09-12.54-1.28-18.86-.56-1.45.15-1.29.11-.3-.03.49-.06,1.18-.19,1.99-.25l2.64-.15,1.37-.09h3.42c1.08,0,1.4-.02.12-.08l-3.25-.05c-1.08.04-2.17.12-3.27.17-.54.04-1.09.04-1.63.11l-1.62.21-1.62.21c-.54.06-1.08.15-1.62.26l-3.22.65c-.54.09-1.07.27-1.6.41l-3.19.89-1.56.55-1.57.56c-.52.19-1.05.35-1.56.59l-3.07,1.33c-.52.2-1.01.47-1.51.73l-1.5.77-1.49.78-1.46.87-1.47.87c-.47.3-.98.58-1.44.94l-2.84,1.91c-.93.67-1.82,1.4-2.75,2.11-.47.36-.93.7-1.36,1.09l-1.31,1.15c-.84.78-1.78,1.53-2.59,2.38.54-.55.91-.93,1.21-1.18l.61-.56.98-.88c-.87.78-1.67,1.4-2.3,2.04l-1.6,1.59c-.89.89-1.45,1.44-1.74,1.81-.61.7-.36.47-.05.13.31-.33.68-.7.32-.27-.18.22-.54.64-1.18,1.4l-1.19,1.36c-.24.27-.47.58-.74.94-.27.36-.54.69-.84,1.09.23-.36.22-.39-.24.19l-1.08,1.3c-.47.63-1.05,1.51-1.8,2.59-.87,1.28-1.58,2.66-2.34,4.01-.4.65-.42.51.72-1.53-2.96,5-5.23,10.29-6.82,15.89-.42,1.65-.93,3.27-1.17,4.88-.16.8-.31,1.58-.47,2.34-.16.76-.21,1.5-.31,2.21l-.25,2.03c-.09.64-.09,1.24-.13,1.8-.06,1.12-.11,2.05-.14,2.74-.14,1.4,0-2.52-.21-.35-.18,3.65-.05,7.29.37,10.93.1.79.19,1.56.29,2.34.09.77.27,1.48.39,2.2.12.72.27,1.43.4,2.12.13.69.34,1.4.5,2.06v-.03c.52,2.91,2.14,7.76,3.68,11.41,1.04,2.44,2.04,4.33,2.36,4.92l-.09-.17,1.19,2.23,1.04,1.65c.59.93,1.01,1.62,1.31,2.08.25.38.53.75.84,1.09.06.05.06,0,.47.52l.98,1.29.38.51.47.57,1.24,1.42c-2.25-2.63-4.24-5.45-5.98-8.44l.53.85c.47.75.93,1.51,1.43,2.24l1.56,2.14.78,1.07c.28.34.57.68.85,1.02l1.71,2.03c.27.34.59.65.9.97l.93.93.93.94c.11.12.22.23.33.34-1.18-1.14-2.31-2.31-3.41-3.53,3.29,3.77,6.98,7.1,11.06,10,4.4,3.13,9.11,5.71,14.12,7.72l-2.36-1.08c-.79-.36-1.58-.7-2.34-1.14.94.52,1.95.9,2.94,1.34.98.44,1.96.88,2.98,1.22l3.04,1.09,3.09.9c.15.07.5.2,1,.35l1.87.47c.73.17,1.53.37,2.34.54l2.41.39c.77.12,1.46.26,2.03.32l1.22.13c.47.06.07.07-1.7-.06,5.55.75,11.09.72,16.63-.08,4.92-.7,9.7-1.94,14.34-3.74,4.51-1.72,8.84-3.82,12.97-6.31,4.44-2.65,8.59-5.68,12.46-9.11-1.4,1.27-1.87,1.63-2.02,1.77-.15.14,0,.04-.29.29,4.96-4.01,8.3-7.97,10.57-11.8,2.02-3.51,3.51-7.23,4.48-11.17-.18.76-.47,1.87-.77,2.8-.13.47-.28.87-.37,1.17s-.16.49-.15.51c.93-2.54,1.65-5.13,2.18-7.78.18-.9.31-1.64.42-2.34s.16-1.28.24-1.9c.08-.62.16-1.25.25-1.97.06-.36.08-.75.11-1.18s.06-.88.1-1.4c.06-1.01.2-2.2.18-3.66,0-.73,0-1.52.03-2.39v-.67c0-.21,0-.47-.03-.7,0-.47-.04-.97-.06-1.49.06,1.15.12,1.92.13,2.36s0,.55.03.37c.06-.35,0-1.87-.09-4.12,0,.7-.29-3.13-.73-6.15.07.39.13.73.19,1.04s.08.57.11.8c.06.47.11.76.14.93.06.36.07.2.03-.32,0-1.04-.39-3.5-.8-6.07-.27-1.29-.54-2.61-.78-3.81-.24-1.2-.58-2.25-.77-3.04-.39-1.58-.47-2.04.1-.15-1.21-4.1-2.69-8.08-4.47-11.97l-.86-1.87c-.3-.59-.6-1.14-.87-1.67-.55-1.03-1-1.92-1.36-2.52-.6-.99-.8-1.28-.34-.43-2.92-5.22-6.33-10.1-10.22-14.64-1.98-2.31-4.12-4.46-6.43-6.45-2.33-2.02-4.87-3.72-7.63-5.11-1.38-.69-2.81-1.27-4.29-1.73-1.49-.48-3.01-.85-4.55-1.11-3.14-.52-6.3-.75-9.47-.68-3.21.04-6.44.27-9.69.58-3.26.31-6.54.7-9.81,1.24,1.13-.22,4.35-.69,6.44-.93,2.1-.24,3.06-.37-.34-.02-3.27.37-6.37.84-9.31,1.4-2.83.54-5.62,1.24-8.37,2.09-5.12,1.53-9.91,3.79-14.36,6.75-2.16,1.48-4.18,3.12-6.07,4.93l-1.45,1.37-1.4,1.47c-.93.96-1.78,2.05-2.68,3.11-1.79,2.26-3.4,4.63-4.84,7.13-.8,1.28-1.45,2.66-2.17,4.05-.34.71-.64,1.44-.98,2.17-.16.37-.34.73-.47,1.11l-.44,1.15c-.08.13,0-.19.25-.86.11-.33.28-.74.49-1.22l.72-1.63c1.4-3.04,3.06-5.92,4.98-8.67,2.01-2.84,4.23-5.51,6.67-7.99l1.46-1.4c.44-.42.82-.8,1.17-1.09.69-.59,1.12-.98,1.2-1.08-.66.57-1.36,1.11-1.99,1.71l-1.91,1.81c-1.21,1.27-2.44,2.53-3.54,3.9l-.85,1.01-.81,1.06-.79,1.06-.4.53-.38.54-1.47,2.21-1.35,2.3c-1.75,3.12-3.21,6.37-4.38,9.76-1.17,3.43-1.95,6.94-2.36,10.55-.43,3.65-.43,7.29,0,10.94.4,3.71,1.08,7.36,2.03,10.97,2.02,7.4,4.87,14.47,8.55,21.19,1.2,2.44,2.75,5.31,4.64,8.46l1.47,2.41c.5.84,1.04,1.64,1.64,2.41,1.29,1.64,2.66,3.19,4.12,4.67,1.54,1.59,3.15,3.1,4.85,4.53,1.76,1.46,3.69,2.66,5.79,3.57,1.06.47,2.16.9,3.27,1.29.56.2,1.12.39,1.69.56l1.72.47,1.73.47.87.25c.29.08.58.13.88.19l3.53.74c-.47-.12-.19-.07.61.04.79.11,2.14.23,3.86.44l.66.08c.23,0,.47.02.7.04l1.5.08,1.61.08c.57.05,1.14.06,1.71.04l3.65-.05c.31,0,.63,0,.93-.05l.98-.05,1.93-.16c-.89.09-.87.11-.39.09l1.01-.06c.46-.02.91-.06,1.36-.13,1.91-.26,3.88-.53,2.37-.28.57-.09,1.2-.18,1.87-.3l2.2-.49,2.46-.55,2.62-.76c1.82-.47,3.65-1.19,5.52-1.87.93-.31,1.83-.74,2.73-1.12.9-.38,1.8-.77,2.66-1.16l2.48-1.28c.79-.43,1.6-.78,2.29-1.23,1.4-.86,2.71-1.6,3.74-2.27,2.03-1.4,3.27-2.21,3.07-2.02.47-.36,1.63-1.37,3.23-2.68.4-.34.84-.67,1.26-1.07l1.32-1.25c.9-.87,1.94-1.76,2.83-2.8,1.84-2.11,3.32-4.46,4.42-7.03.95-2.16,1.77-4.36,2.46-6.61.97-2.93,1.63-5.93,1.96-8.99.33-3.07.33-6.13,0-9.2-.17-1.64-.45-3.27-.84-4.88-.39-1.63-.85-3.31-1.28-4.99-.87-3.37-1.75-6.83-2.74-10.32.61,2.49-.29-1.02-1.85-5.67-.79-2.34-1.77-4.92-2.78-7.21-.51-1.14-1-2.21-1.47-3.13l-.24-.47.31.59c.38.76.62,1.29.47.93-1.54-3.33-3.37-6.49-5.51-9.47-.34-.47-.66-.96-1.03-1.43l-1.09-1.4-.54-.7-.57-.66c-.4-.44-.79-.87-1.22-1.28-1.6-1.56-3.27-3.03-5.03-4.41-1.44-1.16-1.26-1.03-1.28-1.09-.14-.15-.3-.28-.47-.39-.37-.29-1.04-.79-2.27-1.65,0,0-.32-.2-.85-.54s-1.29-.83-2.23-1.4c-1.08-.66-2.2-1.24-3.37-1.73-1.42-.56-2.88-.99-4.37-1.3-6.35-1.4-13.96-1.61-18.01-1.49,1.87-.07,2.84-.06,3.61-.08.78-.01,1.36,0,2.52,0-2.42-.1-4.84-.08-7.26.06-2.42.18-4.87.44-7.3.75-4.91.58-9.71,1.64-14.4,3.18-1.18.37-2.31.86-3.46,1.31-1.12.52-2.27.98-3.35,1.59-2.2,1.14-4.29,2.46-6.27,3.95-3.92,3.03-7.55,6.54-10.11,10.82-2.63,4.3-4.47,8.91-5.52,13.84l-.4,1.83c-.11.62-.2,1.23-.3,1.87-.22,1.24-.33,2.48-.47,3.74-.08.62-.1,1.25-.13,1.87l-.09,1.87v1.87c0,.63,0,1.25.03,1.87.18,4.99.97,9.87,2.37,14.66.36,1.19.7,2.38,1.12,3.55.42,1.17.85,2.34,1.29,3.48.93,2.29,1.93,4.55,3.08,6.74-1.11-2.03-2.09-4.15-3.02-6.29,1.64,4.11,3.59,8.07,5.83,11.89,1.51,2.58,2.53,4.15,3.47,5.61l3.11,4.67,2.34,3.57,1.5,2.34c.61.91,1.27,1.79,1.97,2.63,1.06,1.27,2.2,2.5,3.37,3.66,1.11,1.17,2.36,2.18,3.74,3.04,1.44.73,2.96,1.14,4.57,1.22,1.65.1,3.31.06,4.96-.1,6.74-.58,13.5-1.29,20.25-2.13,3.37-.43,6.76-.87,10.11-1.36,3.36-.44,6.65-1.16,9.88-2.15,3.23-.98,6.14-2.54,8.75-4.67,2.58-2.15,4.64-4.84,6.49-7.65.93-1.4,1.81-2.86,2.68-4.32.87-1.46,1.74-2.92,2.57-4.39,1.71-2.9,3.11-5.94,4.21-9.12.53-1.58.9-3.2,1.12-4.85.21-1.65.27-3.31.18-4.97-.23-3.34-.72-6.64-1.49-9.9-1.4-6.54-3-13.08-5.6-19.13-.65-1.51-1.36-2.99-2.16-4.43-.38-.73-.82-1.4-1.24-2.13l-1.35-2.04c-1.89-2.67-4.02-5.12-6.39-7.37-1.4-1.28-1.02-.89-.22-.13l.65.62c.22.22.44.47.64.68.4.43.74.8.84.93-1.53-1.65-2.6-2.64-3.81-3.74-.64-.53-1.29-1.1-2.12-1.76l-1.4-1.02-.81-.58-.93-.58c.36.27.74.53,1.09.83-2.67-1.88-5.48-3.5-8.46-4.85-3.4-1.55-6.94-2.68-10.62-3.38-3.95-.75-7.93-.95-11.94-.58-4.1.39-8.09,1.26-11.98,2.63-7.36,2.64-14,6.51-19.91,11.63-.69.56-1.32,1.15-1.94,1.72-.63.58-1.24,1.14-1.81,1.72-1.1,1.09-2.12,2.24-3.06,3.47-.84,1.08-1.56,2.24-2.18,3.47-.28.55-.52,1.11-.73,1.69-.21.55-.4,1.11-.58,1.63-1.74,5.12-2.54,10.38-2.42,15.78.09,2.55.35,5.07.77,7.59.38,2.52.9,5.01,1.54,7.47.67,2.54,1.53,5.02,2.59,7.42,1.08,2.46,2.37,4.93,3.7,7.48.67,1.28,1.35,2.59,2.05,3.93l1.07,2.06.55.98.62.97c1.87,2.7,4,5.17,6.4,7.41.77.76,1.26,1.22,1.51,1.44s.26.26.12.15c-.13-.12-.43-.36-.78-.67-.35-.31-.76-.7-1.15-1.07l-1.45-1.4.15.17c.1.11.26.27.47.47.44.47,1.14,1.16,2.22,2.16,1.58,1.44,3.24,2.77,4.99,4,1.72,1.25,3.59,2.21,5.61,2.89,1,.32,2.03.57,3.06.76,1.04.18,2.09.31,3.15.39,1.98.15,3.97.16,5.96.14,2.84-.04,5.87-.09,9.06-.25,3.72-.16,7.4-.59,11.05-1.31l1.4-.31c.47-.11.93-.25,1.4-.37.93-.23,1.87-.58,2.83-.88.47-.16.93-.37,1.4-.55l.7-.27c.23-.1.47-.22.69-.32l1.36-.66,1.32-.76c.22-.13.44-.25.66-.39l.63-.43c.41-.3.86-.57,1.26-.89.79-.65,1.61-1.29,2.34-2.02,1.5-1.49,2.84-3.11,4.03-4.86,1.21-1.75,2.3-3.61,3.36-5.51,1.06-1.9,2.09-3.82,3.09-5.74,1.99-3.85,3.78-7.84,4.41-12.05s.31-8.48-.53-12.5c-.43-1.99-.98-3.95-1.66-5.87-.65-1.86-1.41-3.69-2.26-5.47l.57,1.19c.09.16,0-.09-.24-.62l-.43-1c-.18-.39-.4-.83-.63-1.31-.93-1.91-2.36-4.43-3.62-6.61-.93-1.49.78,1.44,2.19,4.11-1.69-3.04-3.27-5.75-4.82-8.15-1.41-2.2-2.97-4.3-4.67-6.28-1.46-1.68-3.04-3.24-4.74-4.67-1.5-1.29-3.11-2.42-4.82-3.42-.82-.5-1.68-.89-2.52-1.32-.83-.43-1.69-.78-2.62-1.1-1.83-.7-3.7-1.26-5.61-1.67-2.1-.48-4.23-.77-6.38-.88-2.49-.15-4.97-.01-7.43.41.57-.11,1.04-.19,1.4-.23l.86-.11c.4-.05.47-.07.26-.05l-1.26.12c-.62.05-1.38.22-2.23.35-.84.21-1.76.4-2.66.69-.47.13-.9.29-1.33.44-.43.15-.85.29-1.24.47l-1.1.43-.85.35c-.53.22-.88.37-.99.41-1.29.63-1.73.9-1.87.99-.14.08.05,0,.03.04-.02.04-.24.14-1.14.65-.9.52-2.51,1.4-5.14,3.23-1.86,1.28-3.64,2.66-5.33,4.14-1.65,1.46-3.21,3.02-4.67,4.67-2.91,3.15-5.36,6.62-7.35,10.42-.94,1.82-1.67,3.73-2.18,5.72-.49,1.94-.66,3.9-.52,5.9.15,1.95.5,3.87,1.05,5.75.51,1.87,1.14,3.68,1.79,5.47.55,1.44,1.16,2.99,1.71,4.54s1.07,3.07,1.53,4.42c.93,2.7,1.65,4.67,1.78,4.85.87,2.42,1.78,4.67,2.77,6.78.93,2.03,2.05,3.96,3.35,5.77,1.23,1.72,2.65,3.25,4.28,4.6,1.63,1.31,3.43,2.32,5.39,3.03,3.96,1.46,8.41,2.08,13.33,2.24,2.47.08,5.07.03,7.84-.1,1.4-.08,2.83-.15,4.29-.28,1.51-.13,3-.35,4.48-.66l.64-.1c2.04-.51,4.04-1.16,6-1.93,2.38-.94,4.68-2.06,6.9-3.34,2.08-1.22,3.97-2.69,5.66-4.41.67-.71,1.3-1.45,1.89-2.23l.72-.96c.22-.29.37-.58.53-.83-.08.15-.23.41-.4.7l-.59.86c-.39.54-.67.94-.47.7,2.34-3.03,4.08-6.37,5.22-10.02-.81,2.56-1.72,4.47-1.78,4.74-.02.06,0,.03.11-.13s.22-.47.43-.88l.36-.75c.16-.33.29-.66.41-1,.15-.37.3-.79.47-1.25.17-.46.31-.99.47-1.55.36-1.17.5-2.04.64-2.63.09-.35.15-.7.19-1.06,0-.28-.03.21-.2.84-.31,1.26-.76,3.13-.27.8.13-.47.28-.94.39-1.4l.31-1.44c.23-1.47.35-2.95.37-4.44.02-.44.02-.87,0-1.31,0-.32-.03-.53-.05-.61-.09-.28.07,1.1-.32,4.59.29-2.68.29-5.36,0-8.05-.36-3.11-.96-6.17-1.82-9.18-1.72-5.97-4.19-11.6-7.41-16.9-1.57-2.59-3.28-5.09-5.14-7.47-1.82-2.33-4-4.25-6.54-5.76-2.44-1.49-5.05-2.57-7.83-3.23-2.78-.66-5.6-.88-8.45-.65.41-.05.79-.08,1.18-.12s.78-.08,1.17-.08c-.38,0-.77,0-1.16.04s-.78.04-1.19.08l-2.49.17c-1.69.09-3.37.29-5.03.61-1.68.33-3.31.81-4.91,1.44-1.58.63-3.15,1.37-4.67,2.08-2.83,1.31-5.5,2.88-8.02,4.71-1.91,1.38-3.6,2.98-5.09,4.81-.22.26-1.87,2.77-.74,1.18-.13.19-.26.36-.38.55l-.31.5c-.2.34-.41.66-.58.98-.31.64-.63,1.17-.83,1.66l-.53,1.28-.37.93c-.4,1.03-.51,1.24-.62,1.5-.12.26-.26.55-.68,1.75-.21.6-.47,1.4-.83,2.58-.04.12-.07.24-.1.36.16-.57.32-1.12.47-1.64.55-1.77,1.05-3.12,1.14-3.45-.9,2.37-1.65,4.78-2.25,7.23-.59,2.45-.87,4.92-.84,7.44.12,2.52.49,4.99,1.11,7.43.57,2.46,1.26,4.9,2.06,7.3,0,.08.35,1.25,1.03,3.1.68,1.85,1.65,4.41,3.52,6.89,2.02,2.74,4.35,5.17,7.01,7.3,2.67,2.17,5.6,3.92,8.79,5.24.12.04,0-.03-.3-.16-.3-.13-.77-.33-1.32-.64-1.37-.69-2.71-1.45-3.99-2.3,2.29,1.47,4.72,2.68,7.29,3.6,1.94.79,3.95,1.34,6.03,1.65.98.13,1.96.16,2.95.22.98.06,1.98.04,2.96,0,.98-.04,1.97-.12,2.96-.2s1.96-.21,2.93-.39l.23.11c1.08-.15,2.07-.37,3-.55s1.78-.41,2.58-.66,1.55-.47,2.25-.71c.36-.13.71-.24,1.05-.37l1-.4c1.3-.53,2.56-1.14,3.79-1.83,1.33-.81,2.53-1.77,3.6-2.89,1.98-2.03,3.6-4.32,4.87-6.85.94-1.84,1.69-3.74,2.27-5.72.27-.83.47-1.61.62-2.34.08-.36.18-.71.24-1.05.06-.35.12-.67.18-1,.11-.64.24-1.24.29-1.81.03-.29.06-.57.1-.84.03-.27.03-.55.05-.81.11-2.2-.07-4.38-.53-6.54-.25-1.25-.59-2.64-1.08-4.28-.49-1.64-1.12-3.53-1.83-5.8-.12-.25-.34-.88-.65-1.82s-.68-2.16-1.15-3.58c-1.09-3.41-2.47-6.71-4.14-9.88-.92-1.71-2.01-3.3-3.27-4.78-1.15-1.37-2.43-2.6-3.85-3.69-1.88-1.45-3.96-2.48-6.26-3.1-.75-.21-1.51-.37-2.28-.47-.8-.1-1.6-.16-2.41-.17-.41-.02-.83-.02-1.24,0l-1.25.05c-.84.1-1.69.16-2.54.29-3.57.57-7.01,1.57-10.33,3-.87.34-1.69.79-2.55,1.19-.86.4-1.66.91-2.5,1.38-1.67,1.01-3.24,2.16-4.71,3.43-.75.64-1.46,1.32-2.14,2.04-.34.36-.64.75-.93,1.13l-.47.57c-.15.2-.27.41-.41.62-.27.42-.56.82-.82,1.25-.26.43-.5.87-.72,1.33-.47.9-.88,1.83-1.28,2.77-1.52,3.87-2.61,7.87-3.27,11.97-.19,1.04-.36,2.08-.47,3.1-.08,1.04-.09,2.09-.04,3.13.1,2.11.37,4.19.8,6.25.41,2.06.99,4.07,1.74,6.03.72,1.97,1.72,3.77,3.02,5.42,2.71,3.22,5.98,5.72,9.81,7.48l-1.22-.58-1.2-.64c1.37.8,2.79,1.49,4.27,2.06,1.22.48,2.47.87,3.74,1.19,2.1.54,4.24.86,6.41.94,2.24.05,4.47-.07,6.69-.36,3.08-.37,6.11-1,9.08-1.87-.6.19-1.21.38-1.82.53-.61.15-1.22.34-1.84.47,2.59-.54,5.12-1.31,7.57-2.3,1.34-.55,2.62-1.21,3.85-1.98,1.26-.83,2.36-1.83,3.3-3.01.94-1.26,1.72-2.61,2.34-4.05.62-1.5,1.1-3.04,1.44-4.62.36-1.61.59-3.23.71-4.88.39-4.99-.15-9.88-1.64-14.66-.97-3.02-2.24-5.9-3.82-8.65-.75-1.33-1.49-2.67-2.25-3.89-.75-1.18-1.6-2.29-2.54-3.32-1.71-1.86-3.63-3.46-5.77-4.8.8.47,1.27.83,1.49.96.22.13.17.08-.13-.14l-.63-.47-1.02-.67c-1.03-.65-2.11-1.2-3.24-1.68-2.34-.87-1.21-.38-.72-.17.24.11.33.15-.24-.05l-.56-.2-.87-.26c-.34-.12-.76-.18-1.24-.3-.48-.12-1.04-.16-1.67-.25,1.25.15,1.4.14.93.06l-1.12-.17c-.47-.05-1.04-.04-1.62-.07-1.69.04-3.35.29-4.98.75-.82.22-1.61.48-2.4.79-.4.14-.77.34-1.16.5s-.77.33-1.14.54c-3.06,1.52-5.79,3.5-8.18,5.95-1.22,1.24-2.33,2.59-3.31,4.03-.47.74-.94,1.47-1.36,2.27l-.65,1.17-.59,1.2c-1.63,3.25-2.78,6.65-3.45,10.22l-.22,1.34c-.08.47-.09.9-.14,1.35-.05.45-.1.9-.1,1.36v1.36c-.01.45,0,.91.05,1.36l.11,1.36.23,1.35.11.67c.05.22.12.44.18.66.44,1.77,1.1,3.46,1.97,5.07.87,1.61,1.93,3.08,3.17,4.42,2.53,2.69,5.47,4.78,8.84,6.29,3.29,1.53,6.74,2.48,10.34,2.85,3.52.4,7,.13,10.42-.79,2.45-.7,2.73-.93,2.34-.71-.2.11-.59.25-1.01.41-.41.16-.85.3-1.14.39.66-.17,1.3-.42,1.95-.65.64-.23,1.26-.52,1.87-.84,1.23-.61,2.37-1.35,3.43-2.22,2.11-1.77,3.8-3.88,5.08-6.32,2.59-4.8,3.48-10.36,3.05-15.68-.21-2.64-.74-5.21-1.58-7.71-.85-2.51-1.99-4.87-3.41-7.1-1.39-2.16-3.06-4.08-5-5.76-1.93-1.6-4.07-2.84-6.42-3.69-.3-.15-.62-.25-.93-.38-.32-.13-.62-.26-.94-.36-.99-.25-1.99-.43-3.01-.53l-1.17-.09h-.98c-.53,0-1.06.03-1.59.08-.47,0-.91.11-1.37.18-.23.04-.47.06-.71.11l-.78.17c-.56.1-1.17.29-1.93.51-2.19.69-4.26,1.63-6.21,2.84-1.15.79.49-.5,3.1-1.71.65-.29,1.35-.61,2.08-.86s1.47-.47,2.18-.68c1.19-.3,2.41-.5,3.63-.6-2.04.12-4.02.54-5.94,1.25-1.32.47-2.59,1.05-3.81,1.74-.84.47-1.64.98-2.41,1.56-.59.43-1.15.9-1.68,1.4-1.19,1.11-2.22,2.36-3.08,3.74l-.93,1.54c-.32.58-.67,1.21-1.04,1.92-.87,1.73-1.59,3.53-2.16,5.38.08-.4.23-.78.33-1.17s.22-.78.36-1.16c.29-.76.55-1.53.89-2.27-1.31,2.61-2.17,5.35-2.59,8.24-.05.57-.15,1.09-.16,1.6-.01.51-.03.98-.05,1.44.02.82.08,1.63.19,2.43.05.36.1.71.15,1.03.05.33.15.64.22.93.08.3.14.59.22.87.08.28.19.55.28.81l.27.8.35.78c.11.27.23.53.35.81.12.27.29.54.43.82.26.54.56,1.05.88,1.56l.47.71c.14.23.29.45.47.66l.93,1.21c.31.37.64.72.94,1.05l.44.47c.15.15.31.3.47.47l.87.83c.57.52,1.14.93,1.65,1.4,1.83,1.4,3.81,2.56,5.93,3.48,1.11.48,2.25.87,3.42,1.19,1.5.39,3.04.63,4.59.7l.69.03h.72l1.52-.07c1.14-.12,2.27-.33,3.37-.64,2.87-.8,5.4-2.2,7.6-4.21,1.54-1.5,1.24-1.29.97-1.07-.14.11-.28.22-.2.12.09-.1.15-.15.32-.35.17-.2.42-.49.76-.9,1.38-1.63,2.52-3.4,3.43-5.33.2-.43.37-.87.55-1.29.09-.21.18-.41.26-.63.08-.21.13-.42.2-.62.13-.42.27-.82.39-1.22.13-.4.19-.8.28-1.18.66-2.79.73-5.59.22-8.41-.47-2.25-1.26-4.38-2.37-6.39-1.11-2.01-2.49-3.82-4.15-5.41-.36-.32-.69-.68-1.09-.99l-1.22-.93-1.35-.93c-.47-.3-1-.55-1.51-.84-2.25-1.14-2.94-1.24-2.67-1.2.32.08.63.17.93.29l1.5.64,1.4.75c.4.2.65.4.72.43s-.49-.52-3.02-1.68c2.25.97,4.28,2.28,6.08,3.93,1.81,1.65,3.3,3.55,4.48,5.69-.5-.91-1.05-1.79-1.67-2.63-.33-.47-.38-.53-.24-.36.9,1.12,1.68,2.32,2.34,3.6.98,1.88,1.68,3.85,2.11,5.92.15.87.23,1.6.3,2.04.08.44.05.6.06.36-.17-2.67-.84-5.21-2-7.62-1.33-2.78-3.15-5.19-5.46-7.24-.3-.28-.61-.53-.94-.76l-.93-.73-1.04-.65-.51-.33-.53-.29-1.07-.56c-.37-.16-.75-.31-1.12-.47l-.56-.23c-.19-.08-.38-.12-.58-.19l-1.15-.36c-3.13-.79-6.25-.78-9.38.03.19-.08.38-.13.59-.16.37-.08.89-.22,1.51-.3l.99-.11c.36-.05.71-.07,1.07-.07.74-.03,1.47,0,2.21.07l1.03.1c.32.05.62.12.9.18.55.12.99.18,1.25.27.25.09.36.09.21.03l-.4-.14c-.2-.06-.47-.12-.82-.21-1.79-.38-3.6-.49-5.42-.32l.22-.03c.16,0,.33-.05.5-.06h1.93l.97.1c.41.03.82.09,1.23.18l-.47-.11-.52-.07-1.23-.15c-1.04-.06-2.09-.02-3.12.1-2.74.36-5.34,1.17-7.78,2.45-.3.22-.09.18,1.22-.34l-.88.4c-.36.17-.7.36-1.03.57l-1.05.63-1.04.73c-.18.12-.36.24-.53.37l-.51.42c-1.46,1.15-2.74,2.47-3.87,3.95-.28.39-.59.76-.85,1.17l-.76,1.25c-.48.87-.89,1.77-1.22,2.7-.7,1.89-1.05,3.85-1.03,5.86.05,1.99.4,3.92,1.04,5.8.64,1.78,1.5,3.44,2.57,5l.8,1.07c.26.36.57.66.84.98.55.62,1.14,1.21,1.76,1.76.29.27.61.5.91.74.29.24.58.49.89.68l.9.59.33.21c-.51-.27.38.29.77.51l.61.33.31.17.32.14,1.29.55c.89.33,1.79.58,2.72.77.95.19,1.91.32,2.87.37,1,.03,2,0,2.99-.09,2.12-.19,4.15-.73,6.08-1.63,1.01-.5,1.98-1.08,2.88-1.76.94-.73,1.79-1.56,2.57-2.46.87-1.01,1.13-1.4,1.29-1.57s.13-.08.29-.29c.47-.64.85-1.33,1.16-2.06.43-.93.78-1.89,1.06-2.87.48-1.58.77-3.19.85-4.83,0-.7-.05-.79-.08-.73-.03.06-.05.25-.08.13s-.02-.56-.24-1.77l-.2-1.08c-.08-.41-.21-.87-.34-1.4-.3-1.1-.68-2.16-1.15-3.19l.16.33.26.63c.41,1.02.75,2.06,1,3.13.15.51.2,1,.29,1.36.08.37.13.64.14.74,0,.1.03.05,0-.22-.03-.27-.12-.77-.24-1.54-.43-2.09-1.17-4.05-2.23-5.9-.35-.62-.74-1.21-1.16-1.78-.13-.19-.25-.36-.44-.59-.19-.22-.41-.51-.77-.89-.48-.51-1-.99-1.56-1.43-.36-.29-.78-.58-1.29-.93l-.79-.51c-.28-.18-.59-.32-.94-.5-1.41-.62-2.88-1.01-4.41-1.19-1.53-.18-3.05-.13-4.57.15-1.08.2-2.13.51-3.15.93-.58.25-1.13.56-1.65.94-1.91,1.02-2.59,1.4-3.68,2.11-.53.36-1.18.78-2.05,1.49-.51.41-1,.85-1.46,1.32-.63.63-1.18,1.31-1.66,2.06.26-.37.32-.47.24-.3-.08.17-.34.52-.6,1.09-.35.7-.62,1.44-.81,2.2-.11.48-.19.96-.24,1.44-.03.25-.06.51-.09.78l-.05.4v.4c-.13,2.02.05,4.02.54,5.99.09.4.23.76.33,1.08.08.27.17.54.29.8.19.42.29.64.28.57.27.79.08.4-.31-.49-.2-.44-.36-1.04-.57-1.67-.09-.31-.15-.65-.23-.97-.08-.32-.15-.64-.2-.97-.08-.64-.19-1.21-.21-1.64,0-.24-.03-.49-.07-.73-.02.25-.02.51,0,.76.01.37.04.75.09,1.12.02.23.05.47.07.77.03.31.11.58.17.93.47,2.12,1.31,4.08,2.53,5.88l.24.37c.09.12.19.23.28.34l.57.68c.38.47.84.84,1.25,1.26.41.42.91.74,1.4,1.06l.73.47c.23.16.48.3.73.41.94.48,1.92.86,2.94,1.15l1.37.32c.4.07.8.11,1.21.13.97.06,1.93,0,2.88-.16,1.26-.08,2.51-.28,3.74-.59.55-.14,1.08-.32,1.6-.54l.37-.17c.12-.06.23-.13.35-.2.23-.14.47-.34.74-.5l.77-.54.78-.61c.57-.45,1.12-.93,1.64-1.43.96-.91,1.75-1.93,2.4-3.08-.27.51-.58.99-.91,1.46,1.12-1.47,1.82-3.12,2.09-4.95.33-2.08.06-4.32-.33-6.54-.09-.56-.23-1.12-.34-1.68-.12-.54-.27-1.07-.47-1.59-.4-1.04-.95-1.99-1.66-2.85-.72-.85-1.54-1.6-2.45-2.23-.23-.15-.47-.32-.69-.47s-.46-.28-.7-.4c-.48-.23-.98-.42-1.5-.57-2.07-.57-4.18-.89-6.34-.94-1.94-.09-3.79.26-5.56,1.07-.2.09-.4.18-.58.29l-.54.34-.26.17-.24.2-.47.38c-.29.28-.56.55-.81.84-.23.29-.45.59-.65.9-.68,1.09-1.18,2.26-1.49,3.51.19-.76-.47.78-.8,3.56-.21,1.6-.24,3.2-.09,4.8.17,1.8.68,3.49,1.55,5.07.82,1.44,1.91,2.64,3.27,3.59.97.67,2.02,1.19,3.13,1.58.36.09.7.21,1.05.36l-.67-.15c-.19-.05-.41-.13-.67-.22-.16-.06-.34-.12-.53-.19.67.27,1.36.5,2.07.67.9.22,1.81.3,2.73.22.96-.07,1.9-.23,2.83-.47.91-.22,1.77-.54,2.6-.96,1.44-.75,2.62-1.8,3.52-3.14.52-.82.89-1.7,1.11-2.65,0,.18.33-.67.43-2.25.07-2.14-.23-4.23-.9-6.27-.33-1.25-.86-2.4-1.58-3.47-.78-1.03-1.76-1.81-2.94-2.34-1.1-.49-2.25-.77-3.46-.84-1.01-.05-2.01.03-2.99.24-1.3.36-2.51.9-3.63,1.64-1.63,1.09-2.92,2.49-3.86,4.21-.51.94-.86,1.93-1.05,2.98-.18,1.04-.17,2.09.03,3.13.21.99.61,1.9,1.19,2.73.24.34.51.67.8.97-.43-.45-.81-.93-1.15-1.45-.32-.57-.41-.68-.18-.19l.17.31.2.28c.13.18.24.36.37.52.24.29.51.57.78.83.23.23.48.44.74.63.22.17.44.33.67.47.22.13.42.26.61.37l.55.27c.34.19.67.28.97.42.3.13.62.2.94.31.31.11.71.17,1.14.26,1.23.21,2.46.21,3.69,0,.99-.19,1.92-.54,2.8-1.02.3-.16.52-.33.7-.44.13-.08.26-.18.37-.29.31-.28.02-.03-.41.22-.22.12-.47.27-.67.37-.21.1-.38.17-.44.18s0-.03.26-.17l.22-.12.29-.19c.27-.17.53-.36.78-.57.7-.53,1.29-1.17,1.76-1.91.09-.13.17-.26.24-.37l.16-.34c.09-.2.19-.36.23-.5.18-.53.18-.47.11-.19-.1.37-.23.73-.39,1.08-.16.3-.24.47,0,.13.55-1.01.81-2.08.79-3.23-.02-1.14-.3-2.21-.82-3.22-.55-.99-1.26-1.84-2.16-2.53s-1.89-1.18-2.98-1.46c-1.11-.32-2.23-.36-3.37-.12-.73.15-1.4.44-2.01.85-.91.71-1.57,1.6-1.98,2.68-.44,1.09-.6,2.23-.47,3.4.03.3.08.59.16.88.04.15.07.3.12.47l.17.42.09.22.12.2.24.41c.09.12.2.24.3.37.09.13.2.25.33.36.52.5,1.13.86,1.83,1.06.7.2,1.4.23,2.11.09-.93.17-1.84.08-2.71-.27-.42-.17-.8-.42-1.13-.74l-.26-.23c-.09-.08-.15-.18-.23-.26-.15-.17-.29-.36-.4-.56-.47-.83-.74-1.73-.81-2.68-.07-.96.06-1.88.41-2.77-.26.69-.41,1.4-.47,2.14-.04.73.04,1.46.23,2.17.34,1.11.99,1.99,1.95,2.64.97.62,2.03.83,3.17.65,1.14-.16,2.16-.59,3.06-1.31.91-.68,1.51-1.57,1.81-2.66.14-.54.16-1.08.06-1.63-.1-.51-.29-.97-.58-1.4-.5-.77-1.19-1.29-2.07-1.55-.35-.09-.71-.11-1.07-.05-.31.05-.59.18-.83.37-.41.39-.65.86-.72,1.42-.07.44-.03.87.13,1.28.1.29.27.52.51.71.16.12.34.2.53.25.14.05.32.06.41.08.39.08.06.12-.43.11-.27,0-.52-.08-.75-.23-.22-.13-.4-.3-.54-.51-.18-.32-.29-.66-.32-1.02-.04-.36-.02-.72.06-1.08.07-.36.21-.69.43-.99.22-.3.49-.54.81-.71.69-.32,1.4-.37,2.12-.13.7.23,1.3.62,1.8,1.16-.24-.31-.52-.57-.86-.77-.32-.22-.67-.38-1.05-.49-.47-.14-.95-.17-1.44-.08-.57.1-1.04.38-1.4.83-.36.47-.57.99-.62,1.58-.07.58.02,1.13.26,1.66.24.54.65.89,1.21,1.06.47.11.57.09.43.1-.16-.01-.31-.04-.47-.07-.13-.04-.25-.09-.37-.15-.14-.08-.28-.18-.41-.29-.3-.3-.51-.65-.63-1.05-.14-.49-.18-.98-.1-1.49.08-.61.33-1.14.74-1.6.23-.25.51-.45.83-.58.32-.14.66-.21,1.01-.22.74-.02,1.42.16,2.05.55.65.39,1.18.9,1.59,1.54.43.67.68,1.4.74,2.19.06.79-.08,1.55-.4,2.27-.33.68-.76,1.29-1.3,1.83-.54.54-1.15.97-1.83,1.29-1.25.64-2.57.87-3.96.69-.82-.12-1.56-.42-2.24-.9-.29-.23-.57-.47-.83-.73-.23-.26-.44-.54-.63-.82-.62-1.01-.96-2.11-1-3.3-.07-1.51.27-2.93,1.02-4.26l.36-.59.35-.44c.16-.2.34-.39.53-.56.14-.13.24-.22.31-.27.05-.04.11-.08.17-.1.07-.03.14-.06.21-.09.12-.05.27-.21.72-.42l.37-.19c.16-.07.33-.14.5-.19.46-.17.94-.29,1.42-.35,1.7-.2,3.29.1,4.8.9.84.43,1.6.98,2.27,1.64.69.66,1.24,1.42,1.65,2.28.42.86.67,1.77.75,2.72.04.47.04.93,0,1.4-.06.47-.16.94-.3,1.4-.14.46-.32.9-.55,1.32-.23.41-.5.81-.8,1.18-.3.37-.62.71-.98,1.03-.36.31-.74.59-1.14.85-1.64,1.03-3.43,1.58-5.37,1.63l-.28-.08c-1.44-.02-2.84-.27-4.21-.75-.25-.1-.5-.17-.7-.27l-.57-.27c-.28-.14-.55-.3-.81-.47-.64-.47-1.24-.98-1.81-1.54-.75-.8-1.34-1.72-1.75-2.74-.51-1.32-.69-2.67-.51-4.08.18-1.56.68-3,1.49-4.34.81-1.33,1.84-2.47,3.07-3.42,1.24-.95,2.6-1.64,4.1-2.09,1.25-.37,2.53-.51,3.84-.43-1.11-.09-2.21-.03-3.3.18,1.55-.38,3.11-.42,4.67-.12,1.51.27,2.88.88,4.09,1.82.58.46,1.08.99,1.51,1.59.41.59.74,1.21,1.01,1.87.5,1.26.88,2.55,1.15,3.87.56,2.57.61,5.22-.23,7.6-.42,1.16-1.03,2.2-1.85,3.12s-1.77,1.66-2.87,2.22c-1.04.55-2.14.94-3.3,1.17-1.13.24-2.27.37-3.42.37-.58,0-1.16-.06-1.72-.17-.29-.06-.55-.15-.83-.22s-.55-.13-.82-.25c-1.09-.37-2.12-.87-3.09-1.48-.97-.65-1.83-1.41-2.59-2.3-.75-.91-1.35-1.91-1.82-3-.45-1.11-.77-2.27-.96-3.45-.18-1.22-.24-2.45-.18-3.68,0-.59.08-1.17.11-1.76s.12-1.16.23-1.74c.18-1.17.47-2.31.86-3.42.39-1.14.95-2.18,1.68-3.15.73-.98,1.62-1.78,2.67-2.4.22-.12.45-.23.68-.32.23-.09.47-.2.69-.28l.71-.21.36-.1.37-.07c.48-.13.96-.23,1.45-.3.44-.08.89-.13,1.34-.16.8-.05,1.6-.05,2.4,0,1.48.08,2.94.29,4.39.6.82.18,1.62.43,2.4.76.21.09.43.21.64.33l.62.38.63.43.64.47c.97.77,1.81,1.67,2.51,2.7.87,1.3,1.44,2.73,1.7,4.28.31,1.46.53,2.93.65,4.42.15,1.51.06,3.02-.24,4.51-.33,1.51-.96,2.9-1.87,4.16-.9,1.23-1.94,2.33-3.11,3.31-.59.47-1.17.96-1.8,1.4-.31.22-.61.44-.94.65-.33.21-.68.39-1.04.54-1.43.55-2.91.91-4.44,1.07-1.52.2-3.05.24-4.57.09-.76-.12-1.51-.29-2.25-.5-.37-.09-.72-.25-1.09-.37-.36-.12-.72-.27-1.07-.44l-1.04-.51c-.34-.18-.65-.41-.98-.61l-.47-.31c-.16-.11-.3-.24-.47-.36-.3-.24-.61-.47-.9-.73-1.14-1.06-2.11-2.25-2.91-3.58-.77-1.35-1.36-2.77-1.77-4.27-.4-1.5-.62-3.02-.66-4.57-.03-.77-.02-1.54.04-2.31,0-.39.08-.77.12-1.15.03-.39.09-.77.16-1.15.29-1.56.89-2.99,1.79-4.3.91-1.27,1.99-2.39,3.22-3.35,1.22-.95,2.49-1.82,3.83-2.6,1.31-.84,2.68-1.55,4.13-2.11,1.48-.53,3-.84,4.56-.93,1.57-.1,3.12.04,4.64.42,1.52.38,2.95,1,4.28,1.84,1.34.8,2.56,1.77,3.64,2.9,1.08,1.14,1.98,2.4,2.7,3.79.71,1.39,1.26,2.83,1.64,4.34l.27,1.12.2,1.14c.15.77.21,1.55.2,2.34-.02,1.55-.24,3.08-.63,4.58-.38,1.5-.9,2.95-1.57,4.34-.69,1.39-1.54,2.66-2.56,3.82-1.02,1.16-2.18,2.17-3.47,3.02-2.63,1.69-5.5,2.64-8.62,2.85-3.07.28-6.05-.12-8.94-1.21l.49.18c-1.02-.37-2.01-.82-2.96-1.34-2.1-1.18-3.97-2.65-5.6-4.43-1.63-1.77-2.94-3.76-3.94-5.95-.91-2.06-1.46-4.21-1.65-6.46-.19-2.18.04-4.32.68-6.41.64-2.02,1.58-3.88,2.8-5.61,1.19-1.69,2.6-3.18,4.21-4.47.78-.65,1.59-1.25,2.44-1.8.86-.53,1.74-1.02,2.65-1.45,1.81-.89,3.71-1.53,5.69-1.91,1.99-.41,4-.48,6.02-.22,2.03.27,3.98.83,5.84,1.69,1.9.9,3.64,2.05,5.22,3.43,1.58,1.39,2.94,2.96,4.08,4.73.59.9,1.12,1.84,1.6,2.8.21.5.43,1,.65,1.5.22.51.36,1.04.54,1.56.67,2.18.98,4.41.93,6.69-.09,2.37-.53,4.67-1.32,6.9.12-.42.27-.84.37-1.26l.28-1.28c-.39,1.8-.97,3.54-1.73,5.21-.59,1.14-.94,1.87-1.19,2.21-.47.75-.22.32.12-.25.22-.37.4-.75.55-1.14-.78,1.48-1.7,2.87-2.76,4.18-.19.27-.61.76-1.18,1.43-.28.34-.66.66-1.06,1.05-.2.19-.41.4-.64.6l-.74.59c-.26.2-.52.42-.8.63l-.91.59c-.66.42-1.33.8-2.04,1.12-.37.19-.75.34-1.14.47l-1.21.47-1.28.34-.65.17c-.22.06-.47.08-.67.11l-1.36.21c-.47.04-.93.06-1.4.09l-.7.04h-.7l-1.4-.06-1.4-.17c-.23-.03-.47-.06-.7-.1l-.69-.15c-.47-.1-.94-.19-1.38-.3l-1.33-.4c-.44-.13-.88-.28-1.3-.47l-1.26-.47-1.19-.57-.58-.28c-.19-.1-.37-.21-.56-.31-.71-.39-1.4-.82-2.07-1.28l-.93-.65c-.3-.22-.58-.47-.85-.68.35.27.78.64,1.33,1s1.15.82,1.87,1.19l1.06.61c.36.2.75.37,1.13.55.75.37,1.52.69,2.31.97l-1.32-.56c-.41-.2-.83-.43-1.35-.69-.52-.26-1.12-.62-1.89-1.08-.19-.12-.4-.22-.61-.37l-.66-.47c-.47-.32-.99-.66-1.52-1.11l-.94-.74c-.32-.26-.62-.57-.93-.86-.68-.63-1.33-1.3-1.94-2.01-1.39-1.64-2.56-3.43-3.51-5.37-1.03-2.22-1.67-4.54-1.91-6.98-.24-2.64-.04-5.24.62-7.81.68-2.66,1.67-5.19,2.99-7.59l.5-.91c.16-.3.35-.59.53-.88l.54-.89c.19-.29.39-.58.58-.87.82-1.13,1.76-2.16,2.8-3.1,2.06-1.81,4.36-3.25,6.89-4.31,1.21-.51,2.46-.94,3.74-1.26.64-.14,1.26-.28,1.89-.38.63-.1,1.25-.19,1.87-.21,1.41-.05,2.81,0,4.21.19,1.35.19,2.68.49,3.97.92,1.3.43,2.54.98,3.74,1.64,1.19.66,2.32,1.43,3.37,2.3,1.05.87,2.02,1.83,2.89,2.88.91,1.05,1.72,2.16,2.46,3.33.65,1.03,1.23,2.09,1.75,3.19.61,1.19,1.16,2.41,1.64,3.66.58,1.56,1.05,3.14,1.4,4.77.57,3.15.7,6.32.37,9.5-.26,2.68-.89,5.27-1.87,7.78,1.11-2.75,1.78-5.59,2.02-8.55.2-2.42.12-4.84-.23-7.25.03.16.06.31.08.43-.05-.32-.12-.76-.19-1.24-.04-.22-.08-.44-.13-.67.09.47.18.98.25,1.48-.08-.47-.17-.99-.29-1.5-.14-.84-.33-1.65-.54-2.51.22.78.28,1.12.43,1.72-.33-1.55-.77-3.07-1.33-4.56-.34-.91-.47-1.19-.27-.71-.37-.93-.65-1.6-.87-2.08s-.36-.77-.43-.94c-.14-.3,0-.04.27.43.5.94,1.29,2.77,1.24,2.5.72,1.83,1.28,3.71,1.67,5.63.45,2.2.67,4.43.68,6.67,0,1.94-.19,3.86-.56,5.77-.16.77-.31,1.43-.47,1.93-.09.35-.19.7-.32,1.04-.51,1.67-1.18,3.27-2.01,4.81-.84,1.58-1.86,3.04-3.03,4.38-1.79,2.08-3.93,3.7-6.41,4.85.39-.2.79-.39,1.17-.62-.41.22-.96.47-1.52.72-3.19,1.38-6.53,2.1-10.01,2.17-3.71.09-7.34-.41-10.88-1.52-3.42-1.05-6.59-2.62-9.49-4.7-1.31-.95-2.52-2.01-3.63-3.18-.51-.54-.98-1.11-1.43-1.7-.22-.28-.47-.54-.65-.83l-.21-.32c.55.81,1.07,1.36,1.4,1.78l.47.57c.13.13.22.2.26.24.05.04.03,0-.14-.2-.17-.2-.41-.54-.7-.93s-.67-.83-.98-1.32c-.31-.49-.62-1.01-.9-1.46-.06-.11-.13-.23-.2-.33-.06-.11-.11-.22-.15-.32-.09-.2-.18-.38-.25-.54-.08-.16-.15-.33-.2-.5.08.18.33.66.71,1.4.36.54.77,1.26,1.34,2.06.68.91,1.41,1.78,2.19,2.61.98,1.01,2.03,1.93,3.16,2.77,1.31.97,2.69,1.83,4.14,2.58,3.23,1.67,6.63,2.79,10.22,3.36-.62-.1-1.22-.24-1.82-.42-3.23-.72-6.29-1.89-9.18-3.49-2.87-1.56-5.38-3.57-7.53-6.04-2.42-2.83-4.06-6.05-4.91-9.68-.11-.47-.18-.99-.27-1.49-.04-.25-.08-.51-.13-.77-.05-.26-.04-.52-.06-.78-.04-.53-.09-1.06-.11-1.6-.02-.54,0-1.09,0-1.65.09-2.37.44-4.71,1.05-7.01-.13.64-.36,1.58-.47,2.26s-.14,1.09-.04.62c.58-3.19,1.52-6.28,2.83-9.25,1.1-2.5,2.09-4.3,2.46-5.02.13-.18.38-.54.71-1.05.16-.26.37-.53.6-.84l.75-1c1.4-1.71,2.96-3.27,4.67-4.67,1.99-1.64,4.14-3.01,6.47-4.12,2.04-.98,4.18-1.66,6.42-2.04.72-.14,1.43-.23,2.16-.27.57-.05,1.14-.07,1.71-.05h.76l.72.08c.47.07.97.09,1.49.21,1.32.26,2.59.66,3.82,1.19.39.17.82.34,1.26.58l.69.34.72.41c1.15.66,2.24,1.4,3.27,2.23-1.41-1.08-2.91-2.01-4.5-2.8,2.38,1.24,4.54,2.78,6.48,4.63,1.12,1.05,2.16,2.19,3.1,3.4.82,1.11,1.57,2.28,2.23,3.49.58,1.02,1.28,2.23,2.09,3.83-.44-.85-.72-1.32-.8-1.46-.14-.21.22.47,1,2.03,2.21,4.33,3.61,8.91,4.21,13.74.19,1.62.29,3.25.31,4.88,0,2.16-.16,4.29-.49,6.42.03-.33.08-.65.1-.98l.06-.98c-.19,1.72-.52,3.42-.98,5.09-.51,1.9-1.25,3.71-2.23,5.42-.25.45-.52.87-.83,1.29-.28.43-.59.83-.93,1.22-.17.19-.33.4-.51.58l-.58.53c-.19.17-.38.36-.58.52l-.63.47c-1.63,1.15-3.37,2.09-5.23,2.8-.43.19-.87.36-1.31.51l-1.28.47c-.86.25-1.67.52-2.46.71-1.57.42-3.01.72-4.21.94-.61.1-1.16.19-1.64.26l-1.26.15c-.37.05-.65.07-.84.08.15,0,.02.04-.34.09-.5.06-1.43.19-2.72.25-1.59.09-3.18.07-4.77-.06-.47-.06-.94-.09-1.43-.17-.5-.08-.98-.16-1.48-.26-1.01-.2-2.06-.43-3.11-.74-2.21-.62-4.33-1.45-6.37-2.51-2.04-1.09-3.94-2.4-5.67-3.93-.42-.37-.82-.76-1.22-1.13-.4-.37-.76-.78-1.11-1.17-.35-.39-.7-.77-1.01-1.19-.31-.39-.6-.8-.87-1.23-.89-1.43-1.63-2.94-2.21-4.52.44,1.17.96,2.3,1.58,3.38.19.34.4.67.64.98-.42-.61-.74-1.26-1.09-1.91-.35-.64-.63-1.32-.88-2-.55-1.35-1.02-2.73-1.4-4.13-.76-2.83-1.22-5.7-1.36-8.62-.08-1.48-.02-2.96.18-4.43.22-1.43.47-2.86.77-4.29.56-2.86,1.34-5.67,2.34-8.41.51-1.38,1.1-2.72,1.76-4.03.34-.66.68-1.3,1.07-1.93l.62-.93c.19-.33.41-.64.65-.93,1.86-2.32,4.03-4.31,6.5-5.97,2.44-1.65,5.02-3.02,7.75-4.13,2.71-1.12,5.5-1.97,8.37-2.55l1.85-.23,1.87-.11c.76-.09,1.5-.08,2.21-.13.35-.02.69-.02,1.04,0l1,.03c1.24.05,2.46.24,3.65.56,2.08.56,4.02,1.44,5.82,2.63,1.86,1.21,3.52,2.66,4.97,4.33,1.86,2.18,3.39,4.58,4.57,7.2-.72-1.45-1.52-2.85-2.42-4.2,1.48,2.35,2.73,4.82,3.74,7.41.94,2.38,1.71,4.64,2.37,6.8,1.24,4.29,2.69,7.99,3.64,11.77.49,1.88.8,3.79.94,5.72.13,1.97.02,3.93-.32,5.87-.09.47-.17.98-.26,1.48s-.22.99-.34,1.5c-.21,1.01-.54,2.01-.84,3.04-.72,2.17-1.64,4.25-2.76,6.25l.08-.39c-1.65,3.01-4.02,6.2-7.23,8.52-1.63,1.06-3.36,1.93-5.19,2.6-1.7.66-3.43,1.21-5.2,1.65-2.35.54-4.72.93-7.12,1.16-.7.08-1.43.12-2.18.17-.75.04-1.53.06-2.34.08-.81.02-1.62,0-2.44,0l-1.27-.09c-.43-.03-.86-.06-1.29-.13-1.83-.2-3.62-.57-5.37-1.12-.89-.32-1.82-.58-2.7-.99l-1.36-.57-1.34-.66-.67-.34-.66-.37-1.33-.78c-.85-.56-1.74-1.1-2.57-1.73-1.72-1.25-3.33-2.62-4.83-4.12-1.54-1.54-2.94-3.19-4.21-4.96-1.25-1.84-2.26-3.79-3.05-5.87-1.59-4.07-2.83-8.24-3.71-12.52-.47-2.1-.73-4.22-.79-6.37-.02-2.09.19-4.15.62-6.19.4-1.93.92-3.83,1.57-5.7.62-1.81,1.29-3.53,1.97-5.18.17-.58.33-1.18.51-1.77,1.29-2.65,2.98-5,5.07-7.07,2.11-2.02,4.43-3.76,6.97-5.2,2.18-1.25,4.43-2.37,6.74-3.37,1.63-.76,3.3-1.37,5.04-1.83-.39.12-.79.23-1.17.37-.38.14-.77.26-1.15.41-.23.15.28-.06,1.32-.38,1.46-.48,2.94-.85,4.45-1.1,1.87-.33,3.96-.47,6-.6,1.01-.08,2.04-.16,3.04-.17.5,0,.98,0,1.44.03l1.35.11c2.2.23,4.35.68,6.45,1.37.32.13.65.23.99.31-.03,0-.21-.11-.58-.25,3.36,1.22,6.36,3.01,9.02,5.39l.57.51.53.55c.37.36.71.74,1.04,1.14.69.79,1.26,1.62,1.9,2.44,1.21,1.67,2.39,3.38,3.48,5.18,2.24,3.62,4.15,7.4,5.74,11.34.77,1.99,1.51,3.99,2.09,6.03.32,1.01.56,2.04.83,3.06l.34,1.54c.12.51.23,1.03.31,1.54.08.52.18,1.03.27,1.54.09.51.14,1.03.21,1.54.16,1.02.2,2.06.29,3.07.1,2.01.05,4.02-.15,6.02-.37,3.77-1.29,7.4-2.78,10.88-1.3,3.04-3.04,5.81-5.21,8.3-1.76,2.01-3.78,3.7-6.07,5.08-6.2,3.8-12.82,6.17-19.49,6.71-6.58.51-13.08.75-19.56-.29l-1.22-.23c-.4-.07-.81-.16-1.21-.26l-1.21-.3c-.4-.11-.79-.24-1.19-.37-.8-.22-1.57-.57-2.34-.86-.39-.17-.77-.36-1.15-.55l-.57-.28-.55-.33c-.36-.22-.74-.43-1.09-.68l-1.03-.76c-.17-.13-.35-.25-.51-.39l-.47-.43c-.32-.29-.65-.57-.93-.87l-.89-.93c-.15-.16-.3-.31-.47-.47l-.41-.51c-.27-.34-.55-.68-.82-1.02l-.78-1.1c-.26-.36-.47-.72-.72-1.1l-.69-1.13c-.41-.78-.87-1.55-1.25-2.36-.82-1.6-1.5-3.27-2.19-4.97-1.33-3.42-2.48-7.01-3.74-10.69l.15.34c-.8-2.49-2.01-5.53-3.12-8.84-1.11-3.3-2.02-6.92-2-10.31,0-1.59.2-3.16.61-4.7.16-.71.39-1.36.59-1.97.19-.61.43-1.15.64-1.65.21-.5.41-.93.61-1.33l.5-.97c.13-.29.3-.55.51-.79,2.69-5,6.03-8.97,9.48-12.51,3.49-3.44,7.34-6.4,11.57-8.88,2.15-1.29,4.39-2.43,6.7-3.41,2.47-1.07,5.02-1.82,7.68-2.27,2.89-.44,5.79-.5,8.69-.19,3.21.33,6.34,1.01,9.39,2.06-1.87-.6-3.76-1.08-5.7-1.43,1.88.38,3.72.87,5.54,1.48,1.94.65,3.82,1.45,5.64,2.4,2.6,1.39,4.99,3.07,7.19,5.04.9.8.97.93.84.83-.13-.11-.53-.47-.66-.56,2,1.89,3.84,3.92,5.51,6.11,1.47,1.92,2.83,3.9,4.09,5.97-.38-.58-.77-1.17-1.17-1.74,1.43,2.27,2.86,4.77,4.31,7.41,1.58,2.76,2.95,5.62,4.12,8.59,1.26,3.21,2.18,6.51,2.76,9.9.29,1.77.45,3.55.51,5.34.04,1.83-.08,3.66-.34,5.47-.57,3.67-1.95,7.19-3.56,10.52-.8,1.67-1.67,3.31-2.54,4.94-.86,1.63-1.74,3.27-2.67,4.86-1.87,3.19-3.98,6.29-6.67,8.8-2.33,2.18-4.95,3.91-7.87,5.19.5-.24.85-.43,1.09-.55.38-.2.47-.25.31-.19s-.47.2-.9.4l-.68.31-.74.29c-3.6,1.52-7.34,2.52-11.22,3.02-4.67.7-9.97.87-15.26.94-2.64.07-5.28,0-7.91-.22-2.55-.2-5.01-.78-7.38-1.74-2.03-.92-3.93-2.07-5.69-3.45-1.59-1.21-2.92-2.37-3.99-3.34,1.47,1.33,3.02,2.58,4.63,3.74-1.67-1.21-3.26-2.52-4.76-3.93-1.37-1.26-2.66-2.59-3.89-3.99-.97-1.1-1.88-2.24-2.72-3.44-.74-1.04-1.39-2.13-1.97-3.27-1.07-2.16-2.15-4.3-3.61-7.14-.73-1.4-1.54-3.02-2.44-4.92-1.05-2.2-1.96-4.46-2.71-6.79,1.24,4.12,3.11,8.02,5.03,11.81-1.03-2.02-2.02-3.98-2.8-5.78-.79-1.8-1.5-3.43-1.96-4.76-.93-2.67-1.24-4.03-1.02-2.96-.68-2.58-.9-3.97-1.05-4.83-.16-.86-.18-1.19-.25-1.68-.07-.5-.18-1.16-.38-2.69-.05-.38-.11-.82-.18-1.32s-.12-1.07-.19-1.72c-.07-.65-.11-1.38-.17-2.19-.07-.81-.08-1.72-.05-2.73,0-.34,0,2.56.29,4.87.07.58.13,1.11.19,1.56s.12.79.15.99c.07.38.04.17-.11-1.14-.22-1.84-.34-3.68-.36-5.53,0-1.85.11-3.69.33-5.53.48-3.66,1.34-7.23,2.6-10.7.18-.53.3-.88.55-1.5-.03.07-.05.15-.08.22.15-.39.36-.86.63-1.43,1.21-2.36,2.74-4.48,4.6-6.37-.38.3.2-.4,1.23-1.43s2.53-2.39,3.84-3.47c.64-.57,1.28-1.04,1.76-1.4.48-.36.82-.64.93-.75.12-.1,0-.03-.41.27-.2.16-.5.36-.87.63s-.84.61-1.38,1.05c5.88-4.94,12.44-8.67,19.68-11.2,3.43-1.18,6.95-1.99,10.56-2.43.89-.09,1.78-.2,2.66-.25l2.65-.09,2.64.08c.87.05,1.75.15,2.62.23,3.45.41,6.81,1.19,10.08,2.34,3.23,1.12,6.31,2.55,9.25,4.31,5.89,3.46,10.91,7.91,15.05,13.35l.66.94c.24.33.47.7.71,1.09.5.78,1.07,1.63,1.6,2.6,1.25,2.18,2.34,4.43,3.27,6.76,2.07,5.08,3.64,11.13,4.86,16.79.62,2.8,1.18,5.56,1.5,8.09.3,2.23.38,4.47.25,6.72-.11,1.43-.34,2.85-.69,4.24-.26.89-.38,1.24-.34.9-.99,3.68-2.61,6.94-4.24,9.95-.83,1.5-1.67,2.94-2.49,4.34s-1.62,2.76-2.42,4.06c-1.49,2.49-3.21,4.81-5.14,6.97-1.72,1.9-3.69,3.49-5.91,4.78,1.48-.81,2.84-1.78,4.1-2.89,1.25-1.12,2.4-2.35,3.44-3.67-1.09,1.4-2.3,2.69-3.64,3.86-2.14,1.84-4.53,3.27-7.15,4.3-2.81,1.08-5.71,1.88-8.69,2.4-2.8.52-5.35.86-7.23,1.12,2.46-.37,5.31-.77,8.29-1.4,3.09-.59,6.07-1.53,8.95-2.8,2.76-1.27,5.2-3,7.3-5.2,1.65-1.75,3.13-3.64,4.42-5.67-1.91,2.85-4.28,5.88-7.4,8.2-3.12,2.33-6.88,3.78-10.5,4.72-3.37.82-6.77,1.45-10.21,1.9-3.05.47-5.67.8-7.56,1.05l-3.5.24c-5.74.74-8.16.93-10.58,1.15l-4.05.36c-.82.08-1.73.17-2.8.25-1.26.11-2.52.14-3.79.1.73.07,1.48.09,2.21.09-1.26.05-2.52-.02-3.78-.2-1.12-.16-2.2-.47-3.24-.94-.91-.44-1.74-.99-2.51-1.65-.72-.6-1.36-1.19-1.97-1.77-1.19-1.17-2.21-2.27-3.14-3.33-.9-1.01-1.73-2.07-2.5-3.19-1.4-2.18-2.8-4.32-4.49-6.96-1.69-2.64-3.74-5.77-6.18-10.07.17.24.33.47.5.72-1.99-3.42-3.78-6.94-5.37-10.57-1.56-3.59-2.78-7.3-3.66-11.12,1.05,4.19,2.45,8.27,4.21,12.23-.11-.31-.41-1.12-.85-2.22-.23-.54-.43-1.18-.69-1.87-.13-.34-.25-.69-.38-1.05-.13-.36-.24-.74-.37-1.12-.96-2.85-1.73-5.76-2.31-8.72l-.25-1.19c-.08-.37-.12-.74-.18-1.08-.11-.68-.21-1.28-.29-1.82-.15-1.07-.22-1.87-.29-2.47-.16-1.2-.16-1.58-.2-1.76-.05-.15-.08-.31-.09-.47,0-.17-.04-.44-.07-.88,0-.22-.03-.47-.05-.8s0-.69,0-1.12c.06-1.46.08-1.64.09-.85,0,.39,0,1.02.03,1.87s.13,1.87.21,3.05c-.31-4.1-.21-8.18.3-12.26.51-4.27,1.53-8.41,3.06-12.43,1.43-3.78,3.36-7.27,5.82-10.48l1.76-2.07c.6-.64,1.21-1.24,1.78-1.83l.43-.44.47-.4.86-.78.78-.75.82-.66c.55-.41-.04.09-.04.09,3.04-2.42,6.34-4.44,9.89-6.04,3.25-1.46,6.61-2.6,10.08-3.42,3.08-.73,6.2-1.3,9.34-1.69,1.46-.17,2.86-.34,4.21-.47,1.35-.13,2.63-.23,3.86-.26-1.03.04-2.07.14-3.09.24,3.53-.28,7.06-.31,10.59-.1,3.69.18,7.35.65,10.96,1.4,1.64.34,3.23.83,4.78,1.48,1.29.58,2.52,1.25,3.71,2.02,1.39.85,2.72,1.8,3.98,2.84,2.41,1.83-.3-.28-2.8-1.9-1.24-.82-2.43-1.51-2.8-1.69s.17.09,2.19,1.4c2.84,1.86,5.57,3.89,8.17,6.07,1.35,1.11,2.64,2.3,3.87,3.55.51.54.98,1.1,1.43,1.68.47.61,1.01,1.26,1.62,2.08,1.77,2.41,3.35,4.94,4.76,7.57-.35-.69-.74-1.36-1.17-2.01,3.11,5.2,5.73,11.77,7.76,18.64,1.03,3.43,1.95,6.93,2.84,10.37.45,1.72.89,3.42,1.32,5.09.44,1.65.78,3.33,1.03,5.02.61,5.02.4,10-.64,14.95-.64,2.94-1.51,5.81-2.6,8.61-1.05,3.02-2.5,5.85-4.34,8.47-.95,1.31-2.03,2.51-3.22,3.59l-1.74,1.65-.87.82-.93.75-1.84,1.5-.93.75-.94.68-1.9,1.33c-.61.45-1.25.87-1.91,1.26l-1.92,1.16-.93.57-.47.28-.47.25-3.78,1.92-3.67,1.56-.87.37-.88.3-1.7.58c2.8-.93,1.73-.53-.08.14-.91.33-1.98.75-2.86.98l-1.09.32-.23.07c.15-.05.24-.09-.2,0-6.61,1.75-7.47,1.78-10.01,2.22l-1.12.16c-.4.06-.83.1-1.29.13l-2.94.23c-1.04.12-2.14.11-3.27.13l-1.69.03c-.57,0-1.13.03-1.69,0l-3.27-.16c-1.05,0-2.05-.2-2.97-.3l-2.46-.3c-.71-.09-1.29-.25-1.73-.33-.34-.03-.67-.09-1-.16-.61-.12-1.49-.27-2.54-.51-2.06-.59-4.9-1.23-7.75-2.38,1.44.55,2.59.94,3.51,1.19l2.1.55c.44.13.89.24,1.35.31.07,0-.06-.05.13-.02.19.03.68.18,2.04.4-1.13-.19-2.16-.52-3.15-.78-.99-.27-1.93-.52-2.83-.78-1.63-.5-3.22-1.09-4.78-1.77-1.35-.59-2.65-1.28-3.88-2.08-1.15-.74-2.25-1.56-3.28-2.46-2.15-1.88-4.18-3.89-6.08-6.03-1.2-1.32-2.29-2.72-3.27-4.21-.51-.82-1.03-1.68-1.59-2.59l-1.68-2.91c-1.72-3.05-3.35-6.14-4.86-9.29-1.67-3.13-3.13-6.36-4.36-9.68-1.66-4.32-2.72-8.52-2.7-8.32-.41-1.57-.8-3.55-1.07-5.04-.27-1.49-.38-2.49-.27-2.15-.31-1.87-.58-4.01-.73-6.19l-.06-.82v-.83l-.04-1.65v-.82l.04-.81c.02-.54.05-1.08.08-1.6,0-.26.02-.52.03-.78l.09-.76c.06-.5.12-.99.17-1.47.08-.94.27-1.84.41-2.64.25-1.62.6-2.88.75-3.65l-.47,1.84c-.15.61-.24,1.24-.37,1.87-.03.19-.06.37-.1.55.72-4.26,1.94-8.38,3.66-12.35,1.82-4.26,4.09-8.26,6.83-12,2.55-3.47,5.45-6.61,8.7-9.42,3.33-2.88,7-5.25,10.99-7.1-.08.13-.14.27-.21.41,2.65-1.22,5.35-2.27,8.13-3.15,2.68-.86,5.34-1.51,7.94-2.08,5.14-1.06,10.33-1.75,15.57-2.09-1.81.12-2.92.2-2.61.15.31-.05,2.02-.25,5.87-.55-4.54.28-12.98,1.06-20.41,2.75,2.63-.62,5.27-1.13,7.94-1.52,2.66-.41,5.34-.74,8.03-1-4.18.39-8.36.9-12.5,1.68-4.15.76-8.22,1.84-12.21,3.23l1.79-.64,1.56-.47c.94-.31,1.77-.53,2.44-.71,1.33-.37,2.09-.54,2.38-.62.59-.14-.69.08-2.85.61,3-.82,6.04-1.46,9.12-1.94,1.24-.21,2.37-.34,3.44-.5,1.07-.16,2.08-.25,3.09-.35,2.02-.2,4-.38,6.41-.56,1.2-.08,2.51-.17,3.97-.23,1.46-.06,3.08-.12,4.92-.08,2.66.1,2.62.18,2.67.21.05.03.08.04.5.09s1.21.13,2.71.34c1.61.19,3.2.5,4.77.91,1.53.41,3.02.93,4.46,1.57,1.4.63,2.74,1.34,4.04,2.15,1.24.79,2.44,1.64,3.59,2.56,2.15,1.73,4.16,3.61,6.03,5.64.66.7,1.28,1.4,1.87,2.11-.06-.06-.08-.07-.04,0,.7.78,1.32,1.59,1.93,2.34.61.75,1.21,1.48,1.74,2.2l1.49,2.07c.47.66.94,1.26,1.31,1.87.78,1.2,1.46,2.25,2.03,3.12s.96,1.61,1.28,2.14c-1.15-2.12-2.48-4.13-3.79-6.15.88,1.31,1.54,2.37,2.2,3.36.16.25.32.47.47.73l.44.75.93,1.57c.32.56.69,1.14,1.03,1.82l1.16,2.27c.22.42.44.87.68,1.35l.69,1.55c.24.55.5,1.12.77,1.74.13.31.28.62.41.93l.39,1.03c1.34,3.22,2.14,5.84,2.48,6.69.34.85.11.1-.85-2.85.19.58.4,1.22.61,1.87.16.47.31.99.47,1.47s.25.96.36,1.4c.43,1.73.68,2.8.33,1.65.15.57.31,1.11.42,1.63.11.52.22,1.02.32,1.49l.55,2.57c.25,1.56.47,2.78.61,3.77.04.25.08.47.12.7.04.24.05.43.08.64.05.4.09.76.13,1.09.08.66.15,1.21.22,1.75.03.27.06.54.1.82s.04.58.06.9c.03.65.07,1.4.12,2.37,0,.47.06,1.02.05,1.63-.02.61-.02,1.29-.04,2.04-.02.76,0,1.6-.09,2.53-.08.93-.17,1.96-.27,3.1.09-1.24.18-2.57.11-1.87-.05.57-.09,1.12-.14,1.67-.05.55-.07,1.08-.16,1.6-.14,1.04-.28,2.03-.42,2.97,0,.11-.03.22-.05.33.1-.75.14-1.21.18-1.45.06-.58-.04-.05-.13.39-.09.44-.16.79-.03-.15.06-.47.17-1.26.34-2.52.05-.64.11-1.4.18-2.28.03-.47.08-.93.12-1.44,0-.26.04-.53.06-.8.02-.28,0-.57,0-.87-.03.26-.03.68-.09,1.24-.06.55-.11,1.22-.18,1.99-.07.77-.11,1.64-.24,2.56l-.41,2.93c-.54,3.89-1.5,7.68-2.88,11.36-.8,2.18-1.34,3.27-1.57,3.85s-.23.55-.13.42c.18-.27.65-1.05-.41,1.07,0-.05-.47.79-1.27,2.09-1.07,1.67-2.25,3.25-3.55,4.75,1-1.1,1.93-2.25,2.8-3.46-1.94,2.78-4.17,5.32-6.67,7.62,1.06-.99,2.07-2.03,3.05-3.11-1.34,1.45-2.76,2.81-4.25,4.11-2.15,1.84-4.4,3.55-6.74,5.14-5.1,3.51-10.5,6.47-16.2,8.88,1.52-.65,3.13-1.4,3.9-1.81.53-.27.68-.36.13-.12-.55.24-1.77.83-4.05,1.75-2.31.98-4.67,1.82-7.07,2.54-.48.16-.98.29-1.48.39-.03,0,.15-.08-.22,0-.36.08-1.26.31-3.48.78-3.91.85-6.08.97-7.45,1.18-.68.11-1.17.11-1.59.15l-1.18.08c-1.4.12-2.8.15-4.2.1l-2-.04c-.76,0-1.61-.14-2.57-.21-.96-.08-2.04-.15-3.22-.37l-1.87-.3c-.66-.11-1.35-.2-2.07-.39-1.24-.28-1.29-.28-.72-.13l1.25.32c.53.12,1.15.21,1.78.32l-1.47-.24c-.47-.09-.93-.21-1.4-.31l-2.72-.63c-.88-.22-1.72-.5-2.56-.74l-1.23-.37-.61-.18-.59-.22c-3.01-1.03-5.93-2.26-8.77-3.69-1.37-.72-2.76-1.4-4.08-2.23l-2.02-1.18c-.68-.41-1.32-.9-2-1.36-.68-.46-1.36-.93-2.05-1.43l-2.02-1.62-1.05-.84c-.17-.13-.34-.28-.5-.43.27.25.54.47.8.68,1.03.82,1.81,1.46,2.21,1.78s.39.34-.16-.08l-1.26-.98c-.57-.47-1.33-.99-2.16-1.78.74.65.52.43-.29-.34l-1.63-1.5-.51-.47-.51-.54-1.11-1.16-1.19-1.25c-.41-.43-.77-.91-1.16-1.37l-1.17-1.4-.58-.71c-.19-.23-.35-.47-.53-.72-.69-.96-1.35-1.87-1.95-2.72-.6-.86-1.04-1.66-1.44-2.3l-.89-1.31c-1.15-2.13-1.07-2.07-.5-1.04.15.26.3.59.53.93l.72,1.14c.52.81,1.07,1.72,1.62,2.53-.09-.09.72,1.07,2.45,3.43,2.49,2.94,3.32,3.83,2.56,2.8-.38-.5-1.16-1.48-2.34-2.91-1.06-1.51-2.58-3.45-4.12-6.08-.91-1.35-1.51-2.6-2.09-3.64l-.78-1.4c-.21-.47-.4-.84-.57-1.21-.68-1.44-1.07-2.24-1.26-2.6-.2-.37-.18-.3-.08,0,.1.3.31.8.53,1.31-.22-.5-.44-.98-.65-1.44s-.36-.93-.52-1.4c-.34-.89-.65-1.72-.93-2.51-.5-1.6-.93-2.98-1.34-4.2-.64-2.53-1.19-4.48-1.52-6.45-.09-.47-.19-.98-.29-1.47-.05-.25-.1-.5-.14-.75-.03-.25-.07-.51-.1-.77-.13-1.05-.27-2.16-.43-3.42-.16-1.25-.16-2.65-.25-4.25v-2.57c0-.91,0-1.89.08-2.93.21-3.74.73-7.44,1.57-11.1.07-.32.13-.64.2-.96s.18-.64.27-.97c.18-.65.37-1.32.55-1.99.33-1.37.87-2.72,1.34-4.13l.36-1.05c.12-.36.29-.69.43-1.04.29-.69.58-1.39.88-2.09l.44-1.05c.15-.35.33-.68.5-1.03l1.03-2.04c.67-1.4.57-1.29.1-.38l-.93,1.82-.59,1.15c-.2.4-.36.84-.55,1.26-1.52,3.37-2.55,6.83-1.51,3.47,1.88-4.8,4.23-9.36,7.06-13.67,3.08-4.71,6.66-9,10.75-12.86,4.09-3.87,8.57-7.2,13.45-10,5.52-3.19,11.39-5.52,17.59-7.01l-3.16,1.04c6.15-1.81,12.43-2.68,18.85-2.61l-2.27-.04-2.27.11c-.76.04-1.51.06-2.27.12l-2.25.27c3.04-.54,8.22-.66,12.01-.47,1.87.17,3.45.27,4.21.4.76.13.79.16-.15.05,5,.54,9.86,1.64,14.6,3.32.96.35,1.92.67,2.9,1.05l3.01,1.31.8.35.82.41,1.72.88c.59.32,1.23.61,1.87.99l1.98,1.19-1.95-1.16c-.28-.17-.55-.32-.8-.47l-.7-.36-1.79-.93-.47-.24c.18.09.47.24.13.09-.17-.07-.47-.25-1.04-.47l-2.54-1.06,2.34,1.01c.37.15.72.33,1.05.5l.98.51c1.26.66,2.41,1.19,3.37,1.81l2.66,1.59c.79.5,1.49,1.01,2.18,1.47.69.46,1.35.9,1.99,1.4l1.95,1.53c1.4,1.02,2.8,2.38,4.64,4.03-.31-.27-.31-.24-.09,0,.22.24.63.7,1.17,1.28.54.58,1.19,1.29,1.87,2.02.68.73,1.29,1.59,1.91,2.34.37.44.77.9,1.16,1.4l1.17,1.57c.41.53.79,1.12,1.19,1.71s.82,1.2,1.2,1.84c1.72,2.73,3.25,5.56,4.6,8.49,2.83,6.23,5.07,12.67,6.73,19.31h-.05c.68,2.63,1.28,5.31,1.84,8.02.56,2.71,1.03,5.47,1.33,8.27.32,2.82.36,5.64.11,8.47-.28,2.84-.9,5.61-1.87,8.3-1.94,5.37-4.92,10.28-7.94,15-3.02,4.71-6.02,9.46-9.42,13.77-.24.31-.47.6-.68.85.37-.44.73-.88,1.08-1.33,1.18-1.47,1.12-1.37.32-.28-1.4,1.85-2.9,3.61-4.51,5.29-.27.27-.53.55-.81.82l-.87.82c-.59.54-1.17,1.12-1.81,1.63-.65.51-1.26,1.06-1.91,1.56l-1.96,1.43c-1.31.87-2.53,1.71-3.67,2.34-.57.33-1.08.65-1.56.91l-1.31.69-.94.44-1,.43-1.4.61c-.57.25-1.28.51-2.15.86-1.43.67-2.91,1.21-4.43,1.64l-1.83.55-1.83.47c-1.18.33-2.27.51-3.03.7-.93.2-1.62.27-2.13.36l-1.07.15c-.24.03-.49.05-.73.05-.22,0-.6.04-1.73.16-.57.08-1.32.14-2.34.21-.51.03-1.08.1-1.73.12l-2.18.08c-1.25.02-2.23,0-2.98.03h-1.63c-.7,0-.7.03-.4.06-1.37-.07-4.11-.29-7.34-.72-3.46-.47-6.89-1.12-10.28-1.95,2.26.52,5.92,1.27,7.48,1.49.43.04-.47-.13-1.5-.32-.69-.1-1.37-.26-2.03-.47-1.49-.29-2.37-.5-2.99-.63l-1.35-.27c-.39-.09-.83-.19-1.63-.38-.8-.2-1.95-.52-3.74-1.05,2.26.62,4.52,1.21,6.82,1.68-2.95-.69-6.69-1.7-8.12-2.16,1.09.34,1.87.55,2.45.69.58.15.88.22,1.04.24.33.06.03-.08-.28-.2-4.2-1.17-6.5-1.97-7.61-2.3-1.11-.33-1.03-.3-.47-.05,1.12.49,4.24,1.6,3.78,1.5-3.96-1.28-7.64-2.68-11.13-4.12-3.48-1.44-6.78-2.91-9.85-4.57-3.04-1.59-5.84-3.52-8.41-5.79-2.43-2.24-4.53-4.75-6.3-7.53.47.66.99,1.31,1.5,1.95-1.43-1.98-2.74-4.04-3.93-6.18-.47-.8-.81-1.5-1.14-2.13-.33-.63-.62-1.17-.89-1.68-.18-.36-.37-.72-.54-1.09l-.45-1.13-.99-2.22c-.64-1.49-1.18-3.02-1.78-4.53l1.31,3.27c.34.91.7,1.59.93,2.14.26.61.57,1.2.91,1.77-.52-1.18-1.1-2.4-1.62-3.68-.52-1.28-1.03-2.6-1.51-3.93-.48-1.33-.9-2.68-1.32-3.99-.42-1.32-.74-2.64-1.09-3.88l-.84-3.57c-.06-.27-.13-.55-.19-.82-.06-.27-.1-.53-.15-.79-.09-.51-.19-1.01-.27-1.46-.16-.93-.34-1.71-.43-2.37s-.18-1.16-.24-1.5l.08.4c-.1-.86-.22-1.77-.33-2.73-.11-.96-.15-1.98-.23-3.03-.03-.52-.08-1.05-.1-1.6-.02-.54,0-1.09-.03-1.65-.03-.56,0-1.12-.04-1.69v-1.71c.07-4.64.54-9.23,1.42-13.79.11-.54.21-1.07.31-1.6.05-.26.1-.52.15-.78.05-.26.13-.51.19-.76l.72-2.86c.11-.47.24-.9.38-1.32.14-.43.27-.83.39-1.23l.7-2.18c1-2.6,1.58-4.11,1.51-3.89,2.88-6.94,6.72-13.3,11.51-19.08l1.56-1.8c.5-.58.97-1.14,1.46-1.62.93-.99,1.81-1.87,2.52-2.6,1.5-1.4,2.41-2.25,2.46-2.34.2-.18.41-.37.62-.57l.68-.55,1.4-1.14c.47-.38.97-.79,1.5-1.18l1.61-1.13,1.65-1.15c.57-.36,1.16-.71,1.74-1.07l1.75-1.07c.59-.36,1.2-.65,1.79-.97,4.03-2.15,8.21-3.91,12.57-5.27l3.74-.94c-1.49.39-4.71,1.27-6.23,1.87,1.24-.39,2.51-.74,3.74-1.11,1.23-.37,2.5-.65,3.74-.94,2.46-.53,4.85-.9,7.01-1.17,3.21-.42,6.43-.59,9.67-.5,3.05-.06,4.4,0,4.77,0s-.23,0-1.09-.05c-1.72-.06-4.45-.05-2.4-.12,1.28.11,6.95.11,13.69.73,3.51.31,7,.83,10.45,1.56,3.19.68,6.3,1.63,9.32,2.84,2.37.97,1.18.47.41.1-.38-.17-.66-.3-.33-.17l1.01.41.96.4c.45.17.89.37,1.32.59-.4-.17.47.28,1.65.91.62.3,1.28.72,1.93,1.1s1.3.75,1.78,1.09l2,1.17c3.1,2.34,5.95,4.95,8.55,7.84l1.04,1.04.87.97,1.35,1.51c.72.87,1.16,1.4,1.43,1.72.55.64.41.42.37.34s.07-.03.98,1.22c.47.63,1.17,1.53,2.07,2.94.47.69,1,1.49,1.56,2.46.29.47.59.99.94,1.54.34.55.63,1.15.98,1.78l-.67-1.22,1.17,2.25c.41.81.81,1.7,1.27,2.64.46.94.86,1.98,1.35,3.07l1.44,3.53c1.85,4.55,4.2,10.13,5.86,17.29l-.16-.65c-.05-.24-.12-.47-.21-.7-.05-.09,0,.29-.23-.58.75,2.77,1.34,5.57,1.75,8.41-.05-.31-.05-.31,0,.3.15,1,.21,1.87.28,2.64.04.38.07.73.1,1.07s.04.64.06.93c.04.59.07,1.12.11,1.62.03.5.03.97.05,1.45s.05.98.06,1.51ZM101.51,127.09c.08-.29.21-.78.39-1.74.26-1.5.41-3.01.43-4.54,0-.57-.02-1.14-.07-1.71,0,.13.02.38.03.51.02,1.4-.04,2.79-.21,4.17-.06.62-.17,1.19-.26,1.75s-.2,1.05-.31,1.55ZM89.36,141.98l.15-.07.66-.33.57-.33c.32-.18.63-.38.93-.59-.74.49-1.51.94-2.3,1.33h0ZM87.77,142.68l.73-.3c-.23.1-.48.2-.73.3h0ZM88.51,142.38c.26-.11.51-.22.74-.34-.23.11-.47.23-.73.34h0ZM85.82,143.31c.27-.08.51-.16.76-.23-.25.1-.5.16-.76.25h0ZM86.91,142.98l.62-.23-.62.23ZM60.46,138.85c.4.3.86.56,1.32.86s.96.55,1.45.83c1,.52,1.99,1,2.86,1.35s1.6.62,2.02.77c.42.15.53.2.18.09.64.2,1.18.36,1.62.47l1.01.23c.47.1.47.08.03-.05-3.77-.89-7.27-2.4-10.5-4.55ZM28.86,95.03c.07-.17.17-.5.37-1.02-.13.34-.27.68-.37,1.02ZM28.29,166.69l-.05-.04.06.06h-.01ZM148.41,103.88c-.03-.13-.06-.26-.09-.37.16.68.31,1.36.47,2.07-.16-.7-.27-1.25-.37-1.7ZM98.06,178.43c-.54.23-1.08.47-1.64.68.5-.2,1.06-.43,1.64-.68ZM122.2,163.4l-.29.27.29-.27ZM120.54,164.89c.46-.4.91-.8,1.36-1.22-.44.4-.89.8-1.36,1.22ZM149.47,109.99c.03.21.07.42.1.63-.05-.26-.05-.48-.09-.63h0ZM98.63,163.72c-.4.18-.8.34-1.19.51.48-.18.87-.35,1.2-.51h0ZM89.36,79.01c-.25-.1-.57-.22-1.01-.36.34.11.67.23,1.01.36ZM100.91,104.17c-.04-.07-.08-.15-.11-.22.03.07.07.14.12.22h-.01ZM75.09,137.22c-.24-.03-.47-.06-.69-.09.23.04.45.07.69.09ZM52.96,132.86l-.34-.53c.1.19.22.36.33.53h.01ZM100.92,104.17c.27.53.54,1.1.83,1.73-.33-.69-.61-1.26-.83-1.73ZM91.72,177.09l.21-.07-.09.03-.12.04ZM15.26,70.63l1.99-2.55c-.7.87-1.37,1.7-2.01,2.56h.02ZM126.8,166.92l-.75.93.4-.47.35-.47ZM85.14,153.88l-1.16.22-1.16.17.04.03,1.15-.19,1.14-.23ZM5.08,143.42c-.07-.27-.24-.8-.57-1.85.02.09.27.88.57,1.85ZM42.96,48.26c.56-.27.71-.36.85-.47l-.09.04-.76.43ZM120.96,77.41l-.05-.07.05.07ZM120.76,77.15l.14.19-.19-.25.05.06ZM120.96,77.41c.44.6,1.15,1.75,1.93,2.93l-1.02-1.57c-.38-.63-.7-1.07-.91-1.36ZM9.97,137.41c.19.59.37,1.21.61,1.79-.19-.47-.34-.93-.47-1.4s-.28-.91-.41-1.33c-.25-.84-.51-1.59-.68-2.23-.16-.73-.37-1.45-.61-2.16.31,1.19.57,2.38.98,3.55l.58,1.78ZM78.58,178.59h-.03c.55-.05,1.04-.06,1.58-.14-.51.08-1.03.09-1.55.14ZM13.72,146.69c.43.79.85,1.57,1.26,2.34-.47-.91-.96-1.78-1.38-2.63-.42-.85-.77-1.7-1.14-2.51-.18-.41-.37-.8-.54-1.19s-.31-.8-.47-1.19l-.89-2.29c.62,1.57,1.19,3.33,2,4.98.4.83.77,1.67,1.15,2.49ZM125.31,173.73s-.05.09-.16.23l1.66-2.05-1.5,1.82ZM123.45,175.92c.79-.9,1.48-1.68,1.71-1.97l-1.71,1.97ZM122.95,176.47c-.51.54-1.06,1.1-1.56,1.63-.69.7-1.35,1.31-1.78,1.76.65-.65,1.34-1.25,1.97-1.92.45-.49.91-.97,1.37-1.46h.01ZM123.45,175.92c-.16.18-.33.36-.5.54.16-.18.33-.36.49-.52v-.02ZM149.25,112.34c.02.25.06.49.13.73l-.13-.73ZM149.15,111.74l.1.6c-.08-.77-.27-2.04-.47-3.59-.13-.77-.28-1.61-.43-2.49-.15-.88-.36-1.79-.58-2.72-.75-3.24-1.71-6.43-2.87-9.55.79,2.21,1.7,5.01,2.46,8.09.8,3.18,1.39,6.4,1.78,9.66h.01ZM100.51,44.62c-.18-.05-.04-.04.6.13.64.17,1.78.47,3.57,1.07-2.48-.86-4.32-1.33-5.63-1.66s-2.12-.47-2.58-.57c-.9-.18-.4-.06.08.06.48.12.93.24-.08.05-.5-.09-1.36-.25-2.78-.47-1.42-.22-3.37-.51-6.07-.77,5.53.48,10.94,1.56,16.24,3.22-1.38-.48-2.99-.95-3.34-1.07ZM35.71,51.26l.83-.51,1.02-.54c1.97-1.06,2.94-1.6,3.33-1.76.39-.16.12-.07-.38.14-.98.47-2.87,1.48-2.67,1.35-.62.35-1.19.63-1.67.93l-1.24.78c-.7.44-1.11.7-1.2.77.26-.14.52-.3.77-.47l1.22-.71ZM119.2,64.06c-.71-.66-1.46-1.29-2.24-1.87-.27-.21-.13-.09.15.15.29.24.72.58,1.02.87s.43.43.37.39l.7.46ZM118.51,63.6l-.05-.03.05.03ZM56.62,49.86l-1.18.33c-.39.11-.79.22-1.17.36l-2.31.82c1.05-.34,2.09-.73,3.15-1.04l3.2-.84.75-.24.77-.18,1.54-.37-2.39.5-2.36.66ZM18.38,75.96c.06-.1.13-.2.2-.3l-.02.03-.18.27ZM16.22,79.19l2.16-3.23c-.47.66-.9,1.34-1.36,2.01-.28.41-.55.82-.81,1.23h0ZM15.09,81.1l-1.04,1.8c.35-.59.69-1.19,1.04-1.8ZM20.39,73.31l-1.75,2.28-.05.08,1.81-2.37ZM16.07,79.44c-.34.55-.65,1.11-.98,1.66.33-.55.65-1.11.98-1.66ZM16.07,79.44c.05-.08.09-.16.15-.24l-.02.03-.12.21ZM131.9,140.6c-.54,2.27-.97,3.62-.88,3.51.09-.12.72-1.7,1.47-5.51-.19.67-.37,1.35-.59,2.01ZM58.58,173.67c1.21-.04,2.58-.15,3.99-.28,2.83-.24,5.87-.56,8.19-.84-3.01.32-6.01.6-8.65.82-1.32.12-2.56.22-3.66.26-.95.05-1.9.04-2.85-.01.99.08,1.99.1,2.98.06ZM40.03,105.76c-1,3.35-1.43,6.76-1.31,10.25-.07-1.63,0-3.25.23-4.87.23-1.82.59-3.61,1.08-5.38Z"/>
      </g>
      <g>
        <path class="cls-2" d="M54.33,198.03c.87.29,1.73.62,2.57,1,4.43,2.07,7.28,4.56,8.52,7.48.76,1.71.82,3.37.17,4.97-.62,1.57-1.94,3-3.94,4.27-1.42.93-2.95,1.75-4.6,2.45-1.64.7-3.4,1.29-5.28,1.77-.93.24-1.82.44-2.67.61-.85.17-1.62.32-2.32.47l-5.38.86c.44.3.88.61,1.33.95.46.34.93.71,1.41,1.11,3.52,2.69,6.3,5.27,8.32,7.75,3.08,3.59,5.33,6.64,6.76,9.15.2.34.12.62-.23.86-.35.24-.63.2-.84-.11l-4.09-4.86c-.59-.7-1.2-1.37-1.83-2.03-.63-.67-1.29-1.31-1.98-1.94-.05-.09-.23-.26-.55-.54-.32-.28-.73-.66-1.23-1.13-.5-.47-.94-.9-1.32-1.27-.38-.37-.7-.68-.97-.94-.84-.73-1.75-1.49-2.73-2.27-.98-.78-2.02-1.58-3.1-2.41-1.1,3.01-2.07,5.61-2.92,7.81-.85,2.2-1.58,3.99-2.18,5.37-.12.23-.31.31-.58.25-.27-.06-.35-.24-.26-.52.39-1.34.83-2.71,1.32-4.11.5-1.4.99-2.82,1.5-4.24l1.99-5.39-1.68-1.24c-.5-.35-.65-.78-.44-1.29.21-.52.58-.79,1.13-.81l2.32-.22c.37-1,.73-1.98,1.1-2.92.37-.95.71-1.87,1.04-2.77l2.76-7.21,1.45-3.58c.02-.07.16-.41.42-1.02.26-.61.65-1.49,1.17-2.64.03-.1.11-.13.22-.1.11.04.14.1.11.2-.35,1.2-.64,2.16-.86,2.88-.22.72-.35,1.17-.41,1.35-.04.14-.12.37-.23.7-.11.33-.26.74-.44,1.22l-.74,2.25c-.59,1.71-1.24,3.52-1.94,5.44-.7,1.91-1.45,3.94-2.23,6.08,1.59-.13,3.08-.31,4.46-.52,1.38-.21,2.68-.44,3.9-.71,3.97-.83,7.34-2.04,10.1-3.62,1.89-1.04,3.2-2.22,3.94-3.53.73-1.42.76-2.93.09-4.54-1.14-2.68-3.65-5.03-7.56-7.04-1.79-.93-3.65-1.63-5.58-2.1-.68-.19-1.28-.31-1.78-.37-.5-.06-.89-.11-1.19-.14-1.51,0-2.21.48-2.08,1.41-.05.02-.09.04-.11.05-.02.02-.03.02-.03.02-.06-.64.27-1.13,1-1.47.6-.31,1.53-.38,2.78-.2.75.09,1.49.24,2.24.43.75.19,1.48.39,2.17.61Z"/>
        <path class="cls-2" d="M74.53,220.29c.14,0,.25.03.32.08.47.07.93.26,1.39.55.46.29.79.62.98,1.01.67-.13,1.25.07,1.73.61,1.3,1.34,1.82,3.26,1.56,5.76-.13,1.84-.69,3.58-1.68,5.24-.98,1.65-2.28,2.81-3.87,3.47-1.86.79-3.62.77-5.28-.05-1.61-.77-2.62-2.11-3.02-4.03-.34-1.49-.21-3.23.38-5.23.59-2.13,1.53-3.88,2.81-5.25,1.43-1.59,3-2.31,4.69-2.15ZM75.22,222c-.69-.05-1.42.12-2.18.51-1.18.5-2.16,1.59-2.94,3.27-1.48,3.09-1.77,5.63-.88,7.6.54,1.12,1.4,1.74,2.57,1.86,1.24.16,2.29-.12,3.15-.83.97-.7,1.74-1.67,2.3-2.9.57-1.23.87-2.49.89-3.78.06-1.43-.24-2.54-.93-3.33,0-.03-.02-.08-.04-.13l-.17.11-.24.1c-.38.16-.65.3-.81.43l-1.84,1.15c-.34.23-.67.16-.98-.22-.31-.37-.34-.72-.1-1.03.32-.38.69-.76,1.11-1.13.41-.37.89-.72,1.42-1.05.09-.06.18-.13.29-.19.11-.07.21-.12.28-.16-.24-.16-.54-.25-.91-.28Z"/>
        <path class="cls-2" d="M84.61,197.9c.22-.01.36.09.4.31.04.15.08.45.12.88.04.43.06,1,.05,1.7,0,.73.01,1.32.03,1.77.02.44.01.73-.02.87,0,.55-.01,1.28-.01,2.16s.01,1.91.03,3.09c.01,5.23.03,9.4.04,12.52.01,3.12.03,5.2.04,6.23.11,4.18.2,7.85.27,10.99.07,3.14.13,5.76.19,7.86.02.33-.13.5-.44.52-.31.01-.49-.15-.55-.47-.37-3.92-.64-7.45-.82-10.6-.37-7.38-.54-13.63-.52-18.74,0-1.8,0-3.48.01-5.04.02-1.56.06-3.03.11-4.4.01-.55.04-1.22.08-1.99.03-.77.07-1.66.11-2.66l.1-1.38c.02-.34.03-.59.04-.75.01-.16.02-.25.02-.25.04-.62.09-1.13.15-1.52.06-.39.12-.66.18-.81.06-.19.19-.28.38-.29Z"/>
        <path class="cls-2" d="M88.72,197.48c.22-.02.35.08.41.3.06.15.12.43.18.86s.11,1,.15,1.7c.04.74.09,1.33.13,1.77.05.44.06.73.04.87.03.55.07,1.27.12,2.15.06.88.13,1.91.23,3.08.34,5.22.62,9.38.83,12.5.21,3.12.35,5.19.42,6.22.37,4.17.69,7.82.96,10.96.26,3.13.49,5.74.68,7.82.03.33-.1.51-.41.54-.31.03-.5-.11-.57-.43-.6-3.9-1.1-7.41-1.47-10.54-.83-7.35-1.38-13.57-1.67-18.66-.12-1.8-.22-3.48-.3-5.04-.09-1.56-.14-3.03-.17-4.4-.03-.55-.05-1.22-.05-1.99-.01-.77-.03-1.66-.06-2.66l.02-1.38v-1c0-.62.02-1.13.05-1.53.04-.39.08-.67.14-.82.05-.19.17-.3.36-.32Z"/>
        <path class="cls-2" d="M101.49,214.22c1-.24,1.95-.34,2.87-.3,1.81.03,3,.58,3.56,1.65.08.17.04.32-.12.45-.16.14-.31.13-.46-.03-.4-.54-1.15-.83-2.26-.87-.9,0-1.78.09-2.64.29-1.7.45-3.2,1.26-4.51,2.43-1.52,1.54-2.15,2.76-1.89,3.68.3.96,1.48,1.58,3.55,1.88.31.06.7.11,1.16.14.46.02,1,.05,1.61.09.61,0,1.12.03,1.55.06.42.03.73.06.91.09,2.06.19,3.65.61,4.78,1.25,1.64.85,2.36,2.2,2.16,4.06-.2,1.37-1.03,2.8-2.49,4.28-.9.86-1.68,1.37-2.36,1.53-.93.22-1.78.08-2.53-.42-.32-.19-.61-.41-.88-.69-.27-.27-.54-.62-.79-1.05-.49-.75-.77-1.56-.86-2.41-.08-.32.03-.57.32-.75.3-.19.55-.15.76.1.13.2.37.58.72,1.14.36.55.67.97.94,1.25.5.56,1.1.79,1.81.69.51-.09,1.23-.6,2.17-1.54.77-.75,1.2-1.47,1.29-2.16.18-1-.07-1.71-.74-2.15-.68-.44-1.49-.78-2.44-1-.32-.08-.73-.13-1.22-.17-.48-.03-.86-.06-1.12-.08-.26,0-.61-.02-1.05-.05-.44-.03-.69-.03-.76-.02-1.19-.09-2.22-.19-3.08-.3-.86-.11-1.56-.24-2.08-.39-1.92-.63-3-1.66-3.23-3.08-.21-1.35.38-2.77,1.77-4.27.57-.63,1.17-1.17,1.82-1.6.65-.44,1.33-.81,2.04-1.13l1.69-.57Z"/>
      </g>
    </g>
  </g>
</svg>